{
.appVersion = "3516";
.formatVersion = 3;
axes = (
{
name = Weight;
tag = wght;
}
);
classes = (
{
automatic = 1;

glyphs = (
{
color = 4;
glyphname = A;
kernLeft = A;
kernRight = A;
layers = (
{
anchors = (
{
name = bottom;
pos = (285,0);
},
{
name = ogonek;
pos = (474,0);
},
{
name = top;
pos = (289,603);
}
);
layerId = "555729A4-F539-4650-9C4F-3880CB033E7B";
shapes = (
{
closed = 1;
nodes = (
(227,0,l),
(227,43,l),
(156,63,l),
(193,202,l),
(379,202,l),
(418,63,l),
(350,43,l),
(350,0,l),
(579,0,l),
(579,38,l),
(517,58,l),
(354,602,l),
(349,605,o),
(341,610,o),
(338,610,cs),
(336,610,o),
(265,602,o),
(228,596,c),
(68,58,l),
(6,38,l),
(6,0,l)
);
},
{
closed = 1;
nodes = (
(280,523,l),
(292,523,l),
(364,255,l),
(208,255,l)
);
}
);
width = 575;
},
{
anchors = (
{
name = bottom;
pos = (328,0);
},
{
name = ogonek;
pos = (530,0);
},
{
name = top;
pos = (329,612);
}
);
layerId = "CB0A0A08-290D-4820-BDFF-3CAB47D8DECF";
shapes = (
{
closed = 1;
nodes = (
(281,0,l),
(281,80,l),
(212,97,l),
(227,171,l),
(384,171,l),
(404,97,l),
(336,80,l),
(336,0,l),
(666,0,l),
(666,72,l),
(604,92,l),
(433,612,l),
(424,618,o),
(411,625,o),
(409,625,cs),
(402,625,o),
(267,612,o),
(225,606,c),
(56,92,l),
(-6,72,l),
(-6,0,l)
);
},
{
closed = 1;
nodes = (
(300,471,l),
(310,471,l),
(359,266,l),
(249,266,l)
);
}
);
width = 664;
},
{
anchors = (
{
name = bottom;
pos = (265,0);
},
{
name = ogonek;
pos = (432,0);
},
{
name = top;
pos = (267,591);
}
);
layerId = "4F39836F-1187-466E-8FAB-7EBF43C51BB4";
shapes = (
{
closed = 1;
nodes = (
(170,0,l),
(170,18,l),
(109,27,l),
(161,212,l),
(372,212,l),
(425,27,l),
(365,18,l),
(365,0,l),
(513,0,l),
(513,17,l),
(456,25,l),
(293,593,l),
(288,596,o),
(281,601,o),
(279,601,cs),
(275,601,o),
(256,598,o),
(243,596,c),
(79,25,l),
(22,17,l),
(22,0,l)
);
},
{
closed = 1;
nodes = (
(262,570,l),
(271,570,l),
(365,239,l),
(168,239,l)
);
}
);
width = 538;
}
);
unicode = 65;
},
{
color = 4;
glyphname = AE;
kernLeft = A;
kernRight = E;
layers = (
{
anchors = (
{
name = top;
pos = (525,591);
}
);
layerId = "4F39836F-1187-466E-8FAB-7EBF43C51BB4";
shapes = (
{
closed = 1;
nodes = (
(173,0,l),
(173,17,l),
(114,27,l),
(215,212,l),
(426,212,l),
(426,25,l),
(369,17,l),
(369,0,l),
(714,0,l),
(711,122,l),
(692,122,l),
(682,27,l),
(456,27,l),
(456,292,l),
(643,292,l),
(643,319,l),
(456,319,l),
(456,564,l),
(674,564,l),
(681,469,l),
(700,469,l),
(706,591,l),
(343,591,l),
(343,571,l),
(389,564,l),
(81,25,l),
(25,17,l),
(25,0,l)
);
},
{
closed = 1;
nodes = (
(415,564,l),
(426,564,l),
(426,239,l),
(230,239,l)
);
}
);
width = 753;
},
{
anchors = (
{
name = top;
pos = (449,603);
}
);
layerId = "555729A4-F539-4650-9C4F-3880CB033E7B";
shapes = (
{
closed = 1;
nodes = (
(227,0,l),
(227,43,l),
(158,63,l),
(218,203,l),
(380,203,l),
(380,58,l),
(318,38,l),
(318,0,l),
(721,0,l),
(717,179,l),
(663,179,l),
(647,49,l),
(473,65,l),
(473,285,l),
(612,290,l),
(612,337,l),
(473,342,l),
(473,540,l),
(623,554,l),
(634,428,l),
(688,428,l),
(701,603,l),
(214,603,l),
(214,565,l),
(283,545,l),
(68,58,l),
(6,38,l),
(6,0,l)
);
},
{
closed = 1;
nodes = (
(357,540,l),
(380,540,l),
(380,256,l),
(231,256,l)
);
}
);
width = 751;
},
{
anchors = (
{
name = top;
pos = (578,612);
}
);
layerId = "CB0A0A08-290D-4820-BDFF-3CAB47D8DECF";
shapes = (
{
closed = 1;
nodes = (
(287,0,l),
(287,80,l),
(218,97,l),
(259,171,l),
(449,171,l),
(449,97,l),
(389,72,l),
(389,0,l),
(902,0,l),
(898,199,l),
(809,199,l),
(791,88,l),
(640,104,l),
(640,259,l),
(773,266,l),
(773,360,l),
(640,365,l),
(640,510,l),
(782,524,l),
(795,417,l),
(884,417,l),
(897,612,l),
(267,612,l),
(267,540,l),
(327,515,l),
(63,92,l),
(0,72,l),
(0,0,l)
);
},
{
closed = 1;
nodes = (
(437,500,l),
(449,500,l),
(449,266,l),
(312,266,l)
);
}
);
width = 927;
}
);
unicode = 198;
},
{
color = 4;
glyphname = B;
kernLeft = H;
kernRight = B;
layers = (
{
background = {
shapes = (
{
closed = 1;
nodes = (
(301,0,ls),
(400,0,o),
(483,40,o),
(483,174,cs),
(483,250,o),
(429,300,o),
(353,313,c),
(353,319,l),
(382,333,o),
(443,361,o),
(443,447,cs),
(443,567,o),
(388,603,o),
(289,603,cs),
(42,603,l),
(42,565,l),
(104,545,l),
(104,58,l),
(42,38,l),
(42,0,l)
);
},
{
closed = 1;
nodes = (
(197,273,l),
(300,273,ls),
(352,273,o),
(385,269,o),
(385,186,cs),
(385,83,o),
(369,47,o),
(329,47,c),
(197,61,l)
);
},
{
closed = 1;
nodes = (
(197,544,l),
(302,556,l),
(335,556,o),
(345,519,o),
(345,432,cs),
(345,346,o),
(318,330,o),
(266,330,cs),
(197,330,l)
);
}
);
};
layerId = "555729A4-F539-4650-9C4F-3880CB033E7B";
shapes = (
{
closed = 1;
nodes = (
(301,0,ls),
(400,0,o),
(483,40,o),
(483,174,cs),
(483,250,o),
(429,300,o),
(353,313,c),
(353,319,l),
(382,333,o),
(443,361,o),
(443,447,cs),
(443,567,o),
(388,603,o),
(289,603,cs),
(42,603,l),
(42,565,l),
(104,545,l),
(104,58,l),
(42,38,l),
(42,0,l)
);
},
{
closed = 1;
nodes = (
(197,61,l),
(197,273,l),
(300,273,ls),
(352,273,o),
(385,269,o),
(385,186,cs),
(385,83,o),
(369,43,o),
(329,47,cs)
);
},
{
closed = 1;
nodes = (
(197,544,l),
(302,556,ls),
(335,560,o),
(345,519,o),
(345,432,cs),
(345,346,o),
(318,330,o),
(266,330,cs),
(197,330,l)
);
}
);
width = 511;
},
{
layerId = "CB0A0A08-290D-4820-BDFF-3CAB47D8DECF";
shapes = (
{
closed = 1;
nodes = (
(397,0,ls),
(496,0,o),
(579,40,o),
(579,174,cs),
(579,252,o),
(529,304,o),
(459,317,c),
(459,323,l),
(489,338,o),
(553,367,o),
(553,457,cs),
(553,575,o),
(498,612,o),
(399,612,cs),
(20,612,l),
(20,540,l),
(80,515,l),
(80,97,l),
(20,72,l),
(20,0,l)
);
},
{
closed = 1;
nodes = (
(271,98,l),
(271,257,l),
(322,257,ls),
(362,257,o),
(387,253,o),
(387,186,cs),
(387,112,o),
(371,89,o),
(331,89,c)
);
},
{
closed = 1;
nodes = (
(271,515,l),
(322,522,l),
(355,522,o),
(365,495,o),
(365,432,cs),
(365,366,o),
(343,352,o),
(302,352,cs),
(271,352,l)
);
}
);
width = 594;
},
{
layerId = "4F39836F-1187-466E-8FAB-7EBF43C51BB4";
shapes = (
{
closed = 1;
nodes = (
(258,0,ls),
(351,0,o),
(435,26,o),
(435,164,cs),
(435,240,o),
(393,290,o),
(315,304,c),
(315,309,l),
(340,319,o),
(395,352,o),
(395,447,cs),
(395,559,o),
(344,591,o),
(251,591,cs),
(47,591,l),
(47,574,l),
(104,566,l),
(104,25,l),
(47,17,l),
(47,0,l)
);
},
{
closed = 1;
nodes = (
(134,27,l),
(134,288,l),
(277,288,ls),
(307,288,o),
(405,274,o),
(405,165,cs),
(405,63,o),
(362,27,o),
(267,27,cs)
);
},
{
closed = 1;
nodes = (
(134,564,l),
(259,564,ls),
(343,564,o),
(365,517,o),
(365,442,cs),
(365,346,o),
(306,315,o),
(248,315,cs),
(134,315,l)
);
}
);
width = 480;
}
);
unicode = 66;
},
{
color = 4;
glyphname = C;
kernLeft = O;
kernRight = C;
layers = (
{
anchors = (
{
name = bottom;
pos = (252,0);
},
{
name = top;
pos = (261,603);
}
);
background = {
shapes = (
{
closed = 1;
nodes = (
(209,611,o),
(105,544,o),
(73,494,c),
(55,449,o),
(43,369,o),
(43,277,cs),
(43,78,o),
(134,-9,o),
(223,-9,cs),
(238,-9,o),
(369,4,o),
(405,14,c),
(404,191,l),
(353,192,l),
(335.876,65,l),
(270,65,ls),
(201,65,o),
(142,109,o),
(142,312,cs),
(142,433,o),
(159,518,o),
(192,535,cs),
(200,539,o),
(209,541,o),
(224,541,cs),
(246,541,o),
(304,537,o),
(340,530,c),
(352,428,l),
(406,428,l),
(418,601,l),
(358,606,o),
(259,611,o),
(239,611,cs)
);
}
);
};
layerId = "555729A4-F539-4650-9C4F-3880CB033E7B";
shapes = (
{
closed = 1;
nodes = (
(238,-9,o),
(375,4,o),
(411,14,c),
(410,191,l),
(359,192,l),
(342,65,l),
(270,65,ls),
(201,65,o),
(142,109,o),
(142,312,cs),
(142,433,o),
(159,518,o),
(192,535,cs),
(200,539,o),
(209,541,o),
(224,541,cs),
(246,541,o),
(310,537,o),
(346,530,c),
(358,428,l),
(412,428,l),
(424,601,l),
(364,606,o),
(259,611,o),
(239,611,cs),
(209,611,o),
(105,544,o),
(73,494,c),
(55,449,o),
(43,369,o),
(43,277,cs),
(43,78,o),
(134,-9,o),
(223,-9,cs)
);
}
);
width = 456;
},
{
anchors = (
{
name = bottom;
pos = (272,0);
},
{
name = top;
pos = (281,612);
}
);
background = {
shapes = (
{
closed = 1;
nodes = (
(246,625,o),
(97,540,o),
(48,485,c),
(32,442,o),
(15,374,o),
(15,287,cs),
(15,77,o),
(95,-13,o),
(276,-13,cs),
(291,-13,o),
(418,2,o),
(472,14,c),
(466,224,l),
(379,224,l),
(360,101,l),
(323,101,ls),
(249,101,o),
(214,151,o),
(214,308,cs),
(214,428,o),
(227,527,o),
(242,527,cs),
(267,527,o),
(328,515,o),
(355,510,c),
(370,384,l),
(459,384,l),
(471,601,l),
(416,609,o),
(312,625,o),
(292,625,cs)
);
}
);
};
layerId = "CB0A0A08-290D-4820-BDFF-3CAB47D8DECF";
shapes = (
{
closed = 1;
nodes = (
(291,-13,o),
(418,2,o),
(472,14,c),
(466,224,l),
(379,224,l),
(360,101,l),
(323,101,ls),
(249,101,o),
(214,151,o),
(214,308,cs),
(214,428,o),
(228,515,o),
(242,524,cs),
(248,528,o),
(255,529,o),
(265,529,cs),
(289,529,o),
(330,519,o),
(355,510,c),
(370,384,l),
(459,384,l),
(471,601,l),
(416,609,o),
(312,625,o),
(292,625,cs),
(246,625,o),
(97,540,o),
(48,485,c),
(32,442,o),
(15,374,o),
(15,287,cs),
(15,77,o),
(95,-13,o),
(276,-13,cs)
);
}
);
width = 496;
},
{
anchors = (
{
name = bottom;
pos = (255,0);
},
{
name = top;
pos = (261,591);
}
);
background = {
shapes = (
{
closed = 1;
nodes = (
(221,601,o),
(136,549,o),
(90,475,c),
(66,426,o),
(55,358,o),
(55,280,cs),
(55,106,o),
(125,-10,o),
(272,-10,cs),
(314,-10,o),
(367,-4,o),
(368,-4,c),
(369,132,l),
(351,132,l),
(339.816,15,l),
(279,15,ls),
(156,15,o),
(85,96,o),
(85,301,cs),
(85,424,o),
(121,482,o),
(160,517,cs),
(202,555,o),
(236,572,o),
(254,572,cs),
(279,572,o),
(323,567,o),
(336,564,c),
(343,461,l),
(362,461,l),
(368,587,l),
(340,592,o),
(279,601,o),
(250,601,cs)
);
}
);
};
layerId = "4F39836F-1187-466E-8FAB-7EBF43C51BB4";
shapes = (
{
closed = 1;
nodes = (
(324,-10,o),
(377,-4,o),
(378,-4,c),
(379,132,l),
(361,132,l),
(350,15,l),
(279,15,ls),
(156,15,o),
(85,96,o),
(85,301,cs),
(85,424,o),
(121,482,o),
(160,517,cs),
(202,555,o),
(236,572,o),
(254,572,cs),
(279,572,o),
(333,567,o),
(346,564,c),
(353,461,l),
(372,461,l),
(378,587,l),
(350,592,o),
(279,601,o),
(250,601,cs),
(221,601,o),
(136,549,o),
(90,475,c),
(66,426,o),
(55,358,o),
(55,280,cs),
(55,106,o),
(125,-10,o),
(272,-10,cs)
);
}
);
width = 431;
}
);
unicode = 67;
},
{
color = 4;
glyphname = D;
kernLeft = H;
kernRight = O;
layers = (
{
anchors = (
{
name = bottom;
pos = (287,0);
},
{
name = center;
pos = (162,308);
},
{
name = top;
pos = (287,603);
}
);
layerId = "555729A4-F539-4650-9C4F-3880CB033E7B";
shapes = (
{
closed = 1;
nodes = (
(319,0,ls),
(450,0,o),
(530,96,o),
(530,318,cs),
(530,535,o),
(420,603,o),
(319,603,cs),
(42,603,l),
(42,565,l),
(104,545,l),
(104,58,l),
(42,38,l),
(42,0,l)
);
},
{
closed = 1;
nodes = (
(197,63,l),
(197,542,l),
(338,556,l),
(396,556,o),
(431,442,o),
(431,312,cs),
(431,150,o),
(396,47,o),
(338,47,c)
);
}
);
width = 574;
},
{
anchors = (
{
name = bottom;
pos = (307,0);
},
{
name = center;
pos = (190,308);
},
{
name = top;
pos = (308,612);
}
);
layerId = "CB0A0A08-290D-4820-BDFF-3CAB47D8DECF";
shapes = (
{
closed = 1;
nodes = (
(388,0,ls),
(519,0,o),
(599,97,o),
(599,322,cs),
(599,542,o),
(489,612,o),
(388,612,cs),
(20,612,l),
(20,540,l),
(80,515,l),
(80,97,l),
(20,72,l),
(20,0,l)
);
},
{
closed = 1;
nodes = (
(271,98,l),
(271,515,l),
(337,522,l),
(380,522,o),
(404,427,o),
(404,312,cs),
(404,174,o),
(380,91,o),
(337,91,c)
);
}
);
width = 614;
},
{
anchors = (
{
name = bottom;
pos = (256,0);
},
{
name = center;
pos = (144,308);
},
{
name = top;
pos = (254,591);
}
);
layerId = "4F39836F-1187-466E-8FAB-7EBF43C51BB4";
shapes = (
{
closed = 1;
nodes = (
(256,0,ls),
(381,0,o),
(457,94,o),
(457,310,cs),
(457,525,o),
(352,591,o),
(256,591,cs),
(47,591,l),
(47,574,l),
(104,566,l),
(104,25,l),
(47,17,l),
(47,0,l)
);
},
{
closed = 1;
nodes = (
(134,27,l),
(134,564,l),
(262,564,ls),
(348,564,o),
(427,488,o),
(427,308,cs),
(427,87,o),
(349,27,o),
(262,27,cs)
);
}
);
width = 512;
}
);
unicode = 68;
},
{
color = 4;
glyphname = E;
kernLeft = H;
kernRight = E;
layers = (
{
anchors = (
{
name = bottom;
pos = (264,0);
},
{
name = ogonek;
pos = (416,0);
},
{
name = top;
pos = (253,603);
}
);
layerId = "555729A4-F539-4650-9C4F-3880CB033E7B";
shapes = (
{
closed = 1;
nodes = (
(445,0,l),
(441,179,l),
(387,179,l),
(371,49,l),
(197,65,l),
(197,285,l),
(343,290,l),
(343,337,l),
(197,342,l),
(197,540,l),
(362,554,l),
(373,428,l),
(427,428,l),
(440,603,l),
(42,603,l),
(42,565,l),
(104,545,l),
(104,58,l),
(42,38,l),
(42,0,l)
);
}
);
width = 475;
},
{
anchors = (
{
name = bottom;
pos = (294,0);
},
{
name = ogonek;
pos = (483,0);
},
{
name = top;
pos = (291,612);
}
);
layerId = "CB0A0A08-290D-4820-BDFF-3CAB47D8DECF";
shapes = (
{
closed = 1;
nodes = (
(533,0,l),
(529,199,l),
(440,199,l),
(422,88,l),
(271,104,l),
(271,259,l),
(404,266,l),
(404,360,l),
(271,365,l),
(271,510,l),
(413,524,l),
(426,417,l),
(515,417,l),
(528,612,l),
(20,612,l),
(20,540,l),
(80,515,l),
(80,97,l),
(20,72,l),
(20,0,l)
);
}
);
width = 558;
},
{
anchors = (
{
name = bottom;
pos = (248,0);
},
{
name = ogonek;
pos = (371,0);
},
{
name = top;
pos = (232,591);
}
);
layerId = "4F39836F-1187-466E-8FAB-7EBF43C51BB4";
shapes = (
{
closed = 1;
nodes = (
(392,0,l),
(389,122,l),
(370,122,l),
(360,27,l),
(134,27,l),
(134,300,l),
(297,302,l),
(297,325,l),
(134,327,l),
(134,564,l),
(352,564,l),
(359,469,l),
(378,469,l),
(384,591,l),
(47,591,l),
(47,574,l),
(104,566,l),
(104,25,l),
(47,17,l),
(47,0,l)
);
}
);
width = 437;
}
);
unicode = 69;
},
{
color = 4;
glyphname = Schwa;
kernLeft = O;
kernRight = O;
layers = (
{
background = {
shapes = (
{
closed = 1;
nodes = (
(333,-10,o),
(411,48,o),
(444,101,c),
(468,149,o),
(485,225,o),
(485,305,cs),
(485,488,o),
(412,601,o),
(265,601,cs),
(223,601,o),
(147,596,o),
(77,585,c),
(87,556,l),
(150,567,o),
(213,576,o),
(246,576,c),
(269,576,o),
(289,575,o),
(308,570,cs),
(422,541,o),
(455,427,o),
(455,295,cs),
(455,215,o),
(435,133,o),
(419,110,c),
(387,60,o),
(318,20,o),
(284,20,cs),
(192,20,o),
(110,58,o),
(97,252,c),
(469,282,l),
(468,303,l),
(65,273,l),
(68,102,o),
(137,-10,o),
(281,-10,cs)
);
}
);
};
layerId = "4F39836F-1187-466E-8FAB-7EBF43C51BB4";
shapes = (
{
closed = 1;
nodes = (
(333,-10,o),
(411,48,o),
(444,101,c),
(468,149,o),
(485,225,o),
(485,305,cs),
(485,488,o),
(412,601,o),
(265,601,cs),
(223,601,o),
(147,596,o),
(77,585,c),
(87,556,l),
(150,567,o),
(212,576,o),
(245,576,cs),
(403,576,o),
(455,465,o),
(455,295,cs),
(455,215,o),
(435,133,o),
(419,110,cs),
(387,60,o),
(318,20,o),
(284,20,cs),
(192,20,o),
(110,58,o),
(97,252,c),
(469,282,l),
(468,303,l),
(65,273,l),
(68,102,o),
(137,-10,o),
(281,-10,cs)
);
},
{
closed = 1;
nodes = (
(105,449,l),
(111,585,l),
(77,585,l),
(86,449,l)
);
}
);
width = 540;
},
{
layerId = "555729A4-F539-4650-9C4F-3880CB033E7B";
shapes = (
{
closed = 1;
nodes = (
(349,-9,o),
(456,62,o),
(490,108,c),
(502,153,o),
(515,226,o),
(515,318,cs),
(515,524,o),
(425,611,o),
(249,611,cs),
(229,611,o),
(142,589,o),
(85,575,c),
(102,506,l),
(186,531,o),
(259,552,o),
(269,552,cs),
(371,552,o),
(416,494,o),
(416,300,cs),
(416,198,o),
(407,138,o),
(397,94,c),
(392,86,o),
(327,51,o),
(311,51,cs),
(205,51,o),
(163,97,o),
(154,237,c),
(430,265,l),
(430,308,l),
(53,283,l),
(53,79,o),
(143,-9,o),
(319,-9,cs)
);
},
{
closed = 1;
nodes = (
(152,408,l),
(167,575,l),
(85,575,l),
(100,408,l)
);
}
);
width = 558;
},
{
layerId = "CB0A0A08-290D-4820-BDFF-3CAB47D8DECF";
shapes = (
{
closed = 1;
nodes = (
(372,-13,o),
(524,66,o),
(572,117,c),
(588,162,o),
(605,233,o),
(605,324,cs),
(605,536,o),
(503,625,o),
(302,625,cs),
(261,625,o),
(137,612,o),
(56,602,c),
(113,494,l),
(198,513,o),
(272,532,o),
(321,532,cs),
(379,532,o),
(405,480,o),
(405,305,cs),
(405,203,o),
(400,143,o),
(394,100,c),
(389,97,o),
(335,81,o),
(321,81,cs),
(261,81,o),
(235,116,o),
(227,220,c),
(447,243,l),
(441,327,l),
(25,291,l),
(25,77,o),
(127,-13,o),
(328,-13,cs)
);
},
{
closed = 1;
nodes = (
(157,377,l),
(179,602,l),
(51,602,l),
(64,377,l)
);
}
);
width = 620;
}
);
unicode = 399;
},
{
color = 4;
glyphname = F;
kernLeft = H;
kernRight = F;
layers = (
{
layerId = "555729A4-F539-4650-9C4F-3880CB033E7B";
shapes = (
{
closed = 1;
nodes = (
(297,0,l),
(297,43,l),
(197,65,l),
(197,268,l),
(336,273,l),
(336,320,l),
(197,325,l),
(197,540,l),
(343,554,l),
(354,428,l),
(408,428,l),
(421,603,l),
(42,603,l),
(42,565,l),
(104,545,l),
(104,58,l),
(42,38,l),
(42,0,l)
);
}
);
width = 443;
},
{
layerId = "CB0A0A08-290D-4820-BDFF-3CAB47D8DECF";
shapes = (
{
closed = 1;
nodes = (
(371,0,l),
(371,74,l),
(271,105,l),
(271,240,l),
(424,247,l),
(424,341,l),
(271,346,l),
(271,510,l),
(393,524,l),
(406,407,l),
(495,407,l),
(508,612,l),
(20,612,l),
(20,540,l),
(80,515,l),
(80,97,l),
(20,72,l),
(20,0,l)
);
}
);
width = 520;
},
{
layerId = "4F39836F-1187-466E-8FAB-7EBF43C51BB4";
shapes = (
{
closed = 1;
nodes = (
(209,0,l),
(209,18,l),
(134,27,l),
(134,284,l),
(283,286,l),
(283,309,l),
(134,311,l),
(134,564,l),
(344,564,l),
(351,461,l),
(370,461,l),
(376,591,l),
(47,591,l),
(47,574,l),
(104,566,l),
(104,25,l),
(47,17,l),
(47,0,l)
);
}
);
width = 406;
}
);
unicode = 70;
},
{
color = 4;
glyphname = G;
kernLeft = O;
kernRight = G;
layers = (
{
anchors = (
{
name = bottom;
pos = (284,0);
},
{
name = top;
pos = (284,603);
}
);
background = {
shapes = (
{
closed = 1;
nodes = (
(209,611,o),
(105,544,o),
(73,494,c),
(55,449,o),
(43,369,o),
(43,277,cs),
(43,83,o),
(137,-9,o),
(256,-9,cs),
(276,-9,o),
(419,38,o),
(449,59,c),
(449,239,l),
(501,252,l),
(501,291,l),
(270,291,l),
(270,245,l),
(363,228,l),
(363,69,l),
(260,59,l),
(195,59,o),
(142,109,o),
(142,312,cs),
(142,433,o),
(159,518,o),
(192,535,cs),
(200,539,o),
(209,541,o),
(224,541,cs),
(246,541,o),
(323,534,o),
(360,527,c),
(372,428,l),
(426,428,l),
(438,599,l),
(378,604,o),
(259,611,o),
(239,611,cs)
);
}
);
};
layerId = "555729A4-F539-4650-9C4F-3880CB033E7B";
shapes = (
{
closed = 1;
nodes = (
(276,-9,o),
(425,38,o),
(455,59,c),
(455,239,l),
(507,252,l),
(507,291,l),
(276,291,l),
(276,245,l),
(369,228,l),
(369,69,l),
(260,59,l),
(195,59,o),
(142,109,o),
(142,312,cs),
(142,433,o),
(159,518,o),
(192,535,cs),
(200,539,o),
(209,541,o),
(224,541,cs),
(246,541,o),
(329,534,o),
(366,527,c),
(378,428,l),
(432,428,l),
(444,599,l),
(384,604,o),
(259,611,o),
(239,611,cs),
(209,611,o),
(105,544,o),
(73,494,c),
(55,449,o),
(43,369,o),
(43,277,cs),
(43,83,o),
(137,-9,o),
(256,-9,cs)
);
}
);
width = 534;
},
{
anchors = (
{
name = bottom;
pos = (307,0);
},
{
name = top;
pos = (307,612);
}
);
background = {
shapes = (
{
closed = 1;
nodes = (
(246,625,o),
(97,540,o),
(48,485,c),
(32,442,o),
(15,374,o),
(15,287,cs),
(15,77,o),
(117,-13,o),
(318,-13,cs),
(338,-13,o),
(509,35,o),
(539,51,c),
(539,230,l),
(599,243,l),
(599,316,l),
(290,316,l),
(290,239,l),
(383,222,l),
(383,104,l),
(311,97,l),
(237,97,o),
(214,147,o),
(214,308,cs),
(214,428,o),
(227,525,o),
(242,527,c),
(265,527,o),
(378,515,o),
(411,509,c),
(423,396,l),
(516,396,l),
(528,601,l),
(468,612,o),
(312,625,o),
(292,625,cs)
);
}
);
};
layerId = "CB0A0A08-290D-4820-BDFF-3CAB47D8DECF";
shapes = (
{
closed = 1;
nodes = (
(338,-13,o),
(509,35,o),
(539,51,c),
(539,230,l),
(599,243,l),
(599,316,l),
(290,316,l),
(290,239,l),
(383,222,l),
(383,104,l),
(311,97,l),
(237,97,o),
(214,147,o),
(214,308,cs),
(214,428,o),
(228,515,o),
(242,524,cs),
(248,528,o),
(255,529,o),
(265,529,cs),
(306,529,o),
(384,514,o),
(411,509,c),
(423,396,l),
(516,396,l),
(528,601,l),
(468,612,o),
(312,625,o),
(292,625,cs),
(246,625,o),
(97,540,o),
(48,485,c),
(32,442,o),
(15,374,o),
(15,287,cs),
(15,77,o),
(117,-13,o),
(318,-13,cs)
);
}
);
width = 599;
},
{
anchors = (
{
name = bottom;
pos = (261,0);
},
{
name = top;
pos = (264,591);
}
);
background = {
shapes = (
{
closed = 1;
nodes = (
(221,601,o),
(136,549,o),
(90,475,c),
(66,426,o),
(55,358,o),
(55,280,cs),
(55,95,o),
(127,-15,o),
(267,-10,cs),
(290,-9,o),
(376,9,o),
(392,15,c),
(392,262,l),
(449,267,l),
(449,287,l),
(271,287,l),
(271,266,l),
(362,259,l),
(362,31,l),
(270,16,ls),
(166,16,o),
(85,70,o),
(85,301,cs),
(85,424,o),
(121,482,o),
(160,517,cs),
(202,555,o),
(236,572,o),
(254,572,cs),
(288,572,o),
(339,564,o),
(359,560,c),
(366,461,l),
(385,461,l),
(391,583,l),
(362,589,o),
(283,601,o),
(250,601,cs)
);
}
);
};
layerId = "4F39836F-1187-466E-8FAB-7EBF43C51BB4";
shapes = (
{
closed = 1;
nodes = (
(290,-9,o),
(386,9,o),
(402,15,c),
(402,262,l),
(459,267,l),
(459,287,l),
(281,287,l),
(281,266,l),
(372,259,l),
(372,31,l),
(270,16,l),
(167,15,o),
(85,70,o),
(85,301,cs),
(85,424,o),
(121,482,o),
(160,517,cs),
(202,555,o),
(236,572,o),
(254,572,cs),
(288,572,o),
(349,564,o),
(369,560,c),
(376,461,l),
(395,461,l),
(401,583,l),
(372,589,o),
(283,601,o),
(250,601,cs),
(221,601,o),
(136,549,o),
(90,475,c),
(66,426,o),
(55,358,o),
(55,280,cs),
(55,95,o),
(127,-15,o),
(267,-10,cs)
);
}
);
width = 479;
}
);
unicode = 71;
},
{
color = 4;
glyphname = H;
kernLeft = H;
kernRight = H;
layers = (
{
anchors = (
{
name = bottom;
pos = (308,0);
},
{
name = center;
pos = (310,448);
},
{
name = top;
pos = (310,603);
}
);
layerId = "555729A4-F539-4650-9C4F-3880CB033E7B";
shapes = (
{
closed = 1;
nodes = (
(263,0,l),
(263,43,l),
(197,63,l),
(197,284,l),
(424,284,l),
(424,63,l),
(358,43,l),
(358,0,l),
(579,0,l),
(579,38,l),
(517,58,l),
(517,545,l),
(579,565,l),
(579,603,l),
(358,603,l),
(358,560,l),
(424,540,l),
(424,337,l),
(197,337,l),
(197,540,l),
(263,560,l),
(263,603,l),
(42,603,l),
(42,565,l),
(104,545,l),
(104,58,l),
(42,38,l),
(42,0,l)
);
}
);
width = 621;
},
{
anchors = (
{
name = bottom;
pos = (348,0);
},
{
name = center;
pos = (346,447);
},
{
name = top;
pos = (347,612);
}
);
layerId = "CB0A0A08-290D-4820-BDFF-3CAB47D8DECF";
shapes = (
{
closed = 1;
nodes = (
(325,0,l),
(325,84,l),
(267,107,l),
(267,265,l),
(426,265,l),
(426,107,l),
(368,84,l),
(368,0,l),
(673,0,l),
(673,72,l),
(613,97,l),
(613,515,l),
(673,540,l),
(673,612,l),
(368,612,l),
(368,532,l),
(426,505,l),
(426,360,l),
(267,360,l),
(267,505,l),
(325,532,l),
(325,612,l),
(20,612,l),
(20,540,l),
(80,515,l),
(80,97,l),
(20,72,l),
(20,0,l)
);
}
);
width = 693;
},
{
anchors = (
{
name = bottom;
pos = (274,0);
},
{
name = center;
pos = (270,441);
},
{
name = top;
pos = (271,591);
}
);
layerId = "4F39836F-1187-466E-8FAB-7EBF43C51BB4";
shapes = (
{
closed = 1;
nodes = (
(195,0,l),
(195,18,l),
(134,27,l),
(134,292,l),
(411,292,l),
(411,27,l),
(350,18,l),
(350,0,l),
(498,0,l),
(498,17,l),
(441,25,l),
(441,566,l),
(498,574,l),
(498,591,l),
(350,591,l),
(350,573,l),
(411,564,l),
(411,319,l),
(134,319,l),
(134,564,l),
(195,573,l),
(195,591,l),
(47,591,l),
(47,574,l),
(104,566,l),
(104,25,l),
(47,17,l),
(47,0,l)
);
}
);
width = 545;
}
);
unicode = 72;
},
{
color = 4;
glyphname = I;
kernLeft = H;
kernRight = H;
layers = (
{
anchors = (
{
name = bottom;
pos = (152,0);
},
{
name = ogonek;
pos = (234,0);
},
{
name = top;
pos = (154,603);
}
);
layerId = "555729A4-F539-4650-9C4F-3880CB033E7B";
shapes = (
{
closed = 1;
nodes = (
(264,0,l),
(264,43,l),
(198,63,l),
(198,540,l),
(264,560,l),
(264,603,l),
(42,603,l),
(42,565,l),
(105,545,l),
(105,58,l),
(43,38,l),
(43,0,l)
);
}
);
width = 306;
},
{
anchors = (
{
name = bottom;
pos = (184,0);
},
{
name = ogonek;
pos = (291,0);
},
{
name = top;
pos = (180,612);
}
);
layerId = "CB0A0A08-290D-4820-BDFF-3CAB47D8DECF";
shapes = (
{
closed = 1;
nodes = (
(341,0,l),
(341,72,l),
(276,97,l),
(276,515,l),
(341,540,l),
(341,612,l),
(20,612,l),
(20,540,l),
(85,515,l),
(85,97,l),
(20,72,l),
(20,0,l)
);
}
);
width = 361;
},
{
anchors = (
{
name = bottom;
pos = (118,0);
},
{
name = ogonek;
pos = (170,0);
},
{
name = top;
pos = (120,591);
}
);
layerId = "4F39836F-1187-466E-8FAB-7EBF43C51BB4";
shapes = (
{
closed = 1;
nodes = (
(195,0,l),
(195,18,l),
(134,27,l),
(134,564,l),
(195,573,l),
(195,591,l),
(47,591,l),
(47,574,l),
(104,566,l),
(104,25,l),
(47,17,l),
(47,0,l)
);
}
);
width = 242;
}
);
metricLeft = H;
metricRight = H;
unicode = 73;
},
{
color = 4;
glyphname = J;
kernLeft = J;
kernRight = J;
layers = (
{
anchors = (
{
name = top;
pos = (151,603);
}
);
layerId = "555729A4-F539-4650-9C4F-3880CB033E7B";
shapes = (
{
closed = 1;
nodes = (
(93,-123,o),
(197,-24,o),
(197,38,cs),
(197,545,l),
(262,565,l),
(262,603,l),
(39,603,l),
(39,565,l),
(104,545,l),
(104,70,ls),
(104,35,o),
(102,-43,o),
(72,-49,cs),
(57,-52,o),
(-10,-52,o),
(-38,-52,c),
(-38,-99,l),
(-2,-108,o),
(46,-123,o),
(62,-123,cs)
);
}
);
width = 301;
},
{
anchors = (
{
name = top;
pos = (172,612);
}
);
layerId = "CB0A0A08-290D-4820-BDFF-3CAB47D8DECF";
shapes = (
{
closed = 1;
nodes = (
(134,-153,o),
(269,-24,o),
(269,58,cs),
(269,515,l),
(334,540,l),
(334,612,l),
(13,612,l),
(13,540,l),
(78,515,l),
(78,70,ls),
(78,38,o),
(77,-34,o),
(46,-39,cs),
(31,-42,o),
(-32,-42,o),
(-60,-42,c),
(-60,-129,l),
(0,-138,o),
(67,-153,o),
(95,-153,cs)
);
}
);
width = 344;
},
{
anchors = (
{
name = top;
pos = (120,591);
}
);
layerId = "4F39836F-1187-466E-8FAB-7EBF43C51BB4";
shapes = (
{
closed = 1;
nodes = (
(82,-115,o),
(135,-53,o),
(135,19,cs),
(135,564,l),
(196,573,l),
(196,591,l),
(48,591,l),
(48,574,l),
(105,566,l),
(105,17,ls),
(105,-53,o),
(56,-87,o),
(51,-87,cs),
(41,-87,o),
(-1,-87,o),
(-15,-87,c),
(-15,-106,l),
(3,-109,o),
(40,-115,o),
(51,-115,cs)
);
}
);
width = 232;
}
);
unicode = 74;
},
{
color = 4;
glyphname = K;
kernLeft = H;
kernRight = K;
layers = (
{
anchors = (
{
name = bottom;
pos = (303,0);
}
);
layerId = "555729A4-F539-4650-9C4F-3880CB033E7B";
shapes = (
{
closed = 1;
nodes = (
(562,0,l),
(562,42,l),
(512,58,l),
(469,106,o),
(356,257,o),
(311,320,c),
(474,545,l),
(536,565,l),
(536,603,l),
(315,603,l),
(315,560,l),
(380,540,l),
(227,320,l),
(227,292,l),
(274,219,o),
(385,63,o),
(427,0,c)
);
},
{
closed = 1;
nodes = (
(263,0,l),
(263,43,l),
(197,63,l),
(197,540,l),
(263,560,l),
(263,603,l),
(42,603,l),
(42,565,l),
(104,545,l),
(104,58,l),
(42,38,l),
(42,0,l)
);
}
);
width = 538;
},
{
anchors = (
{
name = bottom;
pos = (354,0);
}
);
layerId = "CB0A0A08-290D-4820-BDFF-3CAB47D8DECF";
shapes = (
{
closed = 1;
nodes = (
(666,0,l),
(666,72,l),
(610,97,l),
(576,146,o),
(484,280,o),
(448,334,c),
(597,520,l),
(654,540,l),
(654,612,l),
(366,612,l),
(366,532,l),
(423,512,l),
(284,333,l),
(284,272,l),
(323,204,o),
(405,59,o),
(440,0,c)
);
},
{
closed = 1;
nodes = (
(325,0,l),
(325,84,l),
(267,107,l),
(267,505,l),
(323,532,l),
(323,612,l),
(20,612,l),
(20,540,l),
(80,515,l),
(80,97,l),
(20,72,l),
(20,0,l)
);
}
);
width = 668;
},
{
anchors = (
{
name = bottom;
pos = (254,0);
}
);
layerId = "4F39836F-1187-466E-8FAB-7EBF43C51BB4";
shapes = (
{
closed = 1;
nodes = (
(482,0,l),
(482,20,l),
(426,25,l),
(384,86,o),
(279,233,o),
(225,311,c),
(407,566,l),
(463,574,l),
(463,591,l),
(315,591,l),
(315,573,l),
(371,564,l),
(195,317,l),
(195,302,l),
(264,203,o),
(370,54,o),
(407,0,c)
);
},
{
closed = 1;
nodes = (
(195,0,l),
(195,18,l),
(134,27,l),
(134,564,l),
(195,573,l),
(195,591,l),
(47,591,l),
(47,574,l),
(104,566,l),
(104,25,l),
(47,17,l),
(47,0,l)
);
}
);
width = 512;
}
);
metricLeft = H;
unicode = 75;
},
{
color = 4;
glyphname = L;
kernLeft = H;
kernRight = L;
layers = (
{
anchors = (
{
name = bottom;
pos = (256,0);
},
{
name = center;
pos = (197,298);
},
{
name = top;
pos = (150,603);
},
{
name = topright;
pos = (355,448);
}
);
layerId = "555729A4-F539-4650-9C4F-3880CB033E7B";
shapes = (
{
closed = 1;
nodes = (
(452,0,l),
(448,179,l),
(394,179,l),
(378,49,l),
(197,65,l),
(197,540,l),
(273,560,l),
(273,603,l),
(42,603,l),
(42,565,l),
(104,545,l),
(104,58,l),
(42,38,l),
(42,0,l)
);
}
);
width = 460;
},
{
anchors = (
{
name = bottom;
pos = (271,0);
},
{
name = center;
pos = (204,307);
},
{
name = top;
pos = (177,612);
},
{
name = topright;
pos = (365,448);
}
);
layerId = "CB0A0A08-290D-4820-BDFF-3CAB47D8DECF";
shapes = (
{
closed = 1;
nodes = (
(513,0,l),
(509,219,l),
(420,219,l),
(398,88,l),
(271,104,l),
(271,515,l),
(341,540,l),
(341,612,l),
(20,612,l),
(20,540,l),
(80,515,l),
(80,97,l),
(20,72,l),
(20,0,l)
);
}
);
width = 523;
},
{
anchors = (
{
name = bottom;
pos = (230,0);
},
{
name = center;
pos = (161,305);
},
{
name = top;
pos = (120,591);
},
{
name = topright;
pos = (312,448);
}
);
layerId = "4F39836F-1187-466E-8FAB-7EBF43C51BB4";
shapes = (
{
closed = 1;
nodes = (
(372,0,l),
(369,142,l),
(350,142,l),
(340,27,l),
(134,27,l),
(134,564,l),
(205,573,l),
(205,591,l),
(47,591,l),
(47,574,l),
(104,566,l),
(104,25,l),
(47,17,l),
(47,0,l)
);
}
);
width = 402;
}
);
metricLeft = H;
unicode = 76;
},
{
color = 4;
glyphname = M;
kernLeft = M;
kernRight = M;
layers = (
{
background = {
shapes = (
{
closed = 1;
nodes = (
(255,0,l),
(255,46,l),
(189,63,l),
(197,486,l),
(204,486,l),
(204,486,o),
(243,348,o),
(258,295,cs),
(332,42,l),
(332,42,o),
(344,34,o),
(348,34,cs),
(350,34,o),
(415,42,o),
(453,48,c),
(528,301,ls),
(547,366,o),
(581,486,o),
(581,486,c),
(588,486,l),
(596,63,l),
(530,46,l),
(530,0,l),
(751,0,l),
(751,38,l),
(689,58,l),
(670,545,l),
(732,565,l),
(732,603,l),
(537,603,l),
(402,129,l),
(390,129,l),
(254,603,l),
(60,603,l),
(60,565,l),
(122,545,l),
(104,58,l),
(42,38,l),
(42,0,l)
);
}
);
};
layerId = "555729A4-F539-4650-9C4F-3880CB033E7B";
shapes = (
{
closed = 1;
nodes = (
(255,0,l),
(255,43,l),
(189,63,l),
(197,491,l),
(204,491,l),
(220,430,o),
(246,334,o),
(258,295,cs),
(334,42,l),
(339,39,o),
(347,34,o),
(350,34,cs),
(352,34,o),
(413,42,o),
(451,48,c),
(528,301,ls),
(543,348,o),
(567,437,o),
(581,491,c),
(588,491,l),
(596,63,l),
(530,43,l),
(530,0,l),
(751,0,l),
(751,38,l),
(689,58,l),
(670,545,l),
(732,565,l),
(732,603,l),
(537,603,l),
(402,124,l),
(390,124,l),
(254,603,l),
(60,603,l),
(60,565,l),
(122,545,l),
(104,58,l),
(42,38,l),
(42,0,l)
);
}
);
width = 789;
},
{
background = {
shapes = (
{
closed = 1;
nodes = (
(278,0,l),
(278,80,l),
(208,105,l),
(218,355,l),
(228,355,l),
(228,355,o),
(242,293,o),
(261,240,cs),
(334,32,l),
(334,32,o),
(355,19,o),
(358,19,cs),
(367,19,o),
(478,35,o),
(478,35,c),
(549,235,ls),
(561,269,o),
(574,315,o),
(582,355,c),
(592,355,l),
(599,105,l),
(529,80,l),
(529,0,l),
(849,0,l),
(849,72,l),
(789,97,l),
(769,515,l),
(829,540,l),
(829,612,l),
(541,612,l),
(435,258,l),
(422,258,l),
(317,612,l),
(30,612,l),
(30,540,l),
(90,515,l),
(70,97,l),
(10,72,l),
(10,0,l)
);
}
);
};
layerId = "CB0A0A08-290D-4820-BDFF-3CAB47D8DECF";
shapes = (
{
closed = 1;
nodes = (
(278,0,l),
(278,80,l),
(208,105,l),
(218,360,l),
(228,360,l),
(234,331,o),
(247,279,o),
(261,240,cs),
(336,32,l),
(345,26,o),
(358,19,o),
(360,19,cs),
(367,19,o),
(430,28,o),
(476,35,c),
(549,235,ls),
(561,269,o),
(574,320,o),
(582,360,c),
(592,360,l),
(599,105,l),
(529,80,l),
(529,0,l),
(849,0,l),
(849,72,l),
(789,97,l),
(769,515,l),
(829,540,l),
(829,612,l),
(541,612,l),
(435,253,l),
(422,253,l),
(317,612,l),
(30,612,l),
(30,540,l),
(90,515,l),
(70,97,l),
(10,72,l),
(10,0,l)
);
}
);
width = 855;
},
{
layerId = "4F39836F-1187-466E-8FAB-7EBF43C51BB4";
shapes = (
{
closed = 1;
nodes = (
(192,0,l),
(192,18,l),
(131,27,l),
(148,542,l),
(154,542,l),
(176,469,o),
(211,354,o),
(227,304,cs),
(309,49,l),
(313,46,o),
(320,41,o),
(323,41,cs),
(327,41,o),
(344,44,o),
(355,46,c),
(438,304,ls),
(456,359,o),
(489,472,o),
(510,542,c),
(516,542,l),
(534,27,l),
(473,18,l),
(473,0,l),
(621,0,l),
(621,17,l),
(564,25,l),
(545,566,l),
(602,574,l),
(602,591,l),
(497,591,l),
(337,68,l),
(331,68,l),
(167,591,l),
(64,591,l),
(64,574,l),
(121,566,l),
(101,25,l),
(44,17,l),
(44,0,l)
);
}
);
width = 657;
}
);
unicode = 77;
},
{
color = 4;
glyphname = N;
kernLeft = H;
kernRight = N;
layers = (
{
anchors = (
{
name = bottom;
pos = (303,0);
},
{
name = top;
pos = (301,603);
}
);
background = {
shapes = (
{
closed = 1;
nodes = (
(390,-7,o),
(471,1,o),
(508,7,c),
(508,545,l),
(570,565,l),
(570,603,l),
(357,603,l),
(357,557,l),
(423,540,l),
(423,505,l),
(433,92,l),
(425,92,l),
(425,92,o),
(377,233,o),
(363,268,cs),
(226,603,l),
(42,603,l),
(42,565,l),
(104,545,l),
(104,58,l),
(42,38,l),
(42,0,l),
(255,0,l),
(255,46,l),
(189,63,l),
(189,99,l),
(179,486,l),
(186,486,l),
(186,486,o),
(236,347,o),
(257,295,cs),
(372,1,l),
(372,1,o),
(384,-7,o),
(388,-7,cs)
);
}
);
};
layerId = "555729A4-F539-4650-9C4F-3880CB033E7B";
shapes = (
{
closed = 1;
nodes = (
(393,-7,o),
(471,1,o),
(508,7,c),
(508,545,l),
(570,565,l),
(570,603,l),
(357,603,l),
(357,560,l),
(423,540,l),
(423,505,l),
(433,87,l),
(425,87,l),
(404,150,o),
(373,242,o),
(363,268,cs),
(226,603,l),
(42,603,l),
(42,565,l),
(104,545,l),
(104,58,l),
(42,38,l),
(42,0,l),
(255,0,l),
(255,43,l),
(189,63,l),
(189,99,l),
(179,486,l),
(186,486,l),
(208,426,o),
(242,333,o),
(257,295,cs),
(375,1,l),
(380,-2,o),
(388,-7,o),
(391,-7,cs)
);
}
);
width = 597;
},
{
anchors = (
{
name = bottom;
pos = (335,0);
},
{
name = top;
pos = (338,612);
}
);
layerId = "CB0A0A08-290D-4820-BDFF-3CAB47D8DECF";
shapes = (
{
closed = 1;
nodes = (
(428,-13,o),
(526,-2,o),
(599,6,c),
(599,515,l),
(659,540,l),
(659,612,l),
(392,612,l),
(392,532,l),
(461,507,l),
(461,476,l),
(470,250,l),
(460,250,l),
(452,280,o),
(434,335,o),
(412,376,cs),
(287,612,l),
(20,612,l),
(20,540,l),
(80,515,l),
(80,97,l),
(20,72,l),
(20,0,l),
(288,0,l),
(288,80,l),
(218,105,l),
(218,140,l),
(209,360,l),
(219,360,l),
(228,326,o),
(253,257,o),
(289,193,cs),
(397,0,l),
(406,-6,o),
(419,-13,o),
(421,-13,cs)
);
}
);
width = 669;
},
{
anchors = (
{
name = bottom;
pos = (271,0);
},
{
name = top;
pos = (267,591);
}
);
layerId = "4F39836F-1187-466E-8FAB-7EBF43C51BB4";
shapes = (
{
closed = 1;
nodes = (
(403,-10,o),
(422,-7,o),
(435,-5,c),
(435,566,l),
(492,574,l),
(492,591,l),
(344,591,l),
(344,573,l),
(405,564,l),
(405,544,l),
(408,18,l),
(402,18,l),
(392,47,o),
(373,95,o),
(360,123,cs),
(143,591,l),
(47,591,l),
(47,574,l),
(104,566,l),
(104,25,l),
(47,17,l),
(47,0,l),
(195,0,l),
(195,18,l),
(134,27,l),
(134,46,l),
(131,542,l),
(137,542,l),
(147,516,o),
(165,472,o),
(176,448,cs),
(385,-2,l),
(390,-5,o),
(397,-10,o),
(399,-10,cs)
);
}
);
width = 532;
}
);
unicode = 78;
},
{
color = 4;
glyphname = Nhookleft;
kernLeft = J;
kernRight = N;
layers = (
{
layerId = "4F39836F-1187-466E-8FAB-7EBF43C51BB4";
shapes = (
{
closed = 1;
nodes = (
(82,-129,o),
(134,-67,o),
(134,5,cs),
(131,542,l),
(137,542,l),
(146,516,o),
(162,478,o),
(176,448,cs),
(385,-2,l),
(399,-10,l),
(404,-10,o),
(424,-8,o),
(435,-5,c),
(435,566,l),
(492,574,l),
(492,591,l),
(344,591,l),
(344,573,l),
(405,564,l),
(405,544,l),
(408,22,l),
(402,22,l),
(392,49,o),
(373,95,o),
(360,123,cs),
(143,591,l),
(47,591,l),
(47,574,l),
(105,565,l),
(104,3,ls),
(104,-67,o),
(61,-97,o),
(54,-99,cs),
(33,-104,o),
(7,-101,o),
(-15,-101,c),
(-15,-120,l),
(3,-123,o),
(40,-129,o),
(51,-129,cs)
);
}
);
width = 532;
},
{
layerId = "555729A4-F539-4650-9C4F-3880CB033E7B";
shapes = (
{
closed = 1;
nodes = (
(89,-153,o),
(191,-54,o),
(190,8,cs),
(179,486,l),
(186,486,l),
(206,426,o),
(237,344,o),
(257,295,cs),
(372,1,l),
(388,-7,l),
(390,-7,o),
(471,1,o),
(508,7,c),
(508,545,l),
(570,565,l),
(570,603,l),
(357,603,l),
(357,560,l),
(423,540,l),
(423,505,l),
(433,92,l),
(425,92,l),
(404,153,o),
(373,242,o),
(363,268,cs),
(226,603,l),
(42,603,l),
(42,565,l),
(104,545,l),
(104,40,ls),
(104,5,o),
(102,-73,o),
(72,-79,cs),
(57,-82,o),
(-14,-82,o),
(-42,-82,c),
(-42,-129,l),
(-7,-138,o),
(42,-153,o),
(58,-153,cs)
);
}
);
width = 597;
},
{
layerId = "CB0A0A08-290D-4820-BDFF-3CAB47D8DECF";
shapes = (
{
closed = 1;
nodes = (
(108,-183,o),
(224,-54,o),
(221,28,cs),
(209,355,l),
(219,355,l),
(224,338,o),
(244,278,o),
(289,193,cs),
(392,0,l),
(416,-13,l),
(424,-13,o),
(560,0,o),
(599,6,c),
(599,515,l),
(659,540,l),
(659,612,l),
(392,612,l),
(392,532,l),
(461,507,l),
(461,476,l),
(470,255,l),
(460,255,l),
(452,283,o),
(434,335,o),
(412,376,cs),
(287,612,l),
(20,612,l),
(20,540,l),
(79,515,l),
(79,40,ls),
(79,8,o),
(78,-65,o),
(47,-69,cs),
(32,-71,o),
(-43,-72,o),
(-71,-72,c),
(-71,-159,l),
(-13,-171,o),
(41,-183,o),
(69,-183,cs)
);
}
);
width = 669;
}
);
unicode = 413;
},
{
color = 4;
glyphname = Eng;
kernLeft = H;
kernRight = J;
layers = (
{
layerId = "4F39836F-1187-466E-8FAB-7EBF43C51BB4";
shapes = (
{
closed = 1;
nodes = (
(435,-5,l),
(435,566,l),
(492,574,l),
(492,591,l),
(344,591,l),
(344,573,l),
(405,564,l),
(405,544,l),
(408,58,l),
(402,58,l),
(395,76,o),
(381,110,o),
(367,138,cs),
(143,591,l),
(47,591,l),
(47,574,l),
(104,566,l),
(104,25,l),
(47,17,l),
(47,0,l),
(195,0,l),
(195,18,l),
(134,27,l),
(134,46,l),
(131,542,l),
(137,542,l),
(151,516,o),
(173,472,o),
(185,448,cs),
(408,-16,l)
);
},
{
closed = 1;
nodes = (
(382,-129,o),
(435,-67,o),
(435,-5,c),
(408,3,l),
(409,-67,o),
(358,-101,o),
(353,-101,cs),
(343,-101,o),
(299,-101,o),
(285,-101,c),
(285,-120,l),
(303,-123,o),
(340,-129,o),
(351,-129,cs)
);
}
);
width = 532;
},
{
background = {
shapes = (
{
closed = 1;
nodes = (
(423,540,l),
(357,557,l),
(357,603,l),
(570,603,l),
(570,565,l),
(508,545,l),
(508,7,l),
(471,1,o),
(390,-7,o),
(388,-7,cs),
(384,-7,o),
(372,1,o),
(372,1,c),
(257,295,ls),
(236,347,o),
(186,486,o),
(186,486,c),
(179,486,l),
(179,439,o),
(189,133,o),
(189,99,cs),
(189,63,l),
(255,46,l),
(255,0,l),
(42,0,l),
(42,38,l),
(104,58,l),
(104,545,l),
(42,565,l),
(42,603,l),
(226,603,l),
(363,268,ls),
(377,233,o),
(425,92,o),
(425,92,c),
(433,92,l),
(433,167,o),
(423,467,o),
(423,505,cs)
);
},
{
closed = 1;
nodes = (
(508,8,l),
(508,-54,o),
(404,-153,o),
(373,-153,cs),
(357,-153,o),
(309,-138,o),
(273,-129,c),
(273,-82,l),
(301,-82,o),
(376,-82,o),
(391,-79,cs),
(421,-73,o),
(423,5,o),
(423,40,c)
);
}
);
};
layerId = "555729A4-F539-4650-9C4F-3880CB033E7B";
shapes = (
{
closed = 1;
nodes = (
(508,7,l),
(508,545,l),
(570,565,l),
(570,603,l),
(357,603,l),
(357,560,l),
(423,540,l),
(423,505,l),
(431,172,l),
(423,172,l),
(412,198,o),
(393,242,o),
(381,268,cs),
(226,603,l),
(42,603,l),
(42,565,l),
(104,545,l),
(104,58,l),
(42,38,l),
(42,0,l),
(255,0,l),
(255,43,l),
(189,63,l),
(189,99,l),
(179,486,l),
(186,486,l),
(215,426,o),
(259,332,o),
(277,295,cs),
(421,-6,l)
);
},
{
closed = 1;
nodes = (
(404,-153,o),
(508,-54,o),
(508,8,c),
(423,40,l),
(423,5,o),
(421,-73,o),
(391,-79,cs),
(376,-82,o),
(301,-82,o),
(273,-82,c),
(273,-129,l),
(309,-138,o),
(357,-153,o),
(373,-153,cs)
);
}
);
width = 597;
},
{
layerId = "CB0A0A08-290D-4820-BDFF-3CAB47D8DECF";
shapes = (
{
closed = 1;
nodes = (
(599,28,l),
(599,515,l),
(659,540,l),
(659,612,l),
(392,612,l),
(392,532,l),
(461,507,l),
(461,467,l),
(468,308,l),
(458,308,l),
(442,348,o),
(423,387,o),
(401,424,cs),
(287,612,l),
(20,612,l),
(20,540,l),
(80,515,l),
(80,97,l),
(20,72,l),
(20,0,l),
(288,0,l),
(288,80,l),
(218,105,l),
(218,140,l),
(209,355,l),
(219,355,l),
(236,320,o),
(275,251,o),
(319,190,cs),
(462,-12,l)
);
},
{
closed = 1;
nodes = (
(507,-183,o),
(599,-54,o),
(599,28,c),
(465,40,l),
(466,8,o),
(464,-65,o),
(433,-69,cs),
(418,-71,o),
(380,-72,o),
(320,-72,c),
(322,-159,l),
(380,-171,o),
(440,-183,o),
(468,-183,cs)
);
}
);
width = 669;
}
);
unicode = 330;
},
{
color = 4;
glyphname = O;
kernLeft = O;
kernRight = O;
layers = (
{
anchors = (
{
name = bottom;
pos = (275,0);
},
{
name = center;
pos = (268,287);
},
{
name = ogonek;
pos = (311,0);
},
{
name = top;
pos = (270,603);
},
{
name = topright;
pos = (321,603);
}
);
background = {
shapes = (
{
closed = 1;
nodes = (
(339,-9,o),
(446,62,o),
(480,108,c),
(492,153,o),
(505,226,o),
(505,318,cs),
(505,524,o),
(415,611,o),
(239,611,cs),
(208,611,o),
(102,540,o),
(68,494,c),
(56,449,o),
(43,375,o),
(43,283,cs),
(43,79,o),
(133,-9,o),
(309,-9,cs)
);
},
{
closed = 1;
nodes = (
(180,51,o),
(142,111,o),
(142,303,cs),
(142,436,o),
(163,544,o),
(189,547,cs),
(214,550,o),
(249,552,o),
(259,552,c),
(361,552,o),
(406,494,o),
(406,300,cs),
(406,198,o),
(397,138,o),
(387,94,c),
(382,86,o),
(317,51,o),
(301,51,cs)
);
}
);
};
layerId = "555729A4-F539-4650-9C4F-3880CB033E7B";
shapes = (
{
closed = 1;
nodes = (
(339,-9,o),
(446,62,o),
(480,108,c),
(492,153,o),
(505,226,o),
(505,318,cs),
(505,524,o),
(415,611,o),
(239,611,cs),
(208,611,o),
(105,544,o),
(73,494,c),
(55,449,o),
(43,375,o),
(43,283,cs),
(43,79,o),
(133,-9,o),
(309,-9,cs)
);
},
{
closed = 1;
nodes = (
(180,51,o),
(142,111,o),
(142,303,cs),
(142,436,o),
(159,520,o),
(192,537,cs),
(211,547,o),
(244,549,o),
(265,549,cs),
(375,549,o),
(406,457,o),
(406,300,cs),
(406,198,o),
(397,138,o),
(387,94,c),
(382,86,o),
(317,51,o),
(301,51,cs)
);
}
);
width = 548;
},
{
anchors = (
{
name = bottom;
pos = (310,0);
},
{
name = center;
pos = (296,296);
},
{
name = ogonek;
pos = (318,0);
},
{
name = top;
pos = (309,612);
},
{
name = topright;
pos = (404,612);
}
);
background = {
shapes = (
{
closed = 1;
nodes = (
(362,-13,o),
(514,66,o),
(562,117,c),
(578,162,o),
(595,233,o),
(595,324,cs),
(595,536,o),
(493,625,o),
(292,625,cs),
(246,625,o),
(97,540,o),
(48,485,c),
(32,442,o),
(15,374,o),
(15,287,cs),
(15,77,o),
(117,-13,o),
(318,-13,cs)
);
},
{
closed = 1;
nodes = (
(237,81,o),
(214,135,o),
(214,308,cs),
(214,428,o),
(227,525,o),
(242,527,cs),
(264,530,o),
(298,532,o),
(311,532,cs),
(369,532,o),
(395,480,o),
(395,305,cs),
(395,203,o),
(390,143,o),
(384,100,c),
(379,97,o),
(325,81,o),
(311,81,cs)
);
}
);
};
layerId = "CB0A0A08-290D-4820-BDFF-3CAB47D8DECF";
shapes = (
{
closed = 1;
nodes = (
(362,-13,o),
(514,66,o),
(562,117,c),
(578,162,o),
(595,233,o),
(595,324,cs),
(595,536,o),
(493,625,o),
(292,625,cs),
(246,625,o),
(97,540,o),
(48,485,c),
(32,442,o),
(15,374,o),
(15,287,cs),
(15,77,o),
(117,-13,o),
(318,-13,cs)
);
},
{
closed = 1;
nodes = (
(237,81,o),
(214,135,o),
(214,308,cs),
(214,428,o),
(228,517,o),
(242,524,cs),
(256,531,o),
(282,532,o),
(298,532,cs),
(386,532,o),
(395,449,o),
(395,305,cs),
(395,203,o),
(390,143,o),
(384,100,c),
(379,97,o),
(325,81,o),
(311,81,cs)
);
}
);
width = 610;
},
{
anchors = (
{
name = bottom;
pos = (266,0);
},
{
name = center;
pos = (255,307);
},
{
name = ogonek;
pos = (291,0);
},
{
name = top;
pos = (270,591);
},
{
name = topright;
pos = (321,591);
}
);
background = {
shapes = (
{
closed = 1;
nodes = (
(314,-10,o),
(402,46,o),
(433,101,c),
(457,149,o),
(475,225,o),
(475,305,cs),
(475,488,o),
(412,601,o),
(250,601,cs),
(221,601,o),
(136,547,o),
(90,475,c),
(66,426,o),
(55,358,o),
(55,280,cs),
(55,130,o),
(103,-10,o),
(275,-10,cs)
);
},
{
closed = 1;
nodes = (
(178,20,o),
(85,60,o),
(85,301,cs),
(85,424,o),
(121,483,o),
(160,518,cs),
(202,556,o),
(236,572,o),
(254,572,cs),
(401,572,o),
(445,458,o),
(445,295,cs),
(445,228,o),
(424,132,o),
(408,110,c),
(377,62,o),
(307,20,o),
(273,20,cs)
);
}
);
};
layerId = "4F39836F-1187-466E-8FAB-7EBF43C51BB4";
shapes = (
{
closed = 1;
nodes = (
(314,-10,o),
(402,46,o),
(433,101,cs),
(457,149,o),
(475,225,o),
(475,305,cs),
(475,488,o),
(412,601,o),
(250,601,cs),
(221,601,o),
(136,549,o),
(90,475,c),
(66,426,o),
(55,358,o),
(55,280,cs),
(55,130,o),
(103,-10,o),
(275,-10,cs)
);
},
{
closed = 1;
nodes = (
(178,20,o),
(85,60,o),
(85,301,cs),
(85,424,o),
(121,482,o),
(160,517,cs),
(202,555,o),
(236,572,o),
(254,572,cs),
(401,572,o),
(445,458,o),
(445,295,cs),
(445,228,o),
(424,132,o),
(408,110,cs),
(377,62,o),
(307,20,o),
(273,20,cs)
);
}
);
width = 530;
}
);
unicode = 79;
},
{
glyphname = Oslash;
kernLeft = O;
kernRight = O;
layers = (
{
background = {
shapes = (
{
closed = 1;
nodes = (
(137,-92,l),
(144,-100,l),
(161,-104,l),
(366,676,l),
(363,687,l),
(343,693,l)
);
}
);
};
layerId = "4F39836F-1187-466E-8FAB-7EBF43C51BB4";
shapes = (
{
ref = O;
},
{
pos = (59,33);
ref = slashlongcomb.case;
}
);
width = 530;
},
{
background = {
shapes = (
{
closed = 1;
nodes = (
(138,-96,l),
(149,-109,l),
(196,-108,l),
(401,680,l),
(391,697,l),
(344,697,l)
);
}
);
};
layerId = "555729A4-F539-4650-9C4F-3880CB033E7B";
shapes = (
{
ref = O;
},
{
pos = (63,-7);
ref = slashlongcomb.case;
}
);
width = 548;
},
{
layerId = "CB0A0A08-290D-4820-BDFF-3CAB47D8DECF";
shapes = (
{
ref = O;
},
{
pos = (27,9);
ref = slashlongcomb.case;
}
);
width = 610;
}
);
unicode = 216;
},
{
color = 4;
glyphname = OE;
kernLeft = O;
kernRight = E;
layers = (
{
layerId = "4F39836F-1187-466E-8FAB-7EBF43C51BB4";
shapes = (
{
closed = 1;
nodes = (
(422,0,l),
(407,33,l),
(367,27,o),
(348,25,o),
(294,25,cs),
(181,25,o),
(85,66,o),
(85,307,cs),
(85,424,o),
(121,473,o),
(160,508,cs),
(202,546,o),
(236,562,o),
(254,562,cs),
(308,562,o),
(351,561,o),
(399,555,c),
(409,591,l),
(250,591,ls),
(221,591,o),
(136,537,o),
(90,465,c),
(66,416,o),
(55,363,o),
(55,285,cs),
(55,107,o),
(128,0,o),
(275,0,cs)
);
},
{
closed = 1;
nodes = (
(677,0,l),
(674,122,l),
(655,122,l),
(645,27,l),
(419,27,l),
(419,292,l),
(606,292,l),
(606,319,l),
(419,319,l),
(419,564,l),
(637,564,l),
(644,469,l),
(663,469,l),
(669,591,l),
(389,591,l),
(389,0,l)
);
}
);
width = 722;
},
{
layerId = "555729A4-F539-4650-9C4F-3880CB033E7B";
shapes = (
{
closed = 1;
nodes = (
(424,0,l),
(403,77,l),
(369,70,o),
(319,60,o),
(301,60,cs),
(180,60,o),
(142,111,o),
(142,303,cs),
(142,436,o),
(159,515,o),
(192,532,cs),
(211,542,o),
(244,544,o),
(265,544,cs),
(311,544,o),
(369,536,o),
(401,524,c),
(444,603,l),
(239,603,ls),
(208,603,o),
(105,536,o),
(73,486,c),
(55,441,o),
(43,375,o),
(43,283,cs),
(43,79,o),
(133,0,o),
(309,0,cs)
);
},
{
closed = 1;
nodes = (
(714,0,l),
(710,179,l),
(656,179,l),
(640,49,l),
(466,65,l),
(466,285,l),
(605,290,l),
(605,337,l),
(466,342,l),
(466,540,l),
(631,554,l),
(642,428,l),
(696,428,l),
(709,603,l),
(373,603,l),
(373,0,l)
);
}
);
width = 744;
},
{
layerId = "CB0A0A08-290D-4820-BDFF-3CAB47D8DECF";
shapes = (
{
closed = 1;
nodes = (
(507,0,l),
(426,110,l),
(371,96,o),
(325,94,o),
(311,94,cs),
(237,94,o),
(214,135,o),
(214,308,cs),
(214,428,o),
(228,504,o),
(242,511,cs),
(256,518,o),
(282,519,o),
(298,519,cs),
(335,519,o),
(379,513,o),
(418,500,c),
(543,612,l),
(292,612,ls),
(246,612,o),
(97,527,o),
(48,472,c),
(32,429,o),
(15,374,o),
(15,287,cs),
(15,77,o),
(117,0,o),
(318,0,cs)
);
},
{
closed = 1;
nodes = (
(848,0,l),
(844,199,l),
(755,199,l),
(737,88,l),
(586,104,l),
(586,259,l),
(719,266,l),
(719,360,l),
(586,365,l),
(586,510,l),
(728,524,l),
(741,417,l),
(830,417,l),
(843,612,l),
(395,612,l),
(395,0,l)
);
}
);
width = 873;
}
);
metricRight = E;
unicode = 338;
},
{
color = 4;
glyphname = P;
kernLeft = H;
kernRight = P;
layers = (
{
layerId = "555729A4-F539-4650-9C4F-3880CB033E7B";
shapes = (
{
closed = 1;
nodes = (
(282,0,l),
(282,43,l),
(197,63,l),
(197,215,l),
(275,215,ls),
(374,215,o),
(465,270,o),
(465,429,cs),
(465,557,o),
(403,603,o),
(304,603,cs),
(42,603,l),
(42,565,l),
(104,545,l),
(104,58,l),
(42,38,l),
(42,0,l)
);
},
{
closed = 1;
nodes = (
(197,542,l),
(310,552,l),
(348,552,o),
(367,494,o),
(367,396,cs),
(367,277,o),
(339,272,o),
(287,272,cs),
(197,272,l)
);
}
);
width = 503;
},
{
layerId = "CB0A0A08-290D-4820-BDFF-3CAB47D8DECF";
shapes = (
{
closed = 1;
nodes = (
(371,0,l),
(371,74,l),
(271,105,l),
(271,209,l),
(381,209,ls),
(480,209,o),
(571,263,o),
(571,418,cs),
(571,560,o),
(509,612,o),
(410,612,cs),
(20,612,l),
(20,540,l),
(80,515,l),
(80,97,l),
(20,72,l),
(20,0,l)
);
},
{
closed = 1;
nodes = (
(271,510,l),
(338,519,l),
(376,519,o),
(395,479,o),
(395,405,cs),
(395,316,o),
(367,310,o),
(315,310,cs),
(271,310,l)
);
}
);
width = 581;
},
{
layerId = "4F39836F-1187-466E-8FAB-7EBF43C51BB4";
shapes = (
{
closed = 1;
nodes = (
(209,0,l),
(209,18,l),
(134,27,l),
(134,236,l),
(270,236,ls),
(374,236,o),
(425,325,o),
(425,423,cs),
(425,564,o),
(354,591,o),
(273,591,cs),
(47,591,l),
(47,574,l),
(104,566,l),
(104,25,l),
(47,17,l),
(47,0,l)
);
},
{
closed = 1;
nodes = (
(134,564,l),
(282,564,ls),
(360,564,o),
(395,528,o),
(395,422,cs),
(395,311,o),
(339,263,o),
(280,263,cs),
(134,263,l)
);
}
);
width = 465;
}
);
unicode = 80;
},
{
color = 4;
glyphname = Thorn;
kernLeft = H;
kernRight = Thorn;
layers = (
{
layerId = "4F39836F-1187-466E-8FAB-7EBF43C51BB4";
shapes = (
{
closed = 1;
nodes = (
(195,0,l),
(195,18,l),
(134,27,l),
(134,564,l),
(195,573,l),
(195,591,l),
(47,591,l),
(47,574,l),
(104,566,l),
(104,25,l),
(47,17,l),
(47,0,l)
);
},
{
closed = 1;
nodes = (
(235,147,ls),
(339,147,o),
(390,224,o),
(390,316,cs),
(390,451,o),
(319,466,o),
(238,466,cs),
(118,466,l),
(118,439,l),
(247,439,ls),
(324,439,o),
(360,414,o),
(360,315,cs),
(360,180,o),
(272,174,o),
(245,174,cs),
(118,174,l),
(118,147,l)
);
}
);
width = 420;
},
{
layerId = "555729A4-F539-4650-9C4F-3880CB033E7B";
shapes = (
{
closed = 1;
nodes = (
(263,0,l),
(263,43,l),
(197,63,l),
(197,540,l),
(263,560,l),
(263,603,l),
(42,603,l),
(42,565,l),
(104,545,l),
(104,58,l),
(42,38,l),
(42,0,l)
);
},
{
closed = 1;
nodes = (
(263,137,ls),
(362,137,o),
(453,185,o),
(453,334,cs),
(453,452,o),
(391,491,o),
(292,491,cs),
(177,491,l),
(177,430,l),
(298,440,l),
(336,440,o),
(355,389,o),
(355,301,cs),
(355,192,o),
(327,194,o),
(275,194,cs),
(177,194,l),
(177,137,l)
);
}
);
width = 495;
},
{
layerId = "CB0A0A08-290D-4820-BDFF-3CAB47D8DECF";
shapes = (
{
closed = 1;
nodes = (
(341,0,l),
(341,72,l),
(276,97,l),
(276,515,l),
(341,540,l),
(341,612,l),
(20,612,l),
(20,540,l),
(85,515,l),
(85,97,l),
(20,72,l),
(20,0,l)
);
},
{
closed = 1;
nodes = (
(394,138,ls),
(493,138,o),
(576,190,o),
(576,325,cs),
(576,447,o),
(522,499,o),
(423,499,cs),
(163,499,l),
(163,378,l),
(346,406,l),
(384,406,o),
(400,366,o),
(400,312,cs),
(400,243,o),
(375,239,o),
(323,239,cs),
(163,239,l),
(163,138,l)
);
}
);
width = 581;
}
);
metricLeft = H;
unicode = 222;
},
{
color = 4;
glyphname = Q;
kernLeft = O;
kernRight = O;
layers = (
{
layerId = "555729A4-F539-4650-9C4F-3880CB033E7B";
shapes = (
{
closed = 1;
nodes = (
(339,-9,o),
(446,62,o),
(480,108,c),
(492,153,o),
(505,226,o),
(505,318,cs),
(505,524,o),
(415,611,o),
(239,611,cs),
(208,611,o),
(105,544,o),
(73,494,c),
(55,449,o),
(43,375,o),
(43,283,cs),
(43,79,o),
(133,-9,o),
(309,-9,cs)
);
},
{
closed = 1;
nodes = (
(483,-118,l),
(507,-62,l),
(305,10,l),
(245,-4,l),
(437,-118,l)
);
},
{
closed = 1;
nodes = (
(180,51,o),
(142,111,o),
(142,303,cs),
(142,436,o),
(159,520,o),
(192,537,cs),
(211,547,o),
(244,549,o),
(265,549,cs),
(375,549,o),
(406,457,o),
(406,300,cs),
(406,198,o),
(397,138,o),
(387,94,c),
(382,86,o),
(317,51,o),
(301,51,cs)
);
}
);
width = 550;
},
{
layerId = "CB0A0A08-290D-4820-BDFF-3CAB47D8DECF";
shapes = (
{
closed = 1;
nodes = (
(362,-13,o),
(514,66,o),
(562,117,c),
(578,162,o),
(595,233,o),
(595,324,cs),
(595,536,o),
(493,625,o),
(292,625,cs),
(246,625,o),
(97,540,o),
(48,485,c),
(32,442,o),
(15,374,o),
(15,287,cs),
(15,77,o),
(117,-13,o),
(318,-13,cs)
);
},
{
closed = 1;
nodes = (
(543,-167,l),
(593,-40,l),
(343,32,l),
(220,-4,l),
(472,-167,l)
);
},
{
closed = 1;
nodes = (
(237,81,o),
(214,135,o),
(214,308,cs),
(214,428,o),
(228,517,o),
(242,524,cs),
(256,531,o),
(282,532,o),
(298,532,cs),
(386,532,o),
(395,449,o),
(395,305,cs),
(395,203,o),
(390,143,o),
(384,100,c),
(379,97,o),
(325,81,o),
(311,81,cs)
);
}
);
width = 610;
},
{
background = {
shapes = (
{
closed = 1;
nodes = (
(273,-10,l),
(448,-101,l),
(463,-101,l),
(473,-78,l),
(289,9,l)
);
},
{
closed = 1;
nodes = (
(221,601,o),
(136,547,o),
(90,475,c),
(66,426,o),
(55,358,o),
(55,280,cs),
(55,130,o),
(103,-10,o),
(275,-10,cs),
(314,-10,o),
(402,46,o),
(433,101,c),
(457,149,o),
(475,225,o),
(475,305,cs),
(475,488,o),
(412,601,o),
(250,601,cs)
);
},
{
closed = 1;
nodes = (
(401,572,o),
(445,458,o),
(445,295,cs),
(445,228,o),
(424,132,o),
(408,110,c),
(377,62,o),
(307,20,o),
(273,20,cs),
(178,20,o),
(85,60,o),
(85,301,cs),
(85,424,o),
(121,483,o),
(160,518,cs),
(202,556,o),
(236,572,o),
(254,572,cs)
);
}
);
};
layerId = "4F39836F-1187-466E-8FAB-7EBF43C51BB4";
shapes = (
{
closed = 1;
nodes = (
(314,-10,o),
(402,46,o),
(433,101,cs),
(457,149,o),
(475,225,o),
(475,305,cs),
(475,488,o),
(412,601,o),
(250,601,cs),
(221,601,o),
(136,549,o),
(90,475,c),
(66,426,o),
(55,358,o),
(55,280,cs),
(55,130,o),
(103,-10,o),
(275,-10,cs)
);
},
{
closed = 1;
nodes = (
(473,-101,l),
(483,-78,l),
(299,9,l),
(279,-9,l),
(458,-101,l)
);
},
{
closed = 1;
nodes = (
(178,20,o),
(85,60,o),
(85,301,cs),
(85,424,o),
(121,482,o),
(160,517,cs),
(202,555,o),
(236,572,o),
(254,572,cs),
(401,572,o),
(445,458,o),
(445,295,cs),
(445,228,o),
(424,132,o),
(408,110,cs),
(377,62,o),
(307,20,o),
(273,20,cs)
);
}
);
width = 530;
}
);
unicode = 81;
},
{
color = 4;
glyphname = R;
kernLeft = H;
kernRight = R;
layers = (
{
anchors = (
{
name = bottom;
pos = (272,0);
},
{
name = top;
pos = (254,603);
}
);
layerId = "555729A4-F539-4650-9C4F-3880CB033E7B";
shapes = (
{
closed = 1;
nodes = (
(264,0,l),
(264,46,l),
(197,63,l),
(197,260,l),
(252,260,l),
(293,172,o),
(363,52,o),
(387,0,c),
(519,0,l),
(519,42,l),
(465,57,l),
(437,100,o),
(381,191,o),
(338,263,c),
(338,269,l),
(403,284,o),
(455,337,o),
(455,439,cs),
(455,564,o),
(400,603,o),
(294,603,cs),
(42,603,l),
(42,565,l),
(104,545,l),
(104,58,l),
(42,38,l),
(42,0,l)
);
},
{
closed = 1;
nodes = (
(197,542,l),
(300,552,l),
(338,552,o),
(357,513,o),
(357,419,cs),
(357,333,o),
(330,317,o),
(278,317,cs),
(197,317,l)
);
}
);
width = 527;
},
{
anchors = (
{
name = bottom;
pos = (328,0);
},
{
name = top;
pos = (292,612);
}
);
layerId = "CB0A0A08-290D-4820-BDFF-3CAB47D8DECF";
shapes = (
{
closed = 1;
nodes = (
(331,0,l),
(331,74,l),
(271,105,l),
(271,236,l),
(314,236,l),
(343,166,o),
(391,32,o),
(404,0,c),
(626,0,l),
(626,71,l),
(572,97,l),
(548,136,o),
(501,220,o),
(476,259,c),
(476,265,l),
(527,298,o),
(564,354,o),
(564,439,cs),
(564,566,o),
(502,612,o),
(403,612,cs),
(20,612,l),
(20,540,l),
(80,515,l),
(80,97,l),
(20,72,l),
(20,0,l)
);
},
{
closed = 1;
nodes = (
(271,510,l),
(326,519,l),
(357,519,o),
(373,483,o),
(373,416,cs),
(373,335,o),
(348,332,o),
(303,332,cs),
(271,332,l)
);
}
);
width = 626;
},
{
anchors = (
{
name = bottom;
pos = (259,0);
},
{
name = top;
pos = (237,591);
}
);
layerId = "4F39836F-1187-466E-8FAB-7EBF43C51BB4";
shapes = (
{
closed = 1;
nodes = (
(195,0,l),
(195,18,l),
(134,27,l),
(134,260,l),
(256,260,l),
(307,167,o),
(369,52,o),
(397,0,c),
(473,0,l),
(473,20,l),
(418,25,l),
(396,62,o),
(326,189,o),
(288,262,c),
(288,265,l),
(373,279,o),
(415,351,o),
(415,429,cs),
(415,565,o),
(344,591,o),
(263,591,cs),
(47,591,l),
(47,574,l),
(104,566,l),
(104,25,l),
(47,17,l),
(47,0,l)
);
},
{
closed = 1;
nodes = (
(134,564,l),
(272,564,ls),
(349,564,o),
(385,529,o),
(385,428,cs),
(385,304,o),
(297,287,o),
(270,287,cs),
(134,287,l)
);
}
);
width = 503;
}
);
unicode = 82;
},
{
color = 4;
glyphname = S;
kernLeft = S;
kernRight = S;
layers = (
{
anchors = (
{
name = bottom;
pos = (216,0);
},
{
name = top;
pos = (233,603);
}
);
background = {
shapes = (
{
closed = 1;
nodes = (
(278,-9,o),
(377,62,o),
(403,114,c),
(406,126,o),
(409,146,o),
(409,163,cs),
(409,259,o),
(326,302,o),
(252,344,cs),
(193,377,o),
(141,410,o),
(141,469,cs),
(141,522,o),
(156,547,o),
(172,547,cs),
(203,547,o),
(275,531,o),
(313,524,c),
(328,422,l),
(384,422,l),
(391,595,l),
(331,601,o),
(242,611,o),
(222,611,cs),
(187,611,o),
(81,533,o),
(57,488,c),
(53,469,o),
(52,452,o),
(52,436,cs),
(52,345,o),
(128,301,o),
(198,261,cs),
(258,227,o),
(314,195,o),
(314,137,cs),
(314,101,o),
(283,55,o),
(272,55,cs),
(231,55,o),
(175,65,o),
(123,72,c),
(107,184,l),
(51,184,l),
(44,1,l),
(104,-4,o),
(189,-9,o),
(239,-9,cs)
);
}
);
};
layerId = "555729A4-F539-4650-9C4F-3880CB033E7B";
shapes = (
{
closed = 1;
nodes = (
(278,-9,o),
(377,62,o),
(403,114,c),
(406,126,o),
(409,146,o),
(409,163,cs),
(409,259,o),
(326,302,o),
(252,344,cs),
(193,377,o),
(141,410,o),
(141,469,cs),
(141,522,o),
(156,541,o),
(172,541,cs),
(203,541,o),
(275,531,o),
(313,524,c),
(328,422,l),
(384,422,l),
(391,595,l),
(331,601,o),
(242,611,o),
(222,611,cs),
(187,611,o),
(81,533,o),
(57,488,c),
(53,469,o),
(52,452,o),
(52,436,cs),
(52,345,o),
(128,301,o),
(198,261,cs),
(258,227,o),
(314,195,o),
(314,137,cs),
(314,101,o),
(283,57,o),
(272,57,cs),
(231,57,o),
(175,65,o),
(123,72,c),
(107,184,l),
(51,184,l),
(44,1,l),
(104,-4,o),
(189,-9,o),
(239,-9,cs)
);
}
);
width = 441;
},
{
anchors = (
{
name = bottom;
pos = (231,0);
},
{
name = top;
pos = (240,612);
}
);
background = {
shapes = (
{
closed = 1;
nodes = (
(297,-13,o),
(419,68,o),
(452,126,c),
(454,139,o),
(457,161,o),
(457,179,cs),
(457,284,o),
(341,335,o),
(268,380,cs),
(210,416,o),
(181,436,o),
(181,487,cs),
(181,505,o),
(188,527,o),
(195,527,cs),
(217,527,o),
(282,514,o),
(315,508,c),
(328,417,l),
(417,417,l),
(425,601,l),
(347,613,o),
(237,625,o),
(212,625,cs),
(169,625,o),
(37,535,o),
(9,484,c),
(6,466,o),
(5,451,o),
(5,436,cs),
(5,367,o),
(39,310,o),
(138,251,cs),
(225,199,o),
(274,181,o),
(275,125,cs),
(275,108,o),
(262,86,o),
(260,86,cs),
(245,86,o),
(185,94,o),
(134,103,c),
(113,203,l),
(23,203,l),
(16,5,l),
(88,-1,o),
(188,-13,o),
(250,-13,cs)
);
}
);
};
layerId = "CB0A0A08-290D-4820-BDFF-3CAB47D8DECF";
shapes = (
{
closed = 1;
nodes = (
(297,-13,o),
(419,68,o),
(452,126,c),
(454,139,o),
(457,161,o),
(457,179,cs),
(457,286,o),
(356,330,o),
(279,378,cs),
(232,407,o),
(195,439,o),
(195,487,cs),
(195,505,o),
(202,527,o),
(209,527,cs),
(231,527,o),
(296,514,o),
(329,508,c),
(342,417,l),
(431,417,l),
(439,601,l),
(361,613,o),
(251,625,o),
(226,625,cs),
(183,625,o),
(51,535,o),
(23,484,c),
(20,466,o),
(19,451,o),
(19,436,cs),
(19,326,o),
(104,276,o),
(176,233,cs),
(228,201,o),
(274,172,o),
(275,125,cs),
(275,108,o),
(262,86,o),
(260,86,cs),
(245,86,o),
(185,94,o),
(134,103,c),
(113,203,l),
(23,203,l),
(16,5,l),
(88,-1,o),
(188,-13,o),
(250,-13,cs)
);
}
);
width = 463;
},
{
anchors = (
{
name = bottom;
pos = (206,0);
},
{
name = top;
pos = (217,591);
}
);
background = {
shapes = (
{
closed = 1;
nodes = (
(285,-10,o),
(341,52,o),
(359,106,c),
(363,121,o),
(363,138,o),
(363,151,cs),
(363,238,o),
(277,273,o),
(203,317,cs),
(113,370,o),
(87,391,o),
(87,467,cs),
(87,521,o),
(163,575,o),
(183,575,cs),
(201,575,o),
(276,566,o),
(306,559,c),
(313,461,l),
(332,461,l),
(338,583,l),
(306,589,o),
(214,601,o),
(187,601,cs),
(153,601,o),
(87,549,o),
(63,500,c),
(59,484,o),
(57,470,o),
(57,454,cs),
(57,370,o),
(122,332,o),
(196,288,cs),
(280,238,o),
(333,221,o),
(333,133,cs),
(333,79,o),
(272,17,o),
(242,17,cs),
(211,17,o),
(125,24,o),
(87,30,c),
(76,128,l),
(57,128,l),
(56,6,l),
(101,-1,o),
(211,-10,o),
(238,-10,cs)
);
}
);
};
layerId = "4F39836F-1187-466E-8FAB-7EBF43C51BB4";
shapes = (
{
closed = 1;
nodes = (
(285,-10,o),
(341,50,o),
(359,106,cs),
(363,121,o),
(363,138,o),
(363,151,cs),
(363,238,o),
(277,273,o),
(203,317,cs),
(113,370,o),
(87,394,o),
(87,467,cs),
(87,521,o),
(165,574,o),
(183,574,cs),
(201,574,o),
(276,566,o),
(306,559,c),
(313,461,l),
(332,461,l),
(338,583,l),
(306,589,o),
(214,601,o),
(187,601,cs),
(153,601,o),
(87,551,o),
(63,500,c),
(59,484,o),
(57,470,o),
(57,454,cs),
(57,370,o),
(122,332,o),
(196,288,cs),
(280,238,o),
(333,221,o),
(333,133,cs),
(333,79,o),
(272,18,o),
(242,18,cs),
(211,18,o),
(125,24,o),
(87,30,c),
(76,128,l),
(57,128,l),
(56,6,l),
(101,-1,o),
(211,-10,o),
(238,-10,cs)
);
}
);
width = 405;
}
);
unicode = 83;
},
{
color = 4;
glyphname = Germandbls;
kernLeft = H;
kernRight = o;
layers = (
{
layerId = "4F39836F-1187-466E-8FAB-7EBF43C51BB4";
shapes = (
{
closed = 1;
nodes = (
(134,0,l),
(134,564,l),
(439,571,l),
(456,575,l),
(442,591,l),
(47,591,l),
(47,574,l),
(104,566,l),
(104,25,l),
(47,17,l),
(47,0,l)
);
},
{
closed = 1;
nodes = (
(236,8,l),
(224,144,l),
(206,144,l),
(202,8,l)
);
},
{
closed = 1;
nodes = (
(416,-9,o),
(490,118,o),
(490,208,cs),
(490,310,o),
(409,331,o),
(265,318,c),
(264,298,l),
(366,298,ls),
(424,298,o),
(461,265,o),
(461,209,cs),
(461,142,o),
(418,56,o),
(366,24,cs),
(345,11,o),
(253,22,o),
(204,26,c),
(202,8,l),
(235,3,o),
(300,-9,o),
(326,-9,cs)
);
},
{
closed = 1;
nodes = (
(287,312,l),
(280,326,l),
(456,575,l),
(422,576,l),
(249,316,l),
(264,298,l)
);
}
);
width = 493;
},
{
background = {
shapes = (
{
closed = 1;
nodes = (
(291,611,o),
(184,566,o),
(127,507,c),
(111,473,o),
(104,430,o),
(104,343,cs),
(104,0,l),
(195,0,l),
(195,374,ls),
(195,497,o),
(223,528,o),
(246,541,c),
(256,544,o),
(271,545,o),
(289,545,cs),
(339,545,o),
(411,534,o),
(461,507,c),
(463,517,o),
(465,525,o),
(465,533,cs),
(465,606,o),
(369,611,o),
(309,611,c)
);
},
{
closed = 1;
nodes = (
(42,0,l),
(147,0,l),
(144,72,l),
(42,38,l)
);
},
{
closed = 1;
nodes = (
(231,1,l),
(313,1,l),
(297,184,l),
(245,184,l)
);
},
{
closed = 1;
nodes = (
(270,449,o),
(268,433,o),
(268,417,cs),
(268,261,o),
(470,238,o),
(470,122,cs),
(470,95,o),
(455,55,o),
(434,55,cs),
(396,55,o),
(344,64,o),
(304,72,c),
(231,1,l),
(289,-4,o),
(351,-9,o),
(399,-9,cs),
(437,-9,o),
(529,42,o),
(554,94,c),
(557,104,o),
(559,120,o),
(559,136,cs),
(559,294,o),
(350,326,o),
(350,443,cs),
(350,472,o),
(362,491,o),
(374,499,c),
(393,506,o),
(425,509,o),
(461,507,c),
(449,572,l),
(413,572,o),
(299,515,o),
(275,462,c)
);
}
);
};
layerId = "555729A4-F539-4650-9C4F-3880CB033E7B";
shapes = (
{
closed = 1;
nodes = (
(197,0,l),
(197,540,l),
(440,554,l),
(528,568,l),
(507,603,l),
(42,603,l),
(42,565,l),
(104,545,l),
(104,58,l),
(42,38,l),
(42,0,l)
);
},
{
closed = 1;
nodes = (
(325,1,l),
(309,184,l),
(257,184,l),
(243,1,l)
);
},
{
closed = 1;
nodes = (
(498,-9,o),
(580,99,o),
(580,210,cs),
(580,332,o),
(456,351,o),
(311,336,c),
(309,289,l),
(443,289,ls),
(473,289,o),
(485,245,o),
(485,188,cs),
(485,110,o),
(451,63,o),
(434,60,cs),
(413,56,o),
(302,53,o),
(254,53,c),
(243,1,l),
(282,-2,o),
(380,-9,o),
(401,-9,cs)
);
},
{
closed = 1;
nodes = (
(367,333,l),
(360,347,l),
(528,568,l),
(440,587,l),
(273,341,l),
(309,288,l)
);
}
);
width = 586;
},
{
background = {
shapes = (
{
closed = 1;
nodes = (
(364,624,o),
(162,566,o),
(105,507,c),
(89,473,o),
(81,430,o),
(81,343,cs),
(81,0,l),
(271,0,l),
(271,369,ls),
(271,492,o),
(296,507,o),
(321,521,c),
(336,526,o),
(359,528,o),
(379,528,cs),
(448,528,o),
(536,498,o),
(589,469,c),
(595,486,o),
(598,501,o),
(598,514,cs),
(598,614,o),
(440,624,o),
(382,624,c)
);
},
{
closed = 1;
nodes = (
(21,0,l),
(190,0,l),
(190,143,l),
(21,72,l)
);
},
{
closed = 1;
nodes = (
(290,1,l),
(413,1,l),
(392,202,l),
(299,202,l)
);
},
{
closed = 1;
nodes = (
(326,433,o),
(324,418,o),
(324,401,cs),
(324,231,o),
(533,242,o),
(533,128,cs),
(533,109,o),
(524,88,o),
(507,88,cs),
(467,88,o),
(408,98,o),
(358,105,c),
(290,1,l),
(348,-4,o),
(432,-9,o),
(520,-9,cs),
(558,-9,o),
(678,61,o),
(704,113,c),
(706,123,o),
(708,142,o),
(708,159,cs),
(708,325,o),
(490,325,o),
(490,438,cs),
(490,453,o),
(496,466,o),
(506,474,c),
(527,480,o),
(564,476,o),
(589,469,c),
(545,574,l),
(492,574,o),
(351,490,o),
(329,445,c)
);
}
);
};
layerId = "CB0A0A08-290D-4820-BDFF-3CAB47D8DECF";
shapes = (
{
closed = 1;
nodes = (
(265,0,l),
(265,510,l),
(568,526,l),
(658,565,l),
(632,612,l),
(20,612,l),
(20,540,l),
(80,515,l),
(80,97,l),
(20,72,l),
(20,0,l)
);
},
{
closed = 1;
nodes = (
(427,1,l),
(406,202,l),
(313,202,l),
(304,1,l)
);
},
{
closed = 1;
nodes = (
(602,-15,o),
(700,95,o),
(700,197,cs),
(700,306,o),
(603,374,o),
(380,334,c),
(377,259,l),
(456,259,ls),
(480,259,o),
(515,233,o),
(515,196,cs),
(515,134,o),
(491,105,o),
(466,96,cs),
(449,90,o),
(369,91,o),
(318,92,c),
(304,1,l),
(356,-6,o),
(430,-15,o),
(460,-15,cs)
);
},
{
closed = 1;
nodes = (
(482,342,l),
(475,356,l),
(658,565,l),
(534,602,l),
(319,323,l),
(377,259,l)
);
}
);
width = 707;
}
);
metricLeft = H;
unicode = 7838;
},
{
color = 4;
glyphname = T;
kernLeft = T;
kernRight = T;
layers = (
{
anchors = (
{
name = bottom;
pos = (240,0);
},
{
name = center;
pos = (242,304);
},
{
name = top;
pos = (239,603);
}
);
layerId = "555729A4-F539-4650-9C4F-3880CB033E7B";
shapes = (
{
closed = 1;
nodes = (
(352,0,l),
(352,43,l),
(286,63,l),
(286,545,l),
(394,539,l),
(404,415,l),
(458,415,l),
(471,603,l),
(8,603,l),
(21,415,l),
(74,415,l),
(84,539,l),
(193,545,l),
(193,58,l),
(131,38,l),
(131,0,l)
);
}
);
width = 479;
},
{
anchors = (
{
name = bottom;
pos = (297,0);
},
{
name = center;
pos = (295,283);
},
{
name = top;
pos = (297,612);
}
);
layerId = "CB0A0A08-290D-4820-BDFF-3CAB47D8DECF";
shapes = (
{
closed = 1;
nodes = (
(475,0,l),
(475,72,l),
(390,97,l),
(390,517,l),
(464,508,l),
(477,394,l),
(566,394,l),
(579,612,l),
(10,612,l),
(23,394,l),
(112,394,l),
(125,508,l),
(199,517,l),
(199,97,l),
(114,72,l),
(114,0,l)
);
}
);
width = 589;
},
{
anchors = (
{
name = bottom;
pos = (212,0);
},
{
name = center;
pos = (212,308);
},
{
name = top;
pos = (212,591);
}
);
layerId = "4F39836F-1187-466E-8FAB-7EBF43C51BB4";
shapes = (
{
closed = 1;
nodes = (
(294,0,l),
(294,18,l),
(227,27,l),
(227,564,l),
(367,564,l),
(374,451,l),
(393,451,l),
(399,591,l),
(25,591,l),
(31,451,l),
(50,451,l),
(57,564,l),
(197,564,l),
(197,25,l),
(130,17,l),
(130,0,l)
);
}
);
width = 424;
}
);
unicode = 84;
},
{
color = 4;
glyphname = U;
kernLeft = U;
kernRight = U;
layers = (
{
anchors = (
{
name = bottom;
pos = (318,0);
},
{
name = ogonek;
pos = (526,0);
},
{
name = top;
pos = (295,603);
}
);
layerId = "555729A4-F539-4650-9C4F-3880CB033E7B";
shapes = (
{
closed = 1;
nodes = (
(259,-8,o),
(351,36,o),
(402,59,c),
(423,0,l),
(555,0,l),
(555,38,l),
(493,58,l),
(493,545,l),
(555,565,l),
(555,603,l),
(334,603,l),
(334,560,l),
(400,540,l),
(400,108,l),
(363,97,o),
(277,73,o),
(251,73,cs),
(222,73,o),
(191,86,o),
(191,191,cs),
(191,540,l),
(257,560,l),
(257,603,l),
(36,603,l),
(36,565,l),
(98,545,l),
(98,170,ls),
(98,50,o),
(148,-8,o),
(247,-8,cs)
);
}
);
width = 597;
},
{
anchors = (
{
name = bottom;
pos = (348,0);
},
{
name = ogonek;
pos = (603,-1);
},
{
name = top;
pos = (331,612);
}
);
layerId = "CB0A0A08-290D-4820-BDFF-3CAB47D8DECF";
shapes = (
{
closed = 1;
nodes = (
(278,-13,o),
(376,40,o),
(413,61,c),
(436,0,l),
(653,0,l),
(653,72,l),
(593,97,l),
(593,515,l),
(653,540,l),
(653,612,l),
(353,612,l),
(353,532,l),
(406,505,l),
(406,161,l),
(373,152,o),
(340,142,o),
(316,142,cs),
(279,142,o),
(257,153,o),
(257,240,cs),
(257,505,l),
(310,532,l),
(310,612,l),
(10,612,l),
(10,540,l),
(70,515,l),
(70,205,ls),
(70,57,o),
(115,-13,o),
(269,-13,cs)
);
}
);
width = 673;
},
{
anchors = (
{
name = bottom;
pos = (279,0);
},
{
name = ogonek;
pos = (460,0);
},
{
name = top;
pos = (257,591);
}
);
layerId = "4F39836F-1187-466E-8FAB-7EBF43C51BB4";
shapes = (
{
closed = 1;
nodes = (
(248,-10,o),
(362,34,o),
(394,45,c),
(402,0,l),
(481,0,l),
(481,17,l),
(424,25,l),
(424,566,l),
(481,574,l),
(481,591,l),
(333,591,l),
(333,573,l),
(394,564,l),
(394,71,l),
(336,50,o),
(253,19,o),
(206,19,cs),
(154,19,o),
(127,50,o),
(127,128,cs),
(127,564,l),
(188,573,l),
(188,591,l),
(40,591,l),
(40,574,l),
(97,566,l),
(97,136,ls),
(97,32,o),
(132,-10,o),
(213,-10,cs)
);
}
);
width = 528;
}
);
unicode = 85;
},
{
glyphname = Uhorn;
kernLeft = U;
kernRight = U;
layers = (
{
anchors = (
{
name = bottom;
pos = (268,0);
},
{
name = top;
pos = (257,591);
}
);
layerId = "4F39836F-1187-466E-8FAB-7EBF43C51BB4";
shapes = (
{
closed = 1;
nodes = (
(248,-10,o),
(362,34,o),
(394,45,c),
(402,0,l),
(481,0,l),
(481,20,l),
(424,25,l),
(424,591,l),
(333,591,l),
(333,571,l),
(394,564,l),
(394,71,l),
(336,50,o),
(253,19,o),
(206,19,cs),
(154,19,o),
(127,50,o),
(127,128,cs),
(127,564,l),
(188,571,l),
(188,591,l),
(40,591,l),
(40,571,l),
(97,566,l),
(97,136,ls),
(97,32,o),
(132,-10,o),
(213,-10,cs)
);
},
{
pos = (421,42);
ref = horncomb.case;
}
);
width = 528;
},
{
anchors = (
{
name = bottom;
pos = (311,0);
},
{
name = top;
pos = (298,603);
}
);
layerId = "555729A4-F539-4650-9C4F-3880CB033E7B";
shapes = (
{
closed = 1;
nodes = (
(259,-8,o),
(351,36,o),
(402,59,c),
(423,0,l),
(555,0,l),
(555,38,l),
(493,58,l),
(493,603,l),
(334,603,l),
(334,557,l),
(400,540,l),
(400,108,l),
(363,97,o),
(277,73,o),
(251,73,cs),
(222,73,o),
(191,86,o),
(191,191,cs),
(191,540,l),
(257,557,l),
(257,603,l),
(36,603,l),
(36,565,l),
(98,545,l),
(98,170,ls),
(98,50,o),
(148,-8,o),
(247,-8,cs)
);
},
{
pos = (486,34);
ref = horncomb.case;
}
);
width = 597;
},
{
anchors = (
{
name = bottom;
pos = (339,0);
},
{
name = top;
pos = (331,612);
}
);
layerId = "CB0A0A08-290D-4820-BDFF-3CAB47D8DECF";
shapes = (
{
closed = 1;
nodes = (
(278,-13,o),
(376,40,o),
(413,61,c),
(436,0,l),
(653,0,l),
(653,72,l),
(593,97,l),
(593,612,l),
(353,612,l),
(353,532,l),
(406,505,l),
(406,161,l),
(373,152,o),
(340,142,o),
(316,142,cs),
(279,142,o),
(257,153,o),
(257,240,cs),
(257,505,l),
(310,532,l),
(310,612,l),
(10,612,l),
(10,540,l),
(70,515,l),
(70,205,ls),
(70,57,o),
(115,-13,o),
(269,-13,cs)
);
},
{
pos = (530,30);
ref = horncomb.case;
}
);
width = 673;
}
);
unicode = 431;
},
{
color = 4;
glyphname = V;
kernLeft = V;
kernRight = V;
layers = (
{
layerId = "555729A4-F539-4650-9C4F-3880CB033E7B";
shapes = (
{
closed = 1;
nodes = (
(232,-7,o),
(303,1,o),
(340,7,c),
(366,105,o),
(461,474,o),
(480,545,c),
(542,565,l),
(542,603,l),
(321,603,l),
(321,560,l),
(393,540,l),
(370,433,o),
(302,159,o),
(287,92,c),
(276,92,l),
(247,231,l),
(170,540,l),
(239,560,l),
(239,603,l),
(10,603,l),
(10,565,l),
(72,545,l),
(214,1,l),
(219,-2,o),
(227,-7,o),
(230,-7,cs)
);
}
);
width = 552;
},
{
layerId = "CB0A0A08-290D-4820-BDFF-3CAB47D8DECF";
shapes = (
{
closed = 1;
nodes = (
(256,-13,o),
(358,-2,o),
(433,6,c),
(461,100,o),
(568,451,o),
(588,520,c),
(650,540,l),
(650,612,l),
(371,612,l),
(371,532,l),
(432,515,l),
(417,430,o),
(374,234,o),
(358,171,c),
(348,171,l),
(307,351,l),
(268,515,l),
(328,532,l),
(328,612,l),
(6,612,l),
(6,540,l),
(68,520,l),
(225,0,l),
(234,-6,o),
(247,-13,o),
(249,-13,cs)
);
}
);
width = 652;
},
{
layerId = "4F39836F-1187-466E-8FAB-7EBF43C51BB4";
shapes = (
{
closed = 1;
nodes = (
(243,-10,o),
(262,-7,o),
(275,-5,c),
(325,185,o),
(374,376,o),
(424,566,c),
(481,574,l),
(481,591,l),
(333,591,l),
(333,573,l),
(395,564,l),
(348,384,o),
(302,201,o),
(255,21,c),
(247,21,l),
(200,208,l),
(108,564,l),
(168,573,l),
(168,591,l),
(20,591,l),
(20,574,l),
(77,566,l),
(225,-2,l),
(230,-5,o),
(237,-10,o),
(239,-10,cs)
);
}
);
width = 503;
}
);
unicode = 86;
},
{
color = 4;
glyphname = W;
kernLeft = W;
kernRight = W;
layers = (
{
anchors = (
{
name = top;
pos = (414,603);
}
);
layerId = "555729A4-F539-4650-9C4F-3880CB033E7B";
shapes = (
{
closed = 1;
nodes = (
(222,-7,o),
(293,1,o),
(330,7,c),
(407,292,l),
(416,292,l),
(481,1,l),
(486,-2,o),
(494,-7,o),
(497,-7,cs),
(499,-7,o),
(570,1,o),
(607,7,c),
(633,105,o),
(728,474,o),
(747,545,c),
(809,565,l),
(809,603,l),
(588,603,l),
(588,560,l),
(660,540,l),
(637,433,o),
(569,159,o),
(554,92,c),
(543,92,l),
(514,231,l),
(451,540,l),
(516,557,l),
(516,603,l),
(299,603,l),
(299,568,l),
(353,545,l),
(377,447,l),
(345,324,o),
(293,147,o),
(280,92,c),
(269,92,l),
(240,231,l),
(170,540,l),
(227,560,l),
(227,603,l),
(10,603,l),
(10,565,l),
(72,545,l),
(204,1,l),
(209,-2,o),
(217,-7,o),
(220,-7,cs)
);
}
);
width = 815;
},
{
anchors = (
{
name = top;
pos = (508,612);
}
);
layerId = "CB0A0A08-290D-4820-BDFF-3CAB47D8DECF";
shapes = (
{
closed = 1;
nodes = (
(236,-13,o),
(338,-2,o),
(413,6,c),
(479,228,l),
(490,228,l),
(550,0,l),
(559,-6,o),
(572,-13,o),
(574,-13,cs),
(581,-13,o),
(683,-2,o),
(758,6,c),
(786,100,o),
(893,451,o),
(913,520,c),
(975,540,l),
(975,612,l),
(706,612,l),
(706,532,l),
(757,515,l),
(742,430,o),
(699,234,o),
(683,171,c),
(673,171,l),
(636,351,l),
(602,515,l),
(663,532,l),
(663,612,l),
(361,612,l),
(361,540,l),
(413,520,l),
(428,463,l),
(401,367,o),
(357,229,o),
(338,171,c),
(328,171,l),
(297,351,l),
(268,515,l),
(318,532,l),
(318,612,l),
(6,612,l),
(6,540,l),
(68,520,l),
(205,0,l),
(214,-6,o),
(227,-13,o),
(229,-13,cs)
);
}
);
width = 977;
},
{
anchors = (
{
name = top;
pos = (369,591);
}
);
layerId = "4F39836F-1187-466E-8FAB-7EBF43C51BB4";
shapes = (
{
closed = 1;
nodes = (
(238,-10,o),
(257,-7,o),
(270,-5,c),
(366,388,l),
(372,388,l),
(467,-2,l),
(472,-5,o),
(479,-10,o),
(481,-10,cs),
(485,-10,o),
(504,-7,o),
(517,-5,c),
(565,185,o),
(613,376,o),
(661,566,c),
(718,573,l),
(718,591,l),
(563,591,l),
(563,574,l),
(632,564,l),
(587,384,o),
(542,201,o),
(497,21,c),
(489,21,l),
(435,243,l),
(355,564,l),
(425,573,l),
(425,591,l),
(276,591,l),
(276,574,l),
(324,566,l),
(356,444,l),
(321,304,o),
(285,161,o),
(250,21,c),
(242,21,l),
(188,243,l),
(108,564,l),
(163,573,l),
(163,591,l),
(20,591,l),
(20,574,l),
(77,566,l),
(220,-2,l),
(225,-5,o),
(232,-10,o),
(234,-10,cs)
);
}
);
width = 740;
}
);
unicode = 87;
},
{
color = 4;
glyphname = X;
kernLeft = X;
kernRight = X;
layers = (
{
layerId = "555729A4-F539-4650-9C4F-3880CB033E7B";
shapes = (
{
closed = 1;
nodes = (
(211,0,l),
(211,43,l),
(142,63,l),
(256,254,l),
(260,254,l),
(374,63,l),
(307,43,l),
(307,0,l),
(546,0,l),
(546,38,l),
(484,58,l),
(324,319,l),
(459,545,l),
(521,565,l),
(521,603,l),
(300,603,l),
(300,560,l),
(369,540,l),
(277,371,l),
(273,371,l),
(165,540,l),
(237,560,l),
(237,603,l),
(8,603,l),
(8,565,l),
(61,545,l),
(207,306,l),
(52,58,l),
(-10,38,l),
(-10,0,l)
);
}
);
width = 528;
},
{
layerId = "CB0A0A08-290D-4820-BDFF-3CAB47D8DECF";
shapes = (
{
closed = 1;
nodes = (
(297,0,l),
(297,84,l),
(232,99,l),
(307,243,l),
(317,243,l),
(408,99,l),
(340,84,l),
(340,0,l),
(683,0,l),
(683,72,l),
(632,97,l),
(457,327,l),
(593,515,l),
(653,540,l),
(653,612,l),
(383,612,l),
(383,532,l),
(428,523,l),
(372,401,l),
(362,401,l),
(295,523,l),
(340,532,l),
(340,612,l),
(30,612,l),
(30,540,l),
(80,515,l),
(221,321,l),
(61,97,l),
(0,72,l),
(0,0,l)
);
}
);
width = 683;
},
{
layerId = "4F39836F-1187-466E-8FAB-7EBF43C51BB4";
shapes = (
{
closed = 1;
nodes = (
(169,0,l),
(169,18,l),
(105,27,l),
(270,291,l),
(272,291,l),
(436,27,l),
(374,18,l),
(374,0,l),
(527,0,l),
(527,17,l),
(472,25,l),
(288,319,l),
(443,566,l),
(502,574,l),
(502,591,l),
(349,591,l),
(349,573,l),
(410,564,l),
(274,345,l),
(272,345,l),
(136,564,l),
(194,573,l),
(194,591,l),
(41,591,l),
(41,574,l),
(100,566,l),
(255,318,l),
(72,25,l),
(16,17,l),
(16,0,l)
);
}
);
width = 545;
}
);
unicode = 88;
},
{
color = 4;
glyphname = Y;
kernLeft = Y;
kernRight = Y;
layers = (
{
anchors = (
{
name = bottom;
pos = (257,0);
},
{
name = top;
pos = (267,603);
}
);
layerId = "555729A4-F539-4650-9C4F-3880CB033E7B";
shapes = (
{
closed = 1;
nodes = (
(373,0,l),
(373,38,l),
(308,58,l),
(308,227,l),
(360,333,o),
(411,439,o),
(463,545,c),
(525,565,l),
(525,603,l),
(304,603,l),
(304,560,l),
(373,540,l),
(339,465,o),
(306,390,o),
(272,315,c),
(263,315,l),
(157,540,l),
(223,560,l),
(223,603,l),
(-6,603,l),
(-6,565,l),
(56,545,l),
(215,224,l),
(215,58,l),
(150,38,l),
(150,0,l)
);
}
);
width = 519;
},
{
anchors = (
{
name = bottom;
pos = (302,0);
},
{
name = top;
pos = (316,612);
}
);
layerId = "CB0A0A08-290D-4820-BDFF-3CAB47D8DECF";
shapes = (
{
closed = 1;
nodes = (
(458,0,l),
(458,72,l),
(393,97,l),
(393,245,l),
(431,314,o),
(520,480,o),
(538,520,c),
(600,540,l),
(600,612,l),
(341,612,l),
(341,532,l),
(392,515,l),
(376,472,o),
(337,378,o),
(324,351,c),
(314,351,l),
(247,515,l),
(297,532,l),
(297,612,l),
(-5,612,l),
(-5,540,l),
(57,520,l),
(202,243,l),
(202,97,l),
(137,72,l),
(137,0,l)
);
}
);
width = 595;
},
{
anchors = (
{
name = bottom;
pos = (251,0);
},
{
name = top;
pos = (255,591);
}
);
layerId = "4F39836F-1187-466E-8FAB-7EBF43C51BB4";
shapes = (
{
closed = 1;
nodes = (
(327,0,l),
(327,18,l),
(266,27,l),
(266,239,l),
(319,348,o),
(373,457,o),
(426,566,c),
(482,574,l),
(482,591,l),
(334,591,l),
(334,573,l),
(395,564,l),
(349,467,o),
(302,370,o),
(256,273,c),
(249,273,l),
(110,564,l),
(169,573,l),
(169,591,l),
(21,591,l),
(21,574,l),
(77,566,l),
(236,239,l),
(236,25,l),
(179,17,l),
(179,0,l)
);
}
);
width = 503;
}
);
unicode = 89;
},
{
color = 4;
glyphname = Z;
kernLeft = Z;
kernRight = Z;
layers = (
{
anchors = (
{
name = bottom;
pos = (239,0);
},
{
name = top;
pos = (246,603);
}
);
layerId = "555729A4-F539-4650-9C4F-3880CB033E7B";
shapes = (
{
closed = 1;
nodes = (
(445,0,l),
(434,184,l),
(380,184,l),
(368,49,l),
(165,65,l),
(422,565,l),
(422,603,l),
(59,603,l),
(72,428,l),
(127,428,l),
(136,554,l),
(305,540,l),
(46,38,l),
(46,0,l)
);
}
);
width = 477;
},
{
anchors = (
{
name = bottom;
pos = (258,0);
},
{
name = top;
pos = (259,612);
}
);
layerId = "CB0A0A08-290D-4820-BDFF-3CAB47D8DECF";
shapes = (
{
closed = 1;
nodes = (
(506,0,l),
(495,209,l),
(408,209,l),
(388,88,l),
(236,104,l),
(483,540,l),
(483,612,l),
(19,612,l),
(32,417,l),
(122,417,l),
(135,524,l),
(259,510,l),
(10,72,l),
(10,0,l)
);
}
);
width = 516;
},
{
anchors = (
{
name = bottom;
pos = (223,0);
},
{
name = top;
pos = (223,591);
}
);
layerId = "4F39836F-1187-466E-8FAB-7EBF43C51BB4";
shapes = (
{
closed = 1;
nodes = (
(395,0,l),
(392,122,l),
(373,122,l),
(363,27,l),
(87,27,l),
(384,571,l),
(384,591,l),
(64,591,l),
(70,469,l),
(89,469,l),
(96,564,l),
(345,564,l),
(50,20,l),
(50,0,l)
);
}
);
width = 445;
}
);
unicode = 90;
},
{
color = 4;
glyphname = M.alt;
kernLeft = H;
kernRight = N.alt;
layers = (
{
layerId = "555729A4-F539-4650-9C4F-3880CB033E7B";
shapes = (
{
closed = 1;
nodes = (
(263,0,l),
(263,46,l),
(197,63,l),
(197,495,l),
(236,507,o),
(299,530,o),
(322,530,cs),
(348,530,o),
(368,513,o),
(368,434,cs),
(368,58,l),
(306,38,l),
(306,0,l),
(527,0,l),
(527,46,l),
(461,63,l),
(461,495,l),
(500,508,o),
(563,530,o),
(592,530,cs),
(612,530,o),
(633,514,o),
(633,435,cs),
(633,63,l),
(567,46,l),
(567,0,l),
(788,0,l),
(788,38,l),
(726,58,l),
(726,431,ls),
(726,574,o),
(664,611,o),
(577,611,cs),
(571,611,o),
(497,570,o),
(447,544,c),
(425,582,o),
(388,611,o),
(313,611,cs),
(309,611,o),
(245,571,o),
(195,544,c),
(174,603,l),
(42,603,l),
(42,565,l),
(104,545,l),
(104,58,l),
(42,38,l),
(42,0,l)
);
}
);
width = 824;
},
{
layerId = "CB0A0A08-290D-4820-BDFF-3CAB47D8DECF";
shapes = (
{
closed = 1;
nodes = (
(315,0,l),
(315,80,l),
(267,107,l),
(266,451,l),
(295,460,o),
(326,470,o),
(347,470,cs),
(384,470,o),
(406,459,o),
(406,372,cs),
(406,107,l),
(358,80,l),
(358,0,l),
(640,0,l),
(640,80,l),
(592,107,l),
(592,451,l),
(621,460,o),
(652,470,o),
(673,470,cs),
(710,470,o),
(732,459,o),
(732,372,cs),
(732,107,l),
(684,80,l),
(684,0,l),
(979,0,l),
(979,72,l),
(919,97,l),
(919,419,ls),
(919,558,o),
(870,625,o),
(700,625,cs),
(692,625,o),
(599,572,o),
(565,551,c),
(537,601,o),
(484,625,o),
(394,625,cs),
(386,625,o),
(294,572,o),
(260,551,c),
(237,612,l),
(20,612,l),
(20,540,l),
(80,515,l),
(80,97,l),
(20,72,l),
(20,0,l)
);
}
);
width = 989;
},
{
layerId = "4F39836F-1187-466E-8FAB-7EBF43C51BB4";
shapes = (
{
closed = 1;
nodes = (
(195,0,l),
(195,20,l),
(134,27,l),
(134,520,l),
(186,538,o),
(260,572,o),
(302,572,cs),
(357,572,o),
(371,544,o),
(371,473,cs),
(371,27,l),
(310,20,l),
(310,0,l),
(458,0,l),
(458,20,l),
(401,25,l),
(401,520,l),
(459,539,o),
(530,572,o),
(574,572,cs),
(614,572,o),
(638,544,o),
(638,473,cs),
(638,27,l),
(577,20,l),
(577,0,l),
(725,0,l),
(725,20,l),
(668,25,l),
(668,465,ls),
(668,562,o),
(637,601,o),
(567,601,cs),
(532,601,o),
(429,556,o),
(395,544,c),
(382,582,o),
(347,601,o),
(295,601,cs),
(264,601,o),
(162,557,o),
(134,546,c),
(126,591,l),
(47,591,l),
(47,571,l),
(104,566,l),
(104,25,l),
(47,20,l),
(47,0,l)
);
}
);
width = 755;
}
);
},
{
color = 4;
glyphname = N.alt;
kernLeft = H;
kernRight = N.alt;
layers = (
{
anchors = (
{
name = bottom;
pos = (298,0);
},
{
name = top;
pos = (288,603);
}
);
layerId = "555729A4-F539-4650-9C4F-3880CB033E7B";
shapes = (
{
closed = 1;
nodes = (
(263,0,l),
(263,46,l),
(197,63,l),
(197,495,l),
(234,506,o),
(325,530,o),
(351,530,cs),
(380,530,o),
(406,517,o),
(406,412,cs),
(406,63,l),
(340,46,l),
(340,0,l),
(561,0,l),
(561,38,l),
(499,58,l),
(499,433,ls),
(499,543,o),
(447,611,o),
(350,611,cs),
(338,611,o),
(246,567,o),
(195,544,c),
(174,603,l),
(42,603,l),
(42,565,l),
(104,545,l),
(104,58,l),
(42,38,l),
(42,0,l)
);
}
);
width = 597;
},
{
anchors = (
{
name = bottom;
pos = (337,0);
},
{
name = top;
pos = (319,612);
}
);
layerId = "CB0A0A08-290D-4820-BDFF-3CAB47D8DECF";
shapes = (
{
closed = 1;
nodes = (
(320,0,l),
(320,80,l),
(267,107,l),
(266,451,l),
(299,460,o),
(333,470,o),
(357,470,cs),
(394,470,o),
(416,459,o),
(416,372,cs),
(416,107,l),
(363,80,l),
(363,0,l),
(663,0,l),
(663,72,l),
(603,97,l),
(603,407,ls),
(603,555,o),
(558,625,o),
(404,625,cs),
(395,625,o),
(297,572,o),
(260,551,c),
(237,612,l),
(20,612,l),
(20,540,l),
(80,515,l),
(80,97,l),
(20,72,l),
(20,0,l)
);
}
);
width = 673;
},
{
anchors = (
{
name = bottom;
pos = (261,0);
},
{
name = top;
pos = (256,591);
}
);
layerId = "4F39836F-1187-466E-8FAB-7EBF43C51BB4";
shapes = (
{
closed = 1;
nodes = (
(195,0,l),
(195,20,l),
(134,27,l),
(134,520,l),
(192,538,o),
(275,572,o),
(322,572,cs),
(374,572,o),
(401,541,o),
(401,463,cs),
(401,27,l),
(340,20,l),
(340,0,l),
(488,0,l),
(488,20,l),
(431,25,l),
(431,455,ls),
(431,559,o),
(396,601,o),
(315,601,cs),
(280,601,o),
(166,557,o),
(134,546,c),
(126,591,l),
(47,591,l),
(47,571,l),
(104,566,l),
(104,25,l),
(47,20,l),
(47,0,l)
);
}
);
width = 518;
}
);
},
{
color = 4;
glyphname = Nhookleft.alt;
kernLeft = J;
kernRight = N.alt;
layers = (
{
layerId = "CB0A0A08-290D-4820-BDFF-3CAB47D8DECF";
shapes = (
{
closed = 1;
nodes = (
(663,0,l),
(663,72,l),
(603,97,l),
(603,407,ls),
(603,555,o),
(558,625,o),
(404,625,cs),
(395,625,o),
(297,572,o),
(260,551,c),
(237,612,l),
(20,612,l),
(20,540,l),
(80,515,l),
(266,451,l),
(299,460,o),
(333,470,o),
(357,470,cs),
(394,470,o),
(416,459,o),
(416,372,cs),
(416,107,l),
(363,80,l),
(363,0,l)
);
},
{
closed = 1;
nodes = (
(158,-183,o),
(272,-54,o),
(271,28,cs),
(266,506,l),
(79,535,l),
(79,40,ls),
(79,8,o),
(78,-65,o),
(47,-69,cs),
(32,-71,o),
(-43,-72,o),
(-71,-72,c),
(-71,-159,l),
(-13,-171,o),
(91,-183,o),
(119,-183,cs)
);
}
);
width = 673;
},
{
layerId = "4F39836F-1187-466E-8FAB-7EBF43C51BB4";
shapes = (
{
closed = 1;
nodes = (
(488,0,l),
(488,20,l),
(431,25,l),
(431,455,ls),
(431,559,o),
(396,601,o),
(315,601,cs),
(280,601,o),
(166,557,o),
(134,546,c),
(126,591,l),
(47,591,l),
(47,571,l),
(104,566,l),
(131,520,l),
(189,538,o),
(275,572,o),
(322,572,cs),
(374,572,o),
(401,541,o),
(401,463,cs),
(401,27,l),
(340,20,l),
(340,0,l)
);
},
{
closed = 1;
nodes = (
(82,-129,o),
(134,-67,o),
(134,5,cs),
(134,542,l),
(104,575,l),
(104,3,ls),
(104,-67,o),
(61,-97,o),
(54,-99,cs),
(33,-105,o),
(7,-101,o),
(-15,-101,c),
(-15,-120,l),
(3,-123,o),
(40,-129,o),
(51,-129,cs)
);
}
);
width = 533;
},
{
layerId = "555729A4-F539-4650-9C4F-3880CB033E7B";
shapes = (
{
closed = 1;
nodes = (
(558,0,l),
(558,38,l),
(496,58,l),
(496,433,ls),
(496,543,o),
(444,611,o),
(347,611,cs),
(335,611,o),
(243,567,o),
(192,544,c),
(171,603,l),
(39,603,l),
(39,565,l),
(101,545,l),
(194,495,l),
(231,506,o),
(322,530,o),
(348,530,cs),
(377,530,o),
(403,517,o),
(403,412,cs),
(403,63,l),
(337,46,l),
(337,0,l)
);
},
{
closed = 1;
nodes = (
(86,-153,o),
(197,-54,o),
(197,8,cs),
(194,515,l),
(101,565,l),
(101,40,ls),
(101,5,o),
(99,-73,o),
(69,-79,cs),
(54,-82,o),
(-17,-82,o),
(-45,-82,c),
(-45,-129,l),
(-10,-138,o),
(39,-153,o),
(55,-153,cs)
);
}
);
width = 593;
}
);
},
{
color = 4;
glyphname = Eng.alt;
kernLeft = H;
kernRight = J;
layers = (
{
layerId = "CB0A0A08-290D-4820-BDFF-3CAB47D8DECF";
shapes = (
{
closed = 1;
nodes = (
(491,-183,o),
(604,-54,o),
(604,28,cs),
(603,407,ls),
(603,555,o),
(558,625,o),
(404,625,cs),
(395,625,o),
(297,572,o),
(260,551,c),
(237,612,l),
(20,612,l),
(20,540,l),
(80,515,l),
(80,97,l),
(20,72,l),
(20,0,l),
(320,0,l),
(320,80,l),
(267,107,l),
(266,451,l),
(299,460,o),
(333,470,o),
(357,470,cs),
(394,470,o),
(416,459,o),
(416,372,cs),
(416,40,ls),
(416,8,o),
(415,-65,o),
(384,-69,cs),
(369,-71,o),
(294,-72,o),
(266,-72,c),
(266,-159,l),
(324,-171,o),
(424,-183,o),
(452,-183,cs)
);
}
);
width = 673;
},
{
layerId = "4F39836F-1187-466E-8FAB-7EBF43C51BB4";
shapes = (
{
closed = 1;
nodes = (
(379,-129,o),
(432,-67,o),
(432,5,cs),
(432,455,ls),
(432,559,o),
(396,601,o),
(315,601,cs),
(280,601,o),
(166,557,o),
(134,546,c),
(126,591,l),
(47,591,l),
(47,571,l),
(104,566,l),
(104,25,l),
(47,20,l),
(47,0,l),
(195,0,l),
(195,20,l),
(134,27,l),
(134,520,l),
(192,538,o),
(275,572,o),
(322,572,cs),
(374,572,o),
(401,541,o),
(401,463,cs),
(401,3,ls),
(401,-67,o),
(358,-97,o),
(351,-99,cs),
(330,-105,o),
(304,-101,o),
(282,-101,c),
(282,-120,l),
(300,-123,o),
(337,-129,o),
(348,-129,cs)
);
}
);
width = 482;
},
{
layerId = "555729A4-F539-4650-9C4F-3880CB033E7B";
shapes = (
{
closed = 1;
nodes = (
(391,-153,o),
(502,-54,o),
(502,8,cs),
(499,433,ls),
(499,543,o),
(447,611,o),
(350,611,cs),
(338,611,o),
(246,567,o),
(195,544,c),
(174,603,l),
(42,603,l),
(42,565,l),
(104,545,l),
(104,58,l),
(42,38,l),
(42,0,l),
(263,0,l),
(263,46,l),
(197,63,l),
(197,495,l),
(234,506,o),
(325,530,o),
(351,530,cs),
(380,530,o),
(406,517,o),
(406,412,cs),
(406,40,ls),
(406,5,o),
(404,-73,o),
(374,-79,cs),
(359,-82,o),
(288,-82,o),
(260,-82,c),
(260,-129,l),
(295,-138,o),
(344,-153,o),
(360,-153,cs)
);
}
);
width = 552;
}
);
},
{
color = 4;
glyphname = a;
kernLeft = o;
kernRight = a;
layers = (
{
anchors = (
{
name = bottom;
pos = (230,0);
},
{
name = ogonek;
pos = (387,7);
},
{
name = top;
pos = (229,448);
}
);
background = {
shapes = (
{
closed = 1;
nodes = (
(201,-9,o),
(259,37,o),
(294,63,c),
(294,24,ls),
(294,17,o),
(323,-9,o),
(328,-9,cs),
(337,-9,o),
(416,7,o),
(416,7,c),
(416,44,l),
(382,58,l),
(382,434,l),
(355,438,o),
(224,457,o),
(207,457,cs),
(183,457,o),
(83,388,o),
(62,358,c),
(48,330,o),
(38,273,o),
(38,209,cs),
(38,57,o),
(115,-9,o),
(194,-9,cs)
);
},
{
closed = 1;
nodes = (
(180,65,o),
(134,104,o),
(134,216,cs),
(134,357,o),
(149,400,o),
(172,404,cs),
(191,407,o),
(259,390,o),
(291,380,c),
(291,105,l),
(291,105,o),
(210,65,o),
(200,65,cs)
);
}
);
};
layerId = "555729A4-F539-4650-9C4F-3880CB033E7B";
shapes = (
{
closed = 1;
nodes = (
(201,-9,o),
(260,37,o),
(294,63,c),
(294,24,ls),
(294,17,o),
(323,-9,o),
(328,-9,cs),
(335,-9,o),
(382,0,o),
(416,7,c),
(416,44,l),
(382,58,l),
(382,434,l),
(355,438,o),
(224,457,o),
(207,457,cs),
(183,457,o),
(83,388,o),
(62,358,c),
(48,330,o),
(38,273,o),
(38,209,cs),
(38,57,o),
(115,-9,o),
(194,-9,cs)
);
},
{
closed = 1;
nodes = (
(180,65,o),
(134,104,o),
(134,216,cs),
(134,357,o),
(149,395,o),
(172,399,cs),
(191,402,o),
(259,390,o),
(291,380,c),
(291,105,l),
(263,91,o),
(209,65,o),
(200,65,cs)
);
}
);
width = 448;
},
{
anchors = (
{
name = bottom;
pos = (258,0);
},
{
name = ogonek;
pos = (449,10);
},
{
name = top;
pos = (258,462);
}
);
background = {
shapes = (
{
closed = 1;
nodes = (
(206,-13,o),
(265,32,o),
(289,51,c),
(289,30,ls),
(289,22,o),
(322,-13,o),
(329,-13,cs),
(347,-13,o),
(499,10,o),
(499,10,c),
(499,79,l),
(455,94,l),
(455,443,l),
(455,443,o),
(258,476,o),
(242,476,cs),
(210,476,o),
(75,395,o),
(47,364,c),
(34,331,o),
(20,266,o),
(20,205,cs),
(20,75,o),
(82,-13,o),
(201,-13,cs)
);
},
{
closed = 1;
nodes = (
(215,103,o),
(205,163,o),
(205,220,cs),
(205,326,o),
(218,402,o),
(227,402,cs),
(236,402,o),
(282,363,o),
(282,363,c),
(282,124,l),
(282,124,o),
(244,103,o),
(238,103,cs)
);
}
);
};
layerId = "CB0A0A08-290D-4820-BDFF-3CAB47D8DECF";
shapes = (
{
closed = 1;
nodes = (
(206,-13,o),
(265,32,o),
(289,51,c),
(289,30,ls),
(289,22,o),
(322,-13,o),
(329,-13,cs),
(342,-13,o),
(434,0,o),
(499,10,c),
(499,79,l),
(455,94,l),
(455,443,l),
(370,457,o),
(254,476,o),
(242,476,cs),
(210,476,o),
(75,395,o),
(47,364,c),
(34,331,o),
(20,266,o),
(20,205,cs),
(20,75,o),
(82,-13,o),
(201,-13,cs)
);
},
{
closed = 1;
nodes = (
(215,103,o),
(205,163,o),
(205,220,cs),
(205,326,o),
(212,389,o),
(226,399,cs),
(234,405,o),
(265,378,o),
(282,363,c),
(282,124,l),
(266,115,o),
(242,103,o),
(238,103,cs)
);
}
);
width = 507;
},
{
anchors = (
{
name = bottom;
pos = (229,0);
},
{
name = ogonek;
pos = (381,2);
},
{
name = top;
pos = (222,440);
}
);
background = {
shapes = (
{
closed = 1;
nodes = (
(224,-10,o),
(279,38,o),
(317,69,c),
(315,7,ls),
(315,3,o),
(332,-10,o),
(335,-10,cs),
(343,-10,o),
(402,2,o),
(402,2,c),
(402,19,l),
(344,19,l),
(344,432,l),
(299,439,o),
(230,450,o),
(209,450,cs),
(190,450,o),
(127,417,o),
(87,360,c),
(70,326,o),
(54,269,o),
(54,195,cs),
(54,94,o),
(87,-10,o),
(216,-10,cs)
);
},
{
closed = 1;
nodes = (
(140,17,o),
(83,59,o),
(83,202,cs),
(83,306,o),
(109,381,o),
(195,420,cs),
(221,432,o),
(273,419,o),
(315,409,c),
(315,98,l),
(279,68,o),
(220,17,o),
(209,17,cs)
);
}
);
};
layerId = "4F39836F-1187-466E-8FAB-7EBF43C51BB4";
shapes = (
{
closed = 1;
nodes = (
(224,-10,o),
(279,38,o),
(317,69,c),
(315,7,ls),
(315,3,o),
(332,-10,o),
(335,-10,cs),
(341,-10,o),
(377,-3,o),
(402,2,c),
(402,19,l),
(344,19,l),
(344,432,l),
(299,439,o),
(230,450,o),
(209,450,cs),
(190,450,o),
(127,419,o),
(87,360,c),
(70,326,o),
(54,269,o),
(54,195,cs),
(54,94,o),
(87,-10,o),
(216,-10,cs)
);
},
{
closed = 1;
nodes = (
(140,17,o),
(83,59,o),
(83,202,cs),
(83,306,o),
(109,380,o),
(195,419,cs),
(221,431,o),
(273,419,o),
(315,409,c),
(315,98,l),
(279,68,o),
(220,17,o),
(209,17,cs)
);
}
);
width = 433;
}
);
unicode = 97;
},
{
color = 4;
glyphname = ae;
kernLeft = o;
kernRight = e;
layers = (
{
anchors = (
{
name = top;
pos = (340,440);
}
);
layerId = "4F39836F-1187-466E-8FAB-7EBF43C51BB4";
shapes = (
{
closed = 1;
nodes = (
(224,-10,o),
(293,50,o),
(331,81,c),
(329,110,l),
(293,80,o),
(220,17,o),
(209,17,cs),
(140,17,o),
(83,59,o),
(83,202,cs),
(83,306,o),
(109,381,o),
(195,420,cs),
(221,432,o),
(266,420,o),
(374,397,c),
(404,420,l),
(359,427,o),
(230,450,o),
(209,450,cs),
(190,450,o),
(127,417,o),
(87,360,c),
(70,326,o),
(54,269,o),
(54,195,cs),
(54,94,o),
(87,-10,o),
(216,-10,cs)
);
},
{
closed = 1;
nodes = (
(489,-10,o),
(543,1,o),
(580,8,c),
(580,26,l),
(551,23,o),
(476,15,o),
(468,15,cs),
(385,15,o),
(330,61,o),
(330,213,c),
(597,238,l),
(595,394,o),
(547,450,o),
(456,450,cs),
(437,450,o),
(372,417,o),
(333,360,c),
(314,325,o),
(301,269,o),
(301,205,cs),
(301,69,o),
(350,-10,o),
(460,-10,cs)
);
},
{
closed = 1;
nodes = (
(335,323,o),
(360,363,o),
(395,392,cs),
(419,412,o),
(445,425,o),
(460,425,cs),
(536,425,o),
(564,358,o),
(567,260,c),
(331,238,l)
);
}
);
width = 631;
},
{
anchors = (
{
name = top;
pos = (327,448);
}
);
layerId = "555729A4-F539-4650-9C4F-3880CB033E7B";
shapes = (
{
closed = 1;
nodes = (
(201,-9,o),
(284,55,o),
(319,81,c),
(312,116,l),
(268,94,o),
(207,65,o),
(200,65,cs),
(180,65,o),
(134,104,o),
(134,216,cs),
(134,357,o),
(149,400,o),
(172,404,cs),
(191,407,o),
(287,381,o),
(319,371,c),
(405,429,l),
(376,434,o),
(224,457,o),
(207,457,cs),
(183,457,o),
(83,388,o),
(62,358,c),
(48,330,o),
(38,273,o),
(38,209,cs),
(38,57,o),
(115,-9,o),
(194,-9,cs)
);
},
{
closed = 1;
nodes = (
(462,-9,o),
(547,11,o),
(595,26,c),
(595,67,l),
(556,66,o),
(477,62,o),
(466,62,cs),
(438,62,o),
(373,89,o),
(373,221,c),
(609,241,l),
(609,427,o),
(549,461,o),
(451,461,cs),
(425,461,o),
(322,390,o),
(301,358,c),
(287,332,o),
(277,271,o),
(277,203,cs),
(277,56,o),
(361,-9,o),
(443,-9,cs)
);
},
{
closed = 1;
nodes = (
(375,321,o),
(387,391,o),
(405,399,cs),
(419,405,o),
(432,406,o),
(443,406,cs),
(494,406,o),
(512,356,o),
(512,280,c),
(375,262,l)
);
}
);
width = 644;
},
{
anchors = (
{
name = top;
pos = (369,462);
}
);
layerId = "CB0A0A08-290D-4820-BDFF-3CAB47D8DECF";
shapes = (
{
closed = 1;
nodes = (
(206,-13,o),
(297,53,o),
(321,72,c),
(314,144,l),
(284,126,o),
(242,103,o),
(238,103,cs),
(215,103,o),
(205,163,o),
(205,220,cs),
(205,326,o),
(212,389,o),
(226,399,cs),
(234,405,o),
(289,364,o),
(306,349,c),
(455,443,l),
(370,457,o),
(254,476,o),
(242,476,cs),
(210,476,o),
(75,395,o),
(47,364,c),
(34,331,o),
(20,266,o),
(20,205,cs),
(20,75,o),
(82,-13,o),
(201,-13,cs)
);
},
{
closed = 1;
nodes = (
(513,-14,o),
(646,32,o),
(677,44,c),
(677,114,l),
(649,113,o),
(569,109,o),
(517,106,cs),
(478,106,o),
(459,154,o),
(459,201,c),
(694,221,l),
(694,416,o),
(626,476,o),
(504,476,cs),
(472,476,o),
(337,395,o),
(309,364,c),
(296,331,o),
(282,265,o),
(282,204,cs),
(282,74,o),
(353,-14,o),
(489,-14,cs)
);
},
{
closed = 1;
nodes = (
(462,352,o),
(474,402,o),
(481,402,cs),
(483,402,o),
(502,400,o),
(508,397,cs),
(522,388,o),
(532,342,o),
(532,288,c),
(458,277,l)
);
}
);
width = 709;
}
);
unicode = 230;
},
{
color = 4;
glyphname = b;
kernLeft = l;
kernRight = o;
layers = (
{
background = {
shapes = (
{
closed = 1;
nodes = (
(246,457,o),
(190,412,o),
(156,388,c),
(151,389,l),
(156,613,ls),
(156,620,o),
(127,646,o),
(121,646,cs),
(114,646,o),
(52,635,o),
(30,630,c),
(30,593,l),
(65,579,l),
(65,12,l),
(102,5,o),
(226,-9,o),
(240,-9,cs),
(264,-9,o),
(364,60,o),
(385,90,c),
(399,118,o),
(409,175,o),
(409,245,cs),
(409,392,o),
(330,457,o),
(253,457,cs)
);
},
{
closed = 1;
nodes = (
(185,358,o),
(240,383,o),
(247,383,cs),
(267,383,o),
(313,342,o),
(313,232,cs),
(313,91,o),
(298,48,o),
(275,44,cs),
(256,41,o),
(188,58,o),
(156,68,c),
(156,343,l)
);
}
);
};
layerId = "555729A4-F539-4650-9C4F-3880CB033E7B";
shapes = (
{
closed = 1;
nodes = (
(264,-9,o),
(364,60,o),
(385,90,c),
(399,118,o),
(409,175,o),
(409,245,cs),
(409,392,o),
(330,457,o),
(253,457,cs),
(246,457,o),
(190,412,o),
(156,388,c),
(151,389,l),
(156,613,ls),
(156,620,o),
(127,646,o),
(121,646,cs),
(114,646,o),
(52,635,o),
(30,630,c),
(30,593,l),
(65,579,l),
(65,12,l),
(102,5,o),
(226,-9,o),
(240,-9,cs)
);
},
{
closed = 1;
nodes = (
(256,46,o),
(188,58,o),
(156,68,c),
(156,343,l),
(185,358,o),
(240,383,o),
(247,383,cs),
(267,383,o),
(313,342,o),
(313,232,cs),
(313,91,o),
(298,53,o),
(275,49,cs)
);
}
);
width = 447;
},
{
layerId = "CB0A0A08-290D-4820-BDFF-3CAB47D8DECF";
shapes = (
{
closed = 1;
nodes = (
(285,-13,o),
(420,68,o),
(448,99,c),
(461,130,o),
(475,192,o),
(475,249,cs),
(475,385,o),
(413,476,o),
(294,476,cs),
(289,476,o),
(237,436,o),
(211,416,c),
(204,418,l),
(213,621,ls),
(213,629,o),
(180,664,o),
(173,664,cs),
(156,664,o),
(31,647,o),
(-4,641,c),
(-4,572,l),
(40,557,l),
(40,28,l),
(86,18,o),
(240,-13,o),
(253,-13,cs)
);
},
{
closed = 1;
nodes = (
(262,57,o),
(233,82,o),
(213,100,c),
(213,339,l),
(229,348,o),
(253,360,o),
(257,360,cs),
(280,360,o),
(290,296,o),
(290,234,cs),
(290,134,o),
(282,76,o),
(270,65,cs)
);
}
);
width = 495;
},
{
background = {
shapes = (
{
closed = 1;
nodes = (
(210,450,o),
(158,405,o),
(120,374,c),
(118,375,l),
(119,619,ls),
(119,623,o),
(102,636,o),
(99,636,cs),
(91,636,o),
(49,628,o),
(32,624,c),
(32,607,l),
(90,607,l),
(90,8,l),
(133,1,o),
(204,-10,o),
(225,-10,cs),
(244,-10,o),
(307,23,o),
(347,80,c),
(364,114,o),
(380,171,o),
(380,245,cs),
(380,346,o),
(347,450,o),
(218,450,cs)
);
},
{
closed = 1;
nodes = (
(155,372,o),
(214,423,o),
(225,423,cs),
(294,423,o),
(351,381,o),
(351,238,cs),
(351,134,o),
(325,60,o),
(239,20,cs),
(213,8,o),
(154,23,o),
(119,31,c),
(119,342,l)
);
}
);
};
layerId = "4F39836F-1187-466E-8FAB-7EBF43C51BB4";
shapes = (
{
closed = 1;
nodes = (
(244,-10,o),
(307,21,o),
(347,80,c),
(364,114,o),
(380,171,o),
(380,245,cs),
(380,346,o),
(347,450,o),
(218,450,cs),
(210,450,o),
(158,405,o),
(120,374,c),
(118,375,l),
(119,619,ls),
(119,623,o),
(102,636,o),
(99,636,cs),
(91,636,o),
(49,628,o),
(32,624,c),
(32,607,l),
(90,607,l),
(90,8,l),
(133,1,o),
(204,-10,o),
(225,-10,cs)
);
},
{
closed = 1;
nodes = (
(213,9,o),
(154,23,o),
(119,31,c),
(119,342,l),
(155,372,o),
(214,423,o),
(225,423,cs),
(294,423,o),
(351,381,o),
(351,238,cs),
(351,134,o),
(325,61,o),
(239,21,cs)
);
}
);
width = 435;
}
);
unicode = 98;
},
{
color = 4;
glyphname = c;
kernLeft = o;
kernRight = c;
layers = (
{
anchors = (
{
name = bottom;
pos = (188,0);
},
{
name = top;
pos = (187,448);
}
);
background = {
shapes = (
{
closed = 1;
nodes = (
(196,-9,o),
(269,7,o),
(317,22,c),
(317,64,l),
(204,64,ls),
(183,64,o),
(134,104,o),
(134,216,cs),
(134,304,o),
(144,381,o),
(163,396,cs),
(167,399,o),
(172,400,o),
(177,400,cs),
(197,400,o),
(225,386,o),
(239,379,c),
(253,310,l),
(314,310,l),
(317,438,l),
(281,449,o),
(238,457,o),
(207,457,cs),
(183,457,o),
(83,390,o),
(62,358,c),
(48,332,o),
(38,269,o),
(38,203,cs),
(38,56,o),
(112,-9,o),
(181,-9,cs)
);
}
);
};
layerId = "555729A4-F539-4650-9C4F-3880CB033E7B";
shapes = (
{
closed = 1;
nodes = (
(196,-9,o),
(269,7,o),
(317,22,c),
(317,64,l),
(204,64,ls),
(178,64,o),
(134,104,o),
(134,216,cs),
(134,304,o),
(144,376,o),
(163,391,cs),
(167,394,o),
(172,395,o),
(177,395,cs),
(197,395,o),
(225,386,o),
(239,379,c),
(253,310,l),
(314,310,l),
(317,438,l),
(281,449,o),
(238,457,o),
(207,457,cs),
(183,457,o),
(83,390,o),
(62,358,c),
(48,332,o),
(38,269,o),
(38,203,cs),
(38,56,o),
(112,-9,o),
(181,-9,cs)
);
}
);
width = 344;
},
{
anchors = (
{
name = bottom;
pos = (208,0);
},
{
name = top;
pos = (205,462);
}
);
background = {
shapes = (
{
closed = 1;
nodes = (
(252,-13,o),
(351,30,o),
(380,41,c),
(380,111,l),
(264,111,ls),
(221,111,o),
(201,165,o),
(201,220,cs),
(201,301,o),
(209,391,o),
(220,391,cs),
(229,391,o),
(260,377,o),
(266,375,c),
(284,291,l),
(377,291,l),
(380,452,l),
(336,467,o),
(276,476,o),
(238,476,cs),
(207,476,o),
(74,396,o),
(47,365,c),
(34,332,o),
(20,266,o),
(20,205,cs),
(20,75,o),
(84,-13,o),
(207,-13,cs)
);
}
);
};
layerId = "CB0A0A08-290D-4820-BDFF-3CAB47D8DECF";
shapes = (
{
closed = 1;
nodes = (
(252,-13,o),
(351,30,o),
(380,41,c),
(380,111,l),
(266,111,ls),
(214,111,o),
(201,170,o),
(201,235,cs),
(201,316,o),
(208,376,o),
(220,386,cs),
(223,389,o),
(227,390,o),
(231,390,cs),
(241,390,o),
(253,383,o),
(266,375,c),
(284,291,l),
(377,291,l),
(380,452,l),
(336,467,o),
(276,476,o),
(238,476,cs),
(207,476,o),
(74,391,o),
(47,360,c),
(34,327,o),
(20,266,o),
(20,205,cs),
(20,75,o),
(84,-13,o),
(207,-13,cs)
);
}
);
width = 399;
},
{
anchors = (
{
name = bottom;
pos = (188,0);
},
{
name = top;
pos = (189,440);
}
);
background = {
shapes = (
{
closed = 1;
nodes = (
(225,-10,o),
(280,-2,o),
(296,1,c),
(296,18,l),
(221,15,l),
(138,15,o),
(83,59,o),
(83,202,cs),
(83,323,o),
(113,363,o),
(148,392,cs),
(172,412,o),
(198,425,o),
(213,425,cs),
(226,425,o),
(247,422,o),
(266,418,c),
(273,332,l),
(292,332,l),
(294,440,l),
(266,445,o),
(222,450,o),
(209,450,cs),
(190,450,o),
(125,417,o),
(86,360,c),
(67,325,o),
(54,269,o),
(54,195,cs),
(54,65,o),
(109,-10,o),
(213,-10,cs)
);
}
);
};
layerId = "4F39836F-1187-466E-8FAB-7EBF43C51BB4";
shapes = (
{
closed = 1;
nodes = (
(225,-10,o),
(280,-2,o),
(296,1,c),
(296,18,l),
(221,15,ls),
(138,15,o),
(83,59,o),
(83,202,cs),
(83,323,o),
(114,363,o),
(149,392,cs),
(173,412,o),
(198,425,o),
(213,425,cs),
(226,425,o),
(247,422,o),
(266,418,c),
(273,332,l),
(292,332,l),
(294,440,l),
(266,445,o),
(222,450,o),
(209,450,cs),
(190,450,o),
(125,419,o),
(86,360,c),
(67,325,o),
(54,269,o),
(54,195,cs),
(54,65,o),
(109,-10,o),
(213,-10,cs)
);
}
);
width = 322;
}
);
unicode = 99;
},
{
color = 4;
glyphname = d;
kernLeft = o;
kernRight = l;
layers = (
{
anchors = (
{
name = bottom;
pos = (234,0);
},
{
name = center;
pos = (301,516);
},
{
name = top;
pos = (224,750);
},
{
name = topright;
pos = (438,448);
}
);
background = {
shapes = (
{
closed = 1;
nodes = (
(38,56,o),
(118,-9,o),
(194,-9,cs),
(201,-9,o),
(259,37,o),
(294,63,c),
(294,24,ls),
(294,17,o),
(323,-9,o),
(328,-9,cs),
(337,-9,o),
(416,7,o),
(416,7,c),
(416,44,l),
(382,58,l),
(382,427,l),
(387,613,ls),
(387,620,o),
(358,646,o),
(352,646,cs),
(344,646,o),
(261,630,o),
(261,630,c),
(261,593,l),
(296,579,l),
(296,446,l),
(256,452,o),
(220,457,o),
(207,457,cs),
(183,457,o),
(83,388,o),
(62,358,c),
(48,330,o),
(38,273,o),
(38,203,cs)
);
},
{
closed = 1;
nodes = (
(134,357,o),
(149,400,o),
(172,404,cs),
(191,407,o),
(259,390,o),
(291,380,c),
(291,105,l),
(291,105,o),
(210,65,o),
(200,65,cs),
(180,65,o),
(134,104,o),
(134,216,cs)
);
}
);
};
layerId = "555729A4-F539-4650-9C4F-3880CB033E7B";
shapes = (
{
closed = 1;
nodes = (
(201,-9,o),
(259,37,o),
(294,63,c),
(294,24,ls),
(294,17,o),
(323,-9,o),
(328,-9,cs),
(335,-9,o),
(382,0,o),
(416,7,c),
(416,44,l),
(382,58,l),
(382,427,l),
(387,613,ls),
(387,620,o),
(358,646,o),
(352,646,cs),
(346,646,o),
(297,637,o),
(261,630,c),
(261,593,l),
(296,579,l),
(296,446,l),
(256,452,o),
(220,457,o),
(207,457,cs),
(183,457,o),
(83,388,o),
(62,358,c),
(48,330,o),
(38,273,o),
(38,203,cs),
(38,56,o),
(118,-9,o),
(194,-9,cs)
);
},
{
closed = 1;
nodes = (
(180,65,o),
(134,104,o),
(134,216,cs),
(134,357,o),
(149,395,o),
(172,399,cs),
(191,402,o),
(256,390,o),
(291,380,c),
(291,105,l),
(256,88,o),
(207,65,o),
(200,65,cs)
);
}
);
width = 451;
},
{
anchors = (
{
name = bottom;
pos = (253,0);
},
{
name = center;
pos = (325,520);
},
{
name = top;
pos = (253,750);
},
{
name = topright;
pos = (468,462);
}
);
background = {
shapes = (
{
closed = 1;
nodes = (
(20,75,o),
(82,-13,o),
(201,-13,cs),
(206,-13,o),
(265,32,o),
(289,51,c),
(289,30,ls),
(289,22,o),
(322,-13,o),
(329,-13,cs),
(347,-13,o),
(499,10,o),
(499,10,c),
(499,79,l),
(455,94,l),
(455,440,l),
(462,622,ls),
(462,630,o),
(429,665,o),
(422,665,cs),
(403,665,o),
(238,642,o),
(238,642,c),
(238,573,l),
(282,558,l),
(282,472,l),
(261,475,o),
(246,477,o),
(242,477,cs),
(210,477,o),
(75,396,o),
(47,365,c),
(34,332,o),
(20,266,o),
(20,205,cs)
);
},
{
closed = 1;
nodes = (
(205,326,o),
(218,403,o),
(227,403,cs),
(236,403,o),
(282,364,o),
(282,364,c),
(282,124,l),
(282,124,o),
(244,103,o),
(238,103,cs),
(215,103,o),
(205,163,o),
(205,220,cs)
);
}
);
};
layerId = "CB0A0A08-290D-4820-BDFF-3CAB47D8DECF";
shapes = (
{
closed = 1;
nodes = (
(206,-13,o),
(265,32,o),
(289,51,c),
(289,30,ls),
(289,22,o),
(322,-13,o),
(329,-13,cs),
(342,-13,o),
(434,0,o),
(499,10,c),
(499,79,l),
(455,94,l),
(455,440,l),
(462,622,ls),
(462,630,o),
(429,665,o),
(422,665,cs),
(408,665,o),
(309,652,o),
(238,642,c),
(238,573,l),
(282,558,l),
(282,472,l),
(261,475,o),
(246,477,o),
(242,477,cs),
(210,477,o),
(75,396,o),
(47,365,c),
(34,332,o),
(20,266,o),
(20,205,cs),
(20,75,o),
(82,-13,o),
(201,-13,cs)
);
},
{
closed = 1;
nodes = (
(215,103,o),
(205,163,o),
(205,220,cs),
(205,326,o),
(212,389,o),
(226,399,cs),
(235,406,o),
(273,372,o),
(282,363,c),
(282,124,l),
(266,115,o),
(242,103,o),
(238,103,cs)
);
}
);
width = 507;
},
{
anchors = (
{
name = bottom;
pos = (218,0);
},
{
name = center;
pos = (301,525);
},
{
name = top;
pos = (208,750);
},
{
name = topright;
pos = (416,440);
}
);
background = {
shapes = (
{
closed = 1;
nodes = (
(54,94,o),
(87,-10,o),
(216,-10,cs),
(223,-10,o),
(277,36,o),
(315,67,c),
(315,7,ls),
(315,3,o),
(332,-10,o),
(335,-10,cs),
(343,-10,o),
(402,2,o),
(402,2,c),
(402,19,l),
(344,19,l),
(344,430,l),
(347,620,ls),
(347,624,o),
(330,637,o),
(327,637,cs),
(318,637,o),
(257,625,o),
(257,625,c),
(257,608,l),
(315,608,l),
(315,437,l),
(277,442,o),
(227,450,o),
(209,450,cs),
(190,450,o),
(127,417,o),
(87,360,c),
(70,326,o),
(54,269,o),
(54,195,cs)
);
},
{
closed = 1;
nodes = (
(83,306,o),
(109,381,o),
(195,420,cs),
(221,432,o),
(273,419,o),
(315,408,c),
(315,98,l),
(278,66,o),
(219,17,o),
(209,17,cs),
(140,17,o),
(83,59,o),
(83,202,cs)
);
}
);
};
layerId = "4F39836F-1187-466E-8FAB-7EBF43C51BB4";
shapes = (
{
closed = 1;
nodes = (
(223,-10,o),
(277,36,o),
(315,67,c),
(315,7,ls),
(315,3,o),
(332,-10,o),
(335,-10,cs),
(341,-10,o),
(377,-3,o),
(402,2,c),
(402,19,l),
(344,19,l),
(344,430,l),
(347,620,ls),
(347,624,o),
(330,637,o),
(327,637,cs),
(320,637,o),
(283,630,o),
(257,625,c),
(257,608,l),
(315,608,l),
(315,437,l),
(277,442,o),
(227,450,o),
(209,450,cs),
(190,450,o),
(127,419,o),
(87,360,c),
(70,326,o),
(54,269,o),
(54,195,cs),
(54,94,o),
(87,-10,o),
(216,-10,cs)
);
},
{
closed = 1;
nodes = (
(140,17,o),
(83,59,o),
(83,202,cs),
(83,306,o),
(109,380,o),
(195,419,cs),
(221,431,o),
(273,419,o),
(315,408,c),
(315,98,l),
(278,66,o),
(219,17,o),
(209,17,cs)
);
}
);
width = 438;
}
);
metricLeft = o;
metricRight = l;
unicode = 100;
},
{
color = 4;
glyphname = eth;
kernLeft = o;
kernRight = O;
layers = (
{
layerId = "4F39836F-1187-466E-8FAB-7EBF43C51BB4";
shapes = (
{
closed = 1;
nodes = (
(282,-9,o),
(322,141,o),
(322,283,cs),
(322,476,o),
(276,596,o),
(99,597,c),
(106,578,l),
(250,573,o),
(293,476,o),
(293,284,cs),
(293,166,o),
(268,15,o),
(168,15,cs),
(112,15,o),
(81,102,o),
(81,174,cs),
(81,251,o),
(110,335,o),
(188,335,cs),
(206,335,o),
(272,313,o),
(299,300,c),
(301,317,l),
(265,338,o),
(204,359,o),
(193,359,cs),
(102,359,o),
(53,275,o),
(53,182,cs),
(53,133,o),
(60,95,o),
(79,55,c),
(99,21,o),
(149,-9,o),
(161,-9,cs)
);
},
{
closed = 1;
nodes = (
(361,555,l),
(365,562,l),
(354,575,l),
(135,466,l),
(131,458,l),
(146,447,l)
);
}
);
width = 393;
},
{
layerId = "555729A4-F539-4650-9C4F-3880CB033E7B";
shapes = (
{
closed = 1;
nodes = (
(286,-9,o),
(386,25,o),
(386,303,cs),
(386,497,o),
(304,611,o),
(120,611,c),
(138,560,l),
(268,553,o),
(290,462,o),
(290,204,cs),
(290,59,o),
(236,40,o),
(163,40,cs),
(138,40,o),
(132,125,o),
(132,191,cs),
(132,277,o),
(167,322,o),
(206,322,cs),
(225,322,o),
(269,301,o),
(294,288,c),
(295,333,l),
(266,349,o),
(207,380,o),
(197,380,cs),
(78,380,o),
(36,284,o),
(36,214,cs),
(36,171,o),
(41,118,o),
(50,89,c),
(75,54,o),
(168,-9,o),
(191,-9,cs)
);
},
{
closed = 1;
nodes = (
(404,554,l),
(409,568,l),
(362,601,l),
(134,490,l),
(129,476,l),
(176,443,l)
);
}
);
width = 431;
},
{
layerId = "CB0A0A08-290D-4820-BDFF-3CAB47D8DECF";
shapes = (
{
closed = 1;
nodes = (
(362,-9,o),
(471,104,o),
(471,305,cs),
(471,530,o),
(350,658,o),
(131,634,c),
(153,560,l),
(284,557,o),
(295,430,o),
(295,247,cs),
(295,145,o),
(279,72,o),
(231,72,cs),
(210,72,o),
(193,161,o),
(193,207,cs),
(193,257,o),
(206,302,o),
(245,302,cs),
(263,302,o),
(314,278,o),
(336,262,c),
(334,341,l),
(306,359,o),
(198,392,o),
(189,392,cs),
(85,392,o),
(18,304,o),
(18,199,cs),
(18,168,o),
(28,122,o),
(40,93,c),
(59,64,o),
(203,-9,o),
(223,-9,cs)
);
},
{
closed = 1;
nodes = (
(477,554,l),
(475,582,l),
(435,615,l),
(175,481,l),
(178,452,l),
(221,421,l)
);
}
);
width = 493;
}
);
unicode = 240;
},
{
color = 4;
glyphname = e;
kernLeft = o;
kernRight = e;
layers = (
{
anchors = (
{
name = bottom;
pos = (222,0);
},
{
name = ogonek;
pos = (327,26);
},
{
name = top;
pos = (205,448);
}
);
background = {
shapes = (
{
closed = 1;
nodes = (
(223,-9,o),
(308,11,o),
(356,26,c),
(356,67,l),
(317,66,o),
(238,62,o),
(227,62,cs),
(199,62,o),
(134,89,o),
(134,221,c),
(370,241,l),
(370,427,o),
(310,461,o),
(212,461,cs),
(186,461,o),
(83,390,o),
(62,358,c),
(48,332,o),
(38,271,o),
(38,203,cs),
(38,56,o),
(122,-9,o),
(204,-9,cs)
);
},
{
closed = 1;
nodes = (
(136,321,o),
(148,391,o),
(166,399,cs),
(180,405,o),
(193,406,o),
(204,406,cs),
(255,406,o),
(273,356,o),
(273,280,c),
(136,262,l)
);
}
);
};
layerId = "555729A4-F539-4650-9C4F-3880CB033E7B";
shapes = (
{
closed = 1;
nodes = (
(223,-9,o),
(308,11,o),
(356,26,c),
(356,67,l),
(317,66,o),
(238,62,o),
(227,62,cs),
(199,62,o),
(134,89,o),
(134,221,c),
(370,241,l),
(370,427,o),
(310,461,o),
(212,461,cs),
(186,461,o),
(83,390,o),
(62,358,c),
(48,332,o),
(38,271,o),
(38,203,cs),
(38,56,o),
(122,-9,o),
(204,-9,cs)
);
},
{
closed = 1;
nodes = (
(136,321,o),
(148,386,o),
(166,394,cs),
(180,400,o),
(193,401,o),
(204,401,cs),
(255,401,o),
(273,356,o),
(273,280,c),
(136,262,l)
);
}
);
width = 405;
},
{
anchors = (
{
name = bottom;
pos = (240,0);
},
{
name = ogonek;
pos = (365,44);
},
{
name = top;
pos = (219,462);
}
);
layerId = "CB0A0A08-290D-4820-BDFF-3CAB47D8DECF";
shapes = (
{
closed = 1;
nodes = (
(251,-14,o),
(384,32,o),
(415,44,c),
(415,114,l),
(387,113,o),
(307,109,o),
(255,106,cs),
(216,106,o),
(197,154,o),
(197,201,c),
(432,221,l),
(432,416,o),
(364,476,o),
(242,476,cs),
(210,476,o),
(75,395,o),
(47,364,c),
(34,331,o),
(20,265,o),
(20,204,cs),
(20,74,o),
(91,-14,o),
(227,-14,cs)
);
},
{
closed = 1;
nodes = (
(200,352,o),
(212,402,o),
(219,402,cs),
(221,402,o),
(240,400,o),
(246,397,cs),
(260,388,o),
(270,342,o),
(270,288,c),
(196,277,l)
);
}
);
width = 447;
},
{
anchors = (
{
name = bottom;
pos = (221,0);
},
{
name = ogonek;
pos = (312,8);
},
{
name = top;
pos = (206,440);
}
);
background = {
shapes = (
{
closed = 1;
nodes = (
(242,-10,o),
(296,1,o),
(333,8,c),
(333,26,l),
(304,23,o),
(229,15,o),
(221,15,cs),
(138,15,o),
(83,61,o),
(83,213,c),
(350,238,l),
(348,394,o),
(300,450,o),
(209,450,cs),
(190,450,o),
(125,417,o),
(86,360,c),
(67,325,o),
(54,269,o),
(54,205,cs),
(54,69,o),
(103,-10,o),
(213,-10,cs)
);
},
{
closed = 1;
nodes = (
(88,323,o),
(113,363,o),
(148,392,cs),
(172,412,o),
(198,425,o),
(213,425,cs),
(289,425,o),
(317,358,o),
(320,260,c),
(84,238,l)
);
}
);
};
layerId = "4F39836F-1187-466E-8FAB-7EBF43C51BB4";
shapes = (
{
closed = 1;
nodes = (
(242,-10,o),
(296,1,o),
(333,8,c),
(333,26,l),
(304,23,o),
(229,15,o),
(221,15,cs),
(138,15,o),
(83,61,o),
(83,213,c),
(350,238,l),
(348,394,o),
(300,450,o),
(209,450,cs),
(190,450,o),
(125,419,o),
(86,360,c),
(67,325,o),
(54,269,o),
(54,205,cs),
(54,69,o),
(103,-10,o),
(213,-10,cs)
);
},
{
closed = 1;
nodes = (
(88,323,o),
(113,362,o),
(148,391,cs),
(172,411,o),
(198,425,o),
(213,425,cs),
(289,425,o),
(317,358,o),
(320,260,c),
(84,238,l)
);
}
);
width = 384;
}
);
unicode = 101;
},
{
color = 4;
glyphname = schwa;
kernLeft = o;
kernRight = o;
layers = (
{
layerId = "4F39836F-1187-466E-8FAB-7EBF43C51BB4";
shapes = (
{
closed = 1;
nodes = (
(214,-10,o),
(279,23,o),
(318,80,c),
(337,115,o),
(350,171,o),
(350,235,cs),
(350,371,o),
(301,450,o),
(191,450,cs),
(162,450,o),
(108,439,o),
(71,432,c),
(71,414,l),
(100,417,o),
(175,425,o),
(183,425,cs),
(266,425,o),
(321,379,o),
(321,227,c),
(54,202,l),
(56,46,o),
(104,-10,o),
(195,-10,cs)
);
},
{
closed = 1;
nodes = (
(115,15,o),
(87,82,o),
(84,180,c),
(320,202,l),
(316,117,o),
(291,77,o),
(256,48,cs),
(232,28,o),
(206,15,o),
(191,15,cs)
);
}
);
width = 404;
},
{
layerId = "555729A4-F539-4650-9C4F-3880CB033E7B";
shapes = (
{
closed = 1;
nodes = (
(222,-9,o),
(325,62,o),
(346,94,c),
(360,120,o),
(370,181,o),
(370,249,cs),
(370,396,o),
(286,461,o),
(204,461,cs),
(185,461,o),
(100,441,o),
(52,426,c),
(52,385,l),
(91,386,o),
(170,390,o),
(181,390,cs),
(209,390,o),
(274,363,o),
(274,231,c),
(38,211,l),
(38,25,o),
(98,-9,o),
(196,-9,cs)
);
},
{
closed = 1;
nodes = (
(153,46,o),
(135,96,o),
(135,172,c),
(272,190,l),
(272,131,o),
(260,61,o),
(242,53,cs),
(228,47,o),
(215,46,o),
(204,46,cs)
);
}
);
width = 408;
},
{
layerId = "CB0A0A08-290D-4820-BDFF-3CAB47D8DECF";
shapes = (
{
closed = 1;
nodes = (
(242,-14,o),
(377,67,o),
(405,98,c),
(418,131,o),
(432,197,o),
(432,258,cs),
(432,388,o),
(361,476,o),
(225,476,cs),
(201,476,o),
(68,430,o),
(37,418,c),
(37,348,l),
(65,349,o),
(145,353,o),
(197,356,cs),
(236,356,o),
(255,308,o),
(255,261,c),
(20,241,l),
(20,46,o),
(88,-14,o),
(210,-14,cs)
);
},
{
closed = 1;
nodes = (
(192,74,o),
(182,120,o),
(182,174,c),
(256,185,l),
(252,110,o),
(240,60,o),
(233,60,cs),
(231,60,o),
(212,62,o),
(206,65,cs)
);
}
);
width = 452;
}
);
metricLeft = o;
metricRight = o;
unicode = 601;
},
{
color = 4;
glyphname = f;
kernLeft = f;
kernRight = f;
layers = (
{
anchors = (
{
name = top;
pos = (162,640);
}
);
layerId = "555729A4-F539-4650-9C4F-3880CB033E7B";
shapes = (
{
closed = 1;
nodes = (
(110,-9,o),
(168,0,o),
(211,7,c),
(211,48,l),
(160,63,l),
(160,394,l),
(255,394,l),
(255,448,l),
(160,448,l),
(161,526,ls),
(161,554,o),
(171,582,o),
(180,582,cs),
(196,582,o),
(262,566,o),
(284,560,c),
(288,570,o),
(304,606,o),
(304,610,cs),
(304,617,o),
(291,634,o),
(282,640,c),
(255,643,o),
(204,646,o),
(194,646,cs),
(163,646,o),
(69,532,o),
(69,491,cs),
(69,453,l),
(22,434,l),
(22,395,l),
(69,395,l),
(69,24,ls),
(69,17,o),
(97,-9,o),
(103,-9,cs)
);
}
);
width = 261;
},
{
anchors = (
{
name = top;
pos = (203,640);
}
);
layerId = "CB0A0A08-290D-4820-BDFF-3CAB47D8DECF";
shapes = (
{
closed = 1;
nodes = (
(118,-13,o),
(218,4,o),
(290,16,c),
(290,76,l),
(226,100,l),
(226,375,l),
(335,375,l),
(335,462,l),
(226,462,l),
(226,528,ls),
(226,557,o),
(233,569,o),
(238,569,cs),
(252,569,o),
(333,529,o),
(352,520,c),
(355,520,o),
(389,602,o),
(389,609,cs),
(389,616,o),
(376,651,o),
(369,658,c),
(326,661,o),
(234,665,o),
(220,665,cs),
(175,665,o),
(53,548,o),
(53,506,cs),
(53,467,l),
(-5,448,l),
(-5,376,l),
(53,376,l),
(53,31,ls),
(53,24,o),
(98,-13,o),
(106,-13,cs)
);
}
);
width = 329;
},
{
anchors = (
{
name = top;
pos = (127,611);
}
);
layerId = "4F39836F-1187-466E-8FAB-7EBF43C51BB4";
shapes = (
{
closed = 1;
nodes = (
(95,-10,o),
(130,-3,o),
(155,2,c),
(155,19,l),
(97,19,l),
(97,415,l),
(192,415,l),
(192,440,l),
(97,440,l),
(97,515,ls),
(97,586,o),
(127,611,o),
(131,611,cs),
(149,611,o),
(201,605,o),
(235,600,c),
(239,607,o),
(245,617,o),
(245,619,cs),
(245,622,o),
(239,628,o),
(235,631,c),
(207,634,o),
(161,637,o),
(137,637,cs),
(98,637,o),
(68,580,o),
(68,513,cs),
(68,442,l),
(20,435,l),
(20,415,l),
(68,415,l),
(68,7,ls),
(68,3,o),
(85,-10,o),
(88,-10,cs)
);
}
);
width = 190;
}
);
unicode = 102;
},
{
color = 4;
glyphname = g;
kernLeft = o;
kernRight = g;
layers = (
{
anchors = (
{
name = top;
pos = (220,448);
}
);
background = {
shapes = (
{
closed = 1;
nodes = (
(271,-181,o),
(373,-87,o),
(373,-21,cs),
(373,434,l),
(348,438,o),
(224,457,o),
(208,457,cs),
(184,457,o),
(82,386,o),
(61,358,c),
(47,326,o),
(40,267,o),
(40,229,cs),
(40,100,o),
(107,30,o),
(158,30,c),
(34,-82,l),
(25,-155,l),
(64,-164,o),
(179,-181,o),
(230,-181,cs)
);
},
{
closed = 1;
nodes = (
(231,-135,o),
(124,-111,o),
(105,-103,c),
(105,-97,l),
(135,-69,o),
(236,28,o),
(280,67,c),
(285,65,l),
(285,15,ls),
(285,-51,o),
(275,-135,o),
(260,-135,cs)
);
},
{
closed = 1;
nodes = (
(188,76,o),
(135,109,o),
(135,228,cs),
(135,328,o),
(147,393,o),
(175,403,cs),
(190,408,o),
(253,390,o),
(282,380,c),
(282,120,l),
(282,120,o),
(219,76,o),
(209,76,cs)
);
}
);
};
layerId = "555729A4-F539-4650-9C4F-3880CB033E7B";
shapes = (
{
closed = 1;
nodes = (
(271,-181,o),
(373,-87,o),
(373,-21,cs),
(373,434,l),
(348,438,o),
(224,457,o),
(208,457,cs),
(184,457,o),
(82,386,o),
(61,358,c),
(47,326,o),
(40,267,o),
(40,229,cs),
(40,100,o),
(107,30,o),
(158,30,c),
(34,-82,l),
(25,-155,l),
(64,-164,o),
(179,-181,o),
(230,-181,cs)
);
},
{
closed = 1;
nodes = (
(231,-135,o),
(124,-111,o),
(105,-103,c),
(105,-97,l),
(135,-69,o),
(236,28,o),
(280,67,c),
(285,65,l),
(285,15,ls),
(285,-51,o),
(275,-135,o),
(260,-135,cs)
);
},
{
closed = 1;
nodes = (
(188,76,o),
(135,109,o),
(135,228,cs),
(135,328,o),
(147,388,o),
(175,398,cs),
(190,403,o),
(253,390,o),
(282,380,c),
(282,120,l),
(255,101,o),
(216,76,o),
(209,76,cs)
);
}
);
width = 428;
},
{
anchors = (
{
name = top;
pos = (241,462);
}
);
background = {
shapes = (
{
closed = 1;
nodes = (
(280,-186,o),
(434,-89,o),
(434,-22,cs),
(434,436,l),
(434,436,o),
(237,477,o),
(221,477,cs),
(193,477,o),
(72,396,o),
(46,365,c),
(33,336,o),
(19,278,o),
(19,225,cs),
(19,133,o),
(61,66,o),
(141,44,c),
(19,-65,l),
(10,-156,l),
(49,-167,o),
(166,-186,o),
(215,-186,cs)
);
},
{
closed = 1;
nodes = (
(229,-112,o),
(165,-92,o),
(154,-85,c),
(154,-77,l),
(171,-58,o),
(236,11,o),
(265,42,c),
(271,39,l),
(271,-6,ls),
(271,-54,o),
(261,-112,o),
(245,-112,cs)
);
},
{
closed = 1;
nodes = (
(209,131,o),
(199,188,o),
(199,240,cs),
(199,334,o),
(212,403,o),
(221,403,cs),
(228,403,o),
(266,364,o),
(266,364,c),
(266,154,l),
(266,154,o),
(238,131,o),
(232,131,cs)
);
}
);
};
layerId = "CB0A0A08-290D-4820-BDFF-3CAB47D8DECF";
shapes = (
{
closed = 1;
nodes = (
(280,-186,o),
(434,-89,o),
(434,-22,cs),
(434,436,l),
(349,454,o),
(233,477,o),
(221,477,cs),
(193,477,o),
(72,396,o),
(46,365,c),
(33,336,o),
(19,278,o),
(19,225,cs),
(19,133,o),
(61,66,o),
(141,44,c),
(19,-65,l),
(10,-156,l),
(49,-167,o),
(166,-186,o),
(215,-186,cs)
);
},
{
closed = 1;
nodes = (
(229,-112,o),
(165,-92,o),
(154,-85,c),
(154,-77,l),
(171,-58,o),
(236,11,o),
(265,42,c),
(271,39,l),
(271,-6,ls),
(271,-54,o),
(261,-112,o),
(245,-112,cs)
);
},
{
closed = 1;
nodes = (
(209,131,o),
(199,186,o),
(199,250,cs),
(199,339,o),
(207,393,o),
(221,401,cs),
(226,404,o),
(250,382,o),
(266,364,c),
(266,154,l),
(254,144,o),
(236,131,o),
(232,131,cs)
);
}
);
width = 469;
},
{
anchors = (
{
name = top;
pos = (215,440);
}
);
background = {
shapes = (
{
closed = 1;
nodes = (
(304,-175,o),
(331,-110,o),
(331,-52,cs),
(331,434,l),
(287,441,o),
(224,450,o),
(203,450,cs),
(182,450,o),
(121,420,o),
(83,361,c),
(67,326,o),
(54,285,o),
(54,212,cs),
(54,120,o),
(86,33,o),
(191,26,c),
(47,-110,l),
(44,-139,l),
(88,-152,o),
(181,-175,o),
(262,-175,cs)
);
},
{
closed = 1;
nodes = (
(189,-151,o),
(98,-129,o),
(74,-122,c),
(74,-119,l),
(110,-83,o),
(247,46,o),
(300,95,c),
(302,93,l),
(302,-46,ls),
(302,-124,o),
(267,-151,o),
(265,-151,cs)
);
},
{
closed = 1;
nodes = (
(144,51,o),
(83,77,o),
(83,219,cs),
(83,367,o),
(149,404,o),
(185,419,cs),
(209,429,o),
(246,422,o),
(302,411,c),
(302,130,l),
(302,130,o),
(218,51,o),
(209,51,cs)
);
}
);
};
layerId = "4F39836F-1187-466E-8FAB-7EBF43C51BB4";
shapes = (
{
closed = 1;
nodes = (
(304,-175,o),
(331,-110,o),
(331,-52,cs),
(331,434,l),
(287,441,o),
(224,450,o),
(203,450,cs),
(182,450,o),
(121,422,o),
(83,361,c),
(67,326,o),
(54,285,o),
(54,212,cs),
(54,120,o),
(86,33,o),
(191,26,c),
(47,-110,l),
(44,-139,l),
(88,-152,o),
(181,-175,o),
(262,-175,cs)
);
},
{
closed = 1;
nodes = (
(189,-151,o),
(98,-129,o),
(74,-122,c),
(74,-119,l),
(110,-83,o),
(247,46,o),
(300,95,c),
(302,93,l),
(302,-46,ls),
(302,-124,o),
(267,-151,o),
(265,-151,cs)
);
},
{
closed = 1;
nodes = (
(144,51,o),
(83,77,o),
(83,219,cs),
(83,367,o),
(149,403,o),
(185,418,cs),
(209,428,o),
(246,422,o),
(302,411,c),
(302,130,l),
(266,96,o),
(216,51,o),
(209,51,cs)
);
}
);
width = 387;
}
);
unicode = 103;
},
{
color = 4;
glyphname = h;
kernLeft = l;
kernRight = n;
layers = (
{
anchors = (
{
name = bottom;
pos = (245,0);
},
{
name = center;
pos = (153,516);
},
{
name = top;
pos = (104,603);
}
);
layerId = "555729A4-F539-4650-9C4F-3880CB033E7B";
shapes = (
{
closed = 1;
nodes = (
(109,-9,o),
(158,0,o),
(194,7,c),
(194,44,l),
(160,59,l),
(160,344,l),
(178,352,o),
(246,382,o),
(255,382,cs),
(270,382,o),
(313,384,o),
(313,288,cs),
(313,24,ls),
(313,17,o),
(341,-9,o),
(347,-9,cs),
(354,-9,o),
(403,0,o),
(439,7,c),
(439,44,l),
(404,59,l),
(404,288,ls),
(404,418,o),
(351,456,o),
(260,456,cs),
(256,456,o),
(195,412,o),
(160,386,c),
(155,387,l),
(160,613,ls),
(160,620,o),
(131,646,o),
(125,646,cs),
(118,646,o),
(69,637,o),
(34,630,c),
(34,593,l),
(69,579,l),
(69,24,ls),
(69,17,o),
(96,-9,o),
(102,-9,cs)
);
}
);
width = 474;
},
{
anchors = (
{
name = bottom;
pos = (270,0);
},
{
name = center;
pos = (172,520);
},
{
name = top;
pos = (111,640);
}
);
layerId = "CB0A0A08-290D-4820-BDFF-3CAB47D8DECF";
shapes = (
{
closed = 1;
nodes = (
(104,-13,o),
(193,1,o),
(256,12,c),
(256,80,l),
(213,95,l),
(213,341,l),
(227,348,o),
(251,360,o),
(257,360,cs),
(266,360,o),
(285,355,o),
(285,331,cs),
(285,31,ls),
(285,22,o),
(329,-13,o),
(338,-13,cs),
(349,-13,o),
(437,1,o),
(501,12,c),
(501,80,l),
(458,95,l),
(458,333,ls),
(458,443,o),
(399,476,o),
(298,476,cs),
(290,476,o),
(242,441,o),
(212,417,c),
(204,419,l),
(213,622,ls),
(213,630,o),
(180,665,o),
(173,665,cs),
(160,665,o),
(64,652,o),
(-4,642,c),
(-4,573,l),
(40,558,l),
(40,31,ls),
(40,22,o),
(83,-13,o),
(92,-13,cs)
);
}
);
width = 509;
},
{
anchors = (
{
name = bottom;
pos = (248,0);
},
{
name = center;
pos = (130,525);
},
{
name = top;
pos = (93,601);
}
);
layerId = "4F39836F-1187-466E-8FAB-7EBF43C51BB4";
shapes = (
{
closed = 1;
nodes = (
(116,-10,o),
(151,-3,o),
(176,2,c),
(176,19,l),
(118,19,l),
(118,342,l),
(155,372,o),
(221,423,o),
(226,423,cs),
(285,423,o),
(339,413,o),
(339,290,cs),
(339,7,ls),
(339,3,o),
(354,-10,o),
(359,-10,cs),
(366,-10,o),
(401,-3,o),
(426,2,c),
(426,19,l),
(368,19,l),
(368,276,ls),
(368,411,o),
(331,450,o),
(220,450,cs),
(215,450,o),
(148,397,o),
(118,373,c),
(116,374,l),
(118,620,ls),
(118,624,o),
(101,637,o),
(98,637,cs),
(91,637,o),
(56,630,o),
(31,625,c),
(31,608,l),
(89,608,l),
(89,7,ls),
(89,3,o),
(106,-10,o),
(109,-10,cs)
);
}
);
width = 454;
}
);
unicode = 104;
},
{
color = 4;
glyphname = idotless;
kernLeft = i;
kernRight = i;
layers = (
{
anchors = (
{
name = bottom;
pos = (108,0);
},
{
name = top;
pos = (97,440);
}
);
layerId = "4F39836F-1187-466E-8FAB-7EBF43C51BB4";
shapes = (
{
closed = 1;
nodes = (
(116,-10,o),
(151,-3,o),
(176,2,c),
(176,19,l),
(118,19,l),
(118,433,ls),
(118,437,o),
(101,450,o),
(98,450,cs),
(91,450,o),
(56,443,o),
(31,438,c),
(31,421,l),
(89,421,l),
(89,7,ls),
(89,3,o),
(106,-10,o),
(109,-10,cs)
);
}
);
width = 212;
},
{
anchors = (
{
name = bottom;
pos = (116,0);
},
{
name = top;
pos = (108,448);
}
);
layerId = "555729A4-F539-4650-9C4F-3880CB033E7B";
shapes = (
{
closed = 1;
nodes = (
(116,-9,o),
(161,0,o),
(194,7,c),
(194,44,l),
(159,54,l),
(159,419,ls),
(159,428,o),
(127,456,o),
(119,456,cs),
(112,456,o),
(67,447,o),
(34,441,c),
(34,404,l),
(69,393,l),
(69,28,ls),
(69,21,o),
(102,-9,o),
(109,-9,cs)
);
}
);
width = 228;
},
{
anchors = (
{
name = bottom;
pos = (149,0);
},
{
name = top;
pos = (128,462);
}
);
layerId = "CB0A0A08-290D-4820-BDFF-3CAB47D8DECF";
shapes = (
{
closed = 1;
nodes = (
(118,-13,o),
(207,1,o),
(270,12,c),
(270,80,l),
(227,95,l),
(227,433,ls),
(227,441,o),
(194,476,o),
(187,476,cs),
(174,476,o),
(78,463,o),
(10,453,c),
(10,384,l),
(54,369,l),
(54,31,ls),
(54,22,o),
(97,-13,o),
(106,-13,cs)
);
}
);
width = 280;
}
);
unicode = 305;
},
{
color = 4;
glyphname = j;
kernLeft = j;
kernRight = j;
layers = (
{
layerId = "555729A4-F539-4650-9C4F-3880CB033E7B";
shapes = (
{
closed = 1;
nodes = (
(69,-181,o),
(159,-84,o),
(159,-22,cs),
(159,419,ls),
(159,428,o),
(126,456,o),
(119,456,cs),
(112,456,o),
(59,447,o),
(21,441,c),
(21,402,l),
(69,392,l),
(69,13,ls),
(69,-22,o),
(67,-89,o),
(44,-102,c),
(36,-108,o),
(-38,-112,o),
(-57,-113,c),
(-57,-152,l),
(-22,-164,o),
(24,-181,o),
(38,-181,cs)
);
},
{
closed = 1;
nodes = (
(155,537,l),
(160,624,l),
(145,646,l),
(68,641,l),
(75,537,l)
);
}
);
width = 219;
},
{
layerId = "CB0A0A08-290D-4820-BDFF-3CAB47D8DECF";
shapes = (
{
closed = 1;
nodes = (
(125,-186,o),
(229,-87,o),
(229,-23,cs),
(229,433,ls),
(229,441,o),
(196,476,o),
(189,476,cs),
(176,476,o),
(80,463,o),
(12,453,c),
(12,384,l),
(56,369,l),
(56,12,ls),
(56,-14,o),
(53,-63,o),
(35,-73,cs),
(28,-78,o),
(-46,-84,o),
(-65,-84,c),
(-65,-166,l),
(-8,-176,o),
(63,-186,o),
(88,-186,cs)
);
},
{
closed = 1;
nodes = (
(219,530,l),
(230,634,l),
(204,664,l),
(55,657,l),
(67,530,l)
);
}
);
width = 265;
},
{
layerId = "4F39836F-1187-466E-8FAB-7EBF43C51BB4";
shapes = (
{
closed = 1;
nodes = (
(73,-175,o),
(108,-118,o),
(108,-51,cs),
(108,433,ls),
(108,437,o),
(91,450,o),
(88,450,cs),
(81,450,o),
(46,443,o),
(21,438,c),
(21,421,l),
(79,421,l),
(79,-53,ls),
(79,-116,o),
(48,-149,o),
(41,-149,cs),
(32,-149,o),
(-14,-149,o),
(-27,-149,c),
(-27,-166,l),
(-9,-169,o),
(28,-175,o),
(39,-175,cs)
);
},
{
closed = 1;
nodes = (
(105,551,l),
(111,607,l),
(103,617,l),
(75,614,l),
(81,551,l)
);
}
);
width = 165;
}
);
unicode = 106;
},
{
color = 4;
glyphname = jdotless;
kernLeft = j;
kernRight = j;
layers = (
{
anchors = (
{
name = top;
pos = (84,440);
}
);
layerId = "4F39836F-1187-466E-8FAB-7EBF43C51BB4";
shapes = (
{
closed = 1;
nodes = (
(73,-175,o),
(108,-118,o),
(108,-51,cs),
(108,433,ls),
(108,437,o),
(91,450,o),
(88,450,cs),
(81,450,o),
(46,443,o),
(21,438,c),
(21,421,l),
(79,421,l),
(79,-53,ls),
(79,-116,o),
(48,-149,o),
(41,-149,cs),
(32,-149,o),
(-14,-149,o),
(-27,-149,c),
(-27,-166,l),
(-9,-169,o),
(28,-175,o),
(39,-175,cs)
);
}
);
width = 162;
},
{
anchors = (
{
name = top;
pos = (108,448);
}
);
layerId = "555729A4-F539-4650-9C4F-3880CB033E7B";
shapes = (
{
closed = 1;
nodes = (
(69,-181,o),
(159,-84,o),
(159,-22,cs),
(159,419,ls),
(159,428,o),
(126,456,o),
(119,456,cs),
(112,456,o),
(59,447,o),
(21,441,c),
(21,402,l),
(69,392,l),
(69,13,ls),
(69,-22,o),
(67,-89,o),
(44,-102,c),
(36,-108,o),
(-38,-112,o),
(-57,-113,c),
(-57,-152,l),
(-22,-164,o),
(24,-181,o),
(38,-181,cs)
);
}
);
width = 218;
},
{
anchors = (
{
name = top;
pos = (133,462);
}
);
layerId = "CB0A0A08-290D-4820-BDFF-3CAB47D8DECF";
shapes = (
{
closed = 1;
nodes = (
(125,-186,o),
(229,-87,o),
(229,-23,cs),
(229,433,ls),
(229,441,o),
(196,476,o),
(189,476,cs),
(176,476,o),
(80,463,o),
(12,453,c),
(12,384,l),
(56,369,l),
(56,12,ls),
(56,-14,o),
(53,-63,o),
(35,-73,cs),
(28,-78,o),
(-46,-84,o),
(-65,-84,c),
(-65,-166,l),
(-8,-176,o),
(63,-186,o),
(88,-186,cs)
);
}
);
width = 265;
}
);
unicode = 567;
},
{
color = 4;
glyphname = k;
kernLeft = l;
kernRight = k;
layers = (
{
anchors = (
{
name = bottom;
pos = (240,0);
}
);
layerId = "555729A4-F539-4650-9C4F-3880CB033E7B";
shapes = (
{
closed = 1;
nodes = (
(360,-9,o),
(404,0,o),
(436,7,c),
(436,44,l),
(396,60,l),
(252,254,l),
(399,408,l),
(399,419,o),
(387,455,o),
(381,455,cs),
(251,448,l),
(251,400,l),
(295,394,l),
(179,262,l),
(179,221,l),
(315,23,ls),
(321,15,o),
(348,-9,o),
(354,-9,cs)
);
},
{
closed = 1;
nodes = (
(110,-9,o),
(159,0,o),
(194,7,c),
(194,44,l),
(160,59,l),
(160,613,ls),
(160,620,o),
(133,646,o),
(127,646,cs),
(120,646,o),
(70,637,o),
(34,630,c),
(34,593,l),
(70,579,l),
(70,24,ls),
(70,17,o),
(97,-9,o),
(103,-9,cs)
);
}
);
width = 438;
},
{
anchors = (
{
name = bottom;
pos = (251,0);
}
);
layerId = "CB0A0A08-290D-4820-BDFF-3CAB47D8DECF";
shapes = (
{
closed = 1;
nodes = (
(367,-13,o),
(448,1,o),
(507,12,c),
(507,80,l),
(464,95,l),
(368,258,l),
(499,405,l),
(499,416,o),
(480,473,o),
(472,473,cs),
(261,462,l),
(261,388,l),
(332,378,l),
(230,263,l),
(230,202,l),
(311,17,l),
(317,8,o),
(352,-13,o),
(360,-13,cs)
);
},
{
closed = 1;
nodes = (
(104,-13,o),
(191,1,o),
(252,12,c),
(252,80,l),
(213,95,l),
(213,622,ls),
(213,630,o),
(180,665,o),
(173,665,cs),
(160,665,o),
(64,652,o),
(-4,642,c),
(-4,573,l),
(40,558,l),
(40,31,ls),
(40,22,o),
(83,-13,o),
(92,-13,cs)
);
}
);
width = 511;
},
{
anchors = (
{
name = bottom;
pos = (227,0);
}
);
layerId = "4F39836F-1187-466E-8FAB-7EBF43C51BB4";
shapes = (
{
closed = 1;
nodes = (
(363,-10,o),
(394,-3,o),
(416,2,c),
(416,19,l),
(356,19,l),
(190,239,l),
(388,427,l),
(388,430,o),
(380,450,o),
(376,450,cs),
(276,442,l),
(276,422,l),
(346,422,l),
(157,243,l),
(157,236,l),
(329,7,ls),
(335,-1,o),
(352,-10,o),
(358,-10,cs)
);
},
{
closed = 1;
nodes = (
(116,-10,o),
(151,-3,o),
(176,2,c),
(176,19,l),
(118,19,l),
(118,620,ls),
(118,624,o),
(101,637,o),
(98,637,cs),
(91,637,o),
(56,630,o),
(31,625,c),
(31,608,l),
(89,608,l),
(89,7,ls),
(89,3,o),
(106,-10,o),
(109,-10,cs)
);
}
);
width = 440;
}
);
unicode = 107;
},
{
color = 4;
glyphname = kgreenlandic;
kernLeft = n;
kernRight = k;
layers = (
{
layerId = "4F39836F-1187-466E-8FAB-7EBF43C51BB4";
shapes = (
{
closed = 1;
nodes = (
(363,-10,o),
(394,-3,o),
(416,2,c),
(416,19,l),
(356,19,l),
(185,212,l),
(388,427,l),
(388,430,o),
(380,450,o),
(376,450,cs),
(276,442,l),
(276,422,l),
(348,422,l),
(157,213,l),
(157,206,l),
(329,7,ls),
(336,-1,o),
(352,-10,o),
(358,-10,cs)
);
},
{
closed = 1;
nodes = (
(116,-10,o),
(151,-3,o),
(176,2,c),
(176,19,l),
(118,19,l),
(118,433,ls),
(118,437,o),
(101,450,o),
(98,450,cs),
(91,450,o),
(56,443,o),
(31,438,c),
(31,421,l),
(89,421,l),
(89,7,ls),
(89,3,o),
(106,-10,o),
(109,-10,cs)
);
}
);
width = 446;
},
{
layerId = "555729A4-F539-4650-9C4F-3880CB033E7B";
shapes = (
{
closed = 1;
nodes = (
(360,-9,o),
(404,0,o),
(436,7,c),
(436,44,l),
(396,60,l),
(250,224,l),
(399,408,l),
(399,419,o),
(387,455,o),
(381,455,cs),
(251,448,l),
(251,400,l),
(301,394,l),
(179,232,l),
(179,191,l),
(315,23,ls),
(321,15,o),
(348,-9,o),
(354,-9,cs)
);
},
{
closed = 1;
nodes = (
(110,-9,o),
(159,0,o),
(194,7,c),
(194,44,l),
(160,59,l),
(160,422,ls),
(160,429,o),
(133,455,o),
(127,455,cs),
(120,455,o),
(70,446,o),
(34,439,c),
(34,402,l),
(70,388,l),
(70,24,ls),
(70,17,o),
(97,-9,o),
(103,-9,cs)
);
}
);
width = 438;
},
{
layerId = "CB0A0A08-290D-4820-BDFF-3CAB47D8DECF";
shapes = (
{
closed = 1;
nodes = (
(381,-13,o),
(462,1,o),
(521,12,c),
(521,80,l),
(478,95,l),
(382,242,l),
(513,405,l),
(513,416,o),
(494,473,o),
(486,473,cs),
(275,462,l),
(275,388,l),
(348,378,l),
(244,247,l),
(244,186,l),
(325,17,l),
(331,8,o),
(366,-13,o),
(374,-13,cs)
);
},
{
closed = 1;
nodes = (
(118,-13,o),
(205,1,o),
(266,12,c),
(266,80,l),
(227,95,l),
(227,433,ls),
(227,441,o),
(194,476,o),
(187,476,cs),
(174,476,o),
(78,463,o),
(10,453,c),
(10,384,l),
(54,369,l),
(54,31,ls),
(54,22,o),
(97,-13,o),
(106,-13,cs)
);
}
);
width = 525;
}
);
metricLeft = n;
unicode = 312;
},
{
color = 4;
glyphname = l;
kernLeft = l;
kernRight = l;
layers = (
{
anchors = (
{
name = bottom;
pos = (118,0);
},
{
name = center;
pos = (114,318);
},
{
name = top;
pos = (113,613);
},
{
name = topright;
pos = (205,448);
}
);
layerId = "555729A4-F539-4650-9C4F-3880CB033E7B";
shapes = (
{
closed = 1;
nodes = (
(110,-9,o),
(159,0,o),
(194,7,c),
(194,44,l),
(160,59,l),
(160,613,ls),
(160,620,o),
(133,646,o),
(127,646,cs),
(120,646,o),
(70,637,o),
(34,630,c),
(34,593,l),
(70,579,l),
(70,24,ls),
(70,17,o),
(97,-9,o),
(103,-9,cs)
);
}
);
width = 229;
},
{
anchors = (
{
name = bottom;
pos = (134,0);
},
{
name = center;
pos = (134,329);
},
{
name = top;
pos = (130,642);
},
{
name = topright;
pos = (245,462);
}
);
layerId = "CB0A0A08-290D-4820-BDFF-3CAB47D8DECF";
shapes = (
{
closed = 1;
nodes = (
(104,-13,o),
(193,1,o),
(256,12,c),
(256,80,l),
(213,95,l),
(213,622,ls),
(213,630,o),
(180,665,o),
(173,665,cs),
(160,665,o),
(64,652,o),
(-4,642,c),
(-4,573,l),
(40,558,l),
(40,31,ls),
(40,22,o),
(83,-13,o),
(92,-13,cs)
);
}
);
width = 264;
},
{
anchors = (
{
name = bottom;
pos = (109,0);
},
{
name = center;
pos = (103,338);
},
{
name = top;
pos = (104,591);
},
{
name = topright;
pos = (190,440);
}
);
layerId = "4F39836F-1187-466E-8FAB-7EBF43C51BB4";
shapes = (
{
closed = 1;
nodes = (
(116,-10,o),
(151,-3,o),
(176,2,c),
(176,19,l),
(118,19,l),
(118,620,ls),
(118,624,o),
(101,637,o),
(98,637,cs),
(91,637,o),
(56,630,o),
(31,625,c),
(31,608,l),
(89,608,l),
(89,7,ls),
(89,3,o),
(106,-10,o),
(109,-10,cs)
);
}
);
width = 212;
}
);
unicode = 108;
},
{
color = 4;
glyphname = m;
kernLeft = n;
kernRight = n;
layers = (
{
layerId = "555729A4-F539-4650-9C4F-3880CB033E7B";
shapes = (
{
closed = 1;
nodes = (
(110,-9,o),
(159,0,o),
(194,7,c),
(194,44,l),
(160,59,l),
(160,344,l),
(191,360,o),
(234,382,o),
(241,382,cs),
(255,382,o),
(299,384,o),
(299,288,cs),
(299,24,ls),
(299,17,o),
(328,-9,o),
(334,-9,cs),
(340,-9,o),
(389,0,o),
(424,7,c),
(424,44,l),
(390,59,l),
(390,344,l),
(419,360,o),
(459,382,o),
(466,382,cs),
(481,382,o),
(529,384,o),
(529,288,cs),
(529,24,ls),
(529,17,o),
(558,-9,o),
(564,-9,cs),
(570,-9,o),
(619,0,o),
(654,7,c),
(654,44,l),
(620,59,l),
(620,288,ls),
(620,418,o),
(560,456,o),
(461,456,cs),
(457,456,o),
(406,412,o),
(378,386,c),
(357,439,o),
(309,456,o),
(246,456,cs),
(242,456,o),
(187,412,o),
(157,386,c),
(157,424,ls),
(157,430,o),
(131,456,o),
(125,456,cs),
(118,456,o),
(69,447,o),
(34,441,c),
(34,404,l),
(69,389,l),
(69,24,ls),
(69,17,o),
(97,-9,o),
(103,-9,cs)
);
}
);
width = 689;
},
{
layerId = "CB0A0A08-290D-4820-BDFF-3CAB47D8DECF";
shapes = (
{
closed = 1;
nodes = (
(118,-13,o),
(204,1,o),
(265,12,c),
(265,80,l),
(227,95,l),
(227,340,l),
(241,348,o),
(260,359,o),
(263,359,cs),
(272,359,o),
(291,355,o),
(291,330,cs),
(291,31,ls),
(291,22,o),
(335,-13,o),
(344,-13,cs),
(355,-13,o),
(441,1,o),
(502,12,c),
(502,80,l),
(464,95,l),
(464,340,l),
(478,348,o),
(497,359,o),
(500,359,cs),
(509,359,o),
(528,355,o),
(528,330,cs),
(528,31,ls),
(528,22,o),
(572,-13,o),
(581,-13,cs),
(592,-13,o),
(680,1,o),
(744,12,c),
(744,80,l),
(701,95,l),
(701,332,ls),
(701,442,o),
(642,475,o),
(529,475,cs),
(521,475,o),
(477,437,o),
(449,413,c),
(425,458,o),
(373,475,o),
(304,475,cs),
(296,475,o),
(248,437,o),
(220,413,c),
(220,432,ls),
(220,440,o),
(187,475,o),
(180,475,cs),
(167,475,o),
(75,462,o),
(10,452,c),
(10,383,l),
(54,368,l),
(54,31,ls),
(54,22,o),
(97,-13,o),
(106,-13,cs)
);
}
);
width = 752;
},
{
layerId = "4F39836F-1187-466E-8FAB-7EBF43C51BB4";
shapes = (
{
closed = 1;
nodes = (
(116,-11,o),
(151,-4,o),
(176,1,c),
(176,18,l),
(118,18,l),
(118,342,l),
(159,377,o),
(216,423,o),
(224,423,cs),
(279,423,o),
(327,415,o),
(327,310,cs),
(327,6,ls),
(327,2,o),
(341,-11,o),
(347,-11,cs),
(354,-11,o),
(389,-4,o),
(414,1,c),
(414,18,l),
(356,18,l),
(356,342,l),
(397,377,o),
(454,423,o),
(462,423,cs),
(516,423,o),
(565,413,o),
(565,290,cs),
(565,6,ls),
(565,2,o),
(579,-11,o),
(585,-11,cs),
(592,-11,o),
(627,-4,o),
(652,1,c),
(652,18,l),
(594,18,l),
(594,276,ls),
(594,411,o),
(558,450,o),
(452,450,cs),
(447,450,o),
(376,392,o),
(352,371,c),
(336,425,o),
(294,450,o),
(218,450,cs),
(213,450,o),
(141,394,o),
(116,371,c),
(118,433,ls),
(118,437,o),
(101,450,o),
(98,450,cs),
(91,450,o),
(56,443,o),
(31,438,c),
(31,421,l),
(89,421,l),
(89,6,ls),
(89,2,o),
(106,-11,o),
(109,-11,cs)
);
}
);
width = 680;
}
);
unicode = 109;
},
{
color = 4;
glyphname = n;
kernLeft = n;
kernRight = n;
layers = (
{
anchors = (
{
name = bottom;
pos = (246,0);
},
{
name = top;
pos = (233,448);
},
{
name = topleft;
pos = (-20,448);
}
);
layerId = "555729A4-F539-4650-9C4F-3880CB033E7B";
shapes = (
{
closed = 1;
nodes = (
(110,-9,o),
(159,0,o),
(194,7,c),
(194,44,l),
(160,59,l),
(160,344,l),
(198,361,o),
(243,382,o),
(255,382,cs),
(269,382,o),
(313,384,o),
(313,288,cs),
(313,24,ls),
(313,17,o),
(342,-9,o),
(348,-9,cs),
(354,-9,o),
(403,0,o),
(439,7,c),
(439,44,l),
(404,59,l),
(404,288,ls),
(404,418,o),
(350,456,o),
(260,456,cs),
(254,456,o),
(192,412,o),
(157,386,c),
(157,424,ls),
(157,430,o),
(131,456,o),
(125,456,cs),
(118,456,o),
(69,447,o),
(34,441,c),
(34,404,l),
(69,389,l),
(69,24,ls),
(69,17,o),
(97,-9,o),
(103,-9,cs)
);
}
);
width = 474;
},
{
anchors = (
{
name = bottom;
pos = (276,0);
},
{
name = top;
pos = (256,462);
},
{
name = topleft;
pos = (-47,462);
}
);
layerId = "CB0A0A08-290D-4820-BDFF-3CAB47D8DECF";
shapes = (
{
closed = 1;
nodes = (
(118,-13,o),
(207,1,o),
(270,12,c),
(270,80,l),
(227,95,l),
(227,341,l),
(246,350,o),
(268,360,o),
(271,360,cs),
(280,360,o),
(299,356,o),
(299,331,cs),
(299,31,ls),
(299,22,o),
(343,-13,o),
(352,-13,cs),
(363,-13,o),
(451,1,o),
(515,12,c),
(515,80,l),
(472,95,l),
(472,333,ls),
(472,443,o),
(413,476,o),
(312,476,cs),
(304,476,o),
(250,438,o),
(220,414,c),
(220,433,ls),
(220,441,o),
(187,476,o),
(180,476,cs),
(167,476,o),
(75,463,o),
(10,453,c),
(10,384,l),
(54,369,l),
(54,31,ls),
(54,22,o),
(97,-13,o),
(106,-13,cs)
);
}
);
width = 523;
},
{
anchors = (
{
name = bottom;
pos = (245,0);
},
{
name = top;
pos = (225,440);
},
{
name = topleft;
pos = (-19,448);
}
);
background = {
shapes = (
{
closed = 1;
nodes = (
(118,-10,o),
(176,2,o),
(176,2,c),
(176,19,l),
(118,19,l),
(118,342,l),
(118,342,o),
(215,423,o),
(226,423,cs),
(285,423,o),
(339,413,o),
(339,290,cs),
(339,7,ls),
(339,3,o),
(354,-10,o),
(359,-10,cs),
(368,-10,o),
(426,2,o),
(426,2,c),
(426,19,l),
(368,19,l),
(368,276,ls),
(368,411,o),
(331,450,o),
(220,450,cs),
(215,450,o),
(141,394,o),
(116,371,c),
(118,433,ls),
(118,437,o),
(101,450,o),
(98,450,cs),
(89,450,o),
(31,438,o),
(31,438,c),
(31,421,l),
(89,421,l),
(89,7,ls),
(89,3,o),
(106,-10,o),
(109,-10,cs)
);
}
);
};
layerId = "4F39836F-1187-466E-8FAB-7EBF43C51BB4";
shapes = (
{
closed = 1;
nodes = (
(116,-10,o),
(151,-3,o),
(176,2,c),
(176,19,l),
(118,19,l),
(118,342,l),
(158,376,o),
(218,423,o),
(226,423,cs),
(285,423,o),
(339,413,o),
(339,290,cs),
(339,7,ls),
(339,3,o),
(354,-10,o),
(359,-10,cs),
(366,-10,o),
(401,-3,o),
(426,2,c),
(426,19,l),
(368,19,l),
(368,276,ls),
(368,411,o),
(331,450,o),
(220,450,cs),
(213,450,o),
(145,394,o),
(116,371,c),
(118,433,ls),
(118,437,o),
(101,450,o),
(98,450,cs),
(91,450,o),
(56,443,o),
(31,438,c),
(31,421,l),
(89,421,l),
(89,7,ls),
(89,3,o),
(106,-10,o),
(109,-10,cs)
);
}
);
width = 454;
}
);
unicode = 110;
},
{
color = 4;
glyphname = nhookleft;
kernLeft = j;
kernRight = n;
layers = (
{
layerId = "4F39836F-1187-466E-8FAB-7EBF43C51BB4";
shapes = (
{
closed = 1;
nodes = (
(64,-175,o),
(108,-118,o),
(108,-61,cs),
(108,342,l),
(150,377,o),
(208,423,o),
(216,423,cs),
(275,423,o),
(329,413,o),
(329,290,cs),
(329,7,ls),
(329,3,o),
(344,-10,o),
(349,-10,cs),
(356,-10,o),
(391,-3,o),
(416,2,c),
(416,19,l),
(358,19,l),
(358,276,ls),
(358,411,o),
(321,450,o),
(210,450,cs),
(205,450,o),
(131,394,o),
(106,371,c),
(108,433,ls),
(108,437,o),
(91,450,o),
(88,450,cs),
(81,450,o),
(46,443,o),
(21,438,c),
(21,421,l),
(79,421,l),
(79,-53,ls),
(79,-116,o),
(50,-146,o),
(43,-147,cs),
(20,-150,o),
(-4,-149,o),
(-27,-149,c),
(-27,-166,l),
(-9,-169,o),
(28,-175,o),
(39,-175,cs)
);
}
);
width = 444;
},
{
layerId = "555729A4-F539-4650-9C4F-3880CB033E7B";
shapes = (
{
closed = 1;
nodes = (
(69,-181,o),
(160,-84,o),
(160,-22,cs),
(160,344,l),
(198,361,o),
(243,382,o),
(255,382,cs),
(269,382,o),
(313,384,o),
(313,288,cs),
(313,24,ls),
(313,17,o),
(342,-9,o),
(348,-9,cs),
(354,-9,o),
(403,0,o),
(439,7,c),
(439,44,l),
(404,59,l),
(404,288,ls),
(404,418,o),
(350,456,o),
(260,456,cs),
(254,456,o),
(192,412,o),
(157,386,c),
(157,424,ls),
(157,430,o),
(131,456,o),
(125,456,cs),
(118,456,o),
(69,447,o),
(34,441,c),
(34,404,l),
(69,389,l),
(69,13,ls),
(69,-22,o),
(65,-86,o),
(44,-102,cs),
(36,-108,o),
(-38,-112,o),
(-57,-113,c),
(-57,-152,l),
(-22,-164,o),
(24,-181,o),
(38,-181,cs)
);
}
);
width = 474;
},
{
layerId = "CB0A0A08-290D-4820-BDFF-3CAB47D8DECF";
shapes = (
{
closed = 1;
nodes = (
(125,-186,o),
(229,-87,o),
(229,-23,cs),
(229,341,l),
(248,350,o),
(270,360,o),
(273,360,cs),
(282,360,o),
(301,356,o),
(301,331,cs),
(301,31,ls),
(301,22,o),
(345,-13,o),
(354,-13,cs),
(365,-13,o),
(453,1,o),
(517,12,c),
(517,80,l),
(474,95,l),
(474,333,ls),
(474,443,o),
(415,476,o),
(314,476,cs),
(306,476,o),
(252,438,o),
(222,414,c),
(222,433,ls),
(222,441,o),
(189,476,o),
(182,476,cs),
(169,476,o),
(77,463,o),
(12,453,c),
(12,384,l),
(56,369,l),
(56,12,ls),
(56,-14,o),
(53,-63,o),
(35,-73,cs),
(28,-78,o),
(-46,-84,o),
(-65,-84,c),
(-65,-166,l),
(-8,-176,o),
(63,-186,o),
(88,-186,cs)
);
}
);
width = 525;
}
);
metricLeft = j;
metricRight = n;
unicode = 626;
},
{
color = 4;
glyphname = eng;
kernLeft = n;
kernRight = j;
layers = (
{
layerId = "4F39836F-1187-466E-8FAB-7EBF43C51BB4";
shapes = (
{
closed = 1;
nodes = (
(328,-175,o),
(368,-115,o),
(368,-53,cs),
(368,276,ls),
(368,411,o),
(331,450,o),
(220,450,cs),
(215,450,o),
(141,394,o),
(116,371,c),
(118,433,ls),
(118,437,o),
(101,450,o),
(98,450,cs),
(91,450,o),
(56,443,o),
(31,438,c),
(31,421,l),
(89,421,l),
(89,7,ls),
(89,3,o),
(106,-10,o),
(109,-10,cs),
(116,-10,o),
(151,-3,o),
(176,2,c),
(176,19,l),
(118,19,l),
(118,342,l),
(160,377,o),
(218,423,o),
(226,423,cs),
(285,423,o),
(339,413,o),
(339,290,cs),
(339,-53,ls),
(339,-116,o),
(310,-146,o),
(303,-147,cs),
(280,-150,o),
(256,-149,o),
(233,-149,c),
(233,-166,l),
(251,-169,o),
(288,-175,o),
(299,-175,cs)
);
}
);
width = 422;
},
{
layerId = "555729A4-F539-4650-9C4F-3880CB033E7B";
shapes = (
{
closed = 1;
nodes = (
(313,-181,o),
(404,-84,o),
(404,-22,cs),
(404,288,ls),
(404,418,o),
(350,456,o),
(260,456,cs),
(254,456,o),
(192,412,o),
(157,386,c),
(157,424,ls),
(157,430,o),
(131,456,o),
(125,456,cs),
(118,456,o),
(69,447,o),
(34,441,c),
(34,404,l),
(69,389,l),
(69,24,ls),
(69,17,o),
(97,-9,o),
(103,-9,cs),
(110,-9,o),
(159,0,o),
(194,7,c),
(194,44,l),
(160,59,l),
(160,344,l),
(198,361,o),
(243,382,o),
(255,382,cs),
(269,382,o),
(313,384,o),
(313,288,cs),
(313,13,ls),
(313,-22,o),
(311,-89,o),
(288,-102,c),
(280,-108,o),
(206,-112,o),
(187,-113,c),
(187,-152,l),
(222,-164,o),
(268,-181,o),
(282,-181,cs)
);
}
);
width = 463;
},
{
layerId = "CB0A0A08-290D-4820-BDFF-3CAB47D8DECF";
shapes = (
{
closed = 1;
nodes = (
(368,-186,o),
(472,-87,o),
(472,-23,cs),
(472,333,ls),
(472,443,o),
(413,476,o),
(312,476,cs),
(304,476,o),
(250,438,o),
(220,414,c),
(220,433,ls),
(220,441,o),
(187,476,o),
(180,476,cs),
(167,476,o),
(75,463,o),
(10,453,c),
(10,384,l),
(54,369,l),
(54,31,ls),
(54,22,o),
(97,-13,o),
(106,-13,cs),
(118,-13,o),
(207,1,o),
(270,12,c),
(270,80,l),
(227,95,l),
(227,341,l),
(246,350,o),
(268,360,o),
(271,360,cs),
(280,360,o),
(299,356,o),
(299,331,cs),
(299,12,ls),
(299,-14,o),
(296,-63,o),
(278,-73,cs),
(271,-78,o),
(197,-84,o),
(178,-84,c),
(178,-166,l),
(235,-176,o),
(306,-186,o),
(331,-186,cs)
);
}
);
width = 507;
}
);
metricLeft = n;
metricRight = j;
unicode = 331;
},
{
color = 4;
glyphname = o;
kernLeft = o;
kernRight = o;
layers = (
{
anchors = (
{
name = bottom;
pos = (221,0);
},
{
name = center;
pos = (221,217);
},
{
name = ogonek;
pos = (243,0);
},
{
name = top;
pos = (226,448);
},
{
name = topright;
pos = (295,448);
}
);
background = {
shapes = (
{
closed = 1;
nodes = (
(270,-9,o),
(372,62,o),
(393,90,c),
(404,122,o),
(415,181,o),
(415,249,cs),
(415,386,o),
(346,461,o),
(211,461,cs),
(187,461,o),
(83,390,o),
(62,358,c),
(48,332,o),
(38,271,o),
(38,209,cs),
(38,57,o),
(109,-9,o),
(246,-9,cs)
);
},
{
closed = 1;
nodes = (
(197,48,o),
(134,78,o),
(134,223,cs),
(134,324,o),
(148,389,o),
(166,399,cs),
(179,406,o),
(192,407,o),
(206,407,cs),
(282,407,o),
(319,337,o),
(319,236,cs),
(319,151,o),
(309,104,o),
(302,73,c),
(302,73,o),
(258,50,o),
(251,48,c)
);
}
);
};
layerId = "555729A4-F539-4650-9C4F-3880CB033E7B";
shapes = (
{
closed = 1;
nodes = (
(270,-9,o),
(372,62,o),
(393,90,c),
(404,122,o),
(415,181,o),
(415,249,cs),
(415,386,o),
(346,461,o),
(211,461,cs),
(187,461,o),
(83,390,o),
(62,358,c),
(48,332,o),
(38,271,o),
(38,209,cs),
(38,57,o),
(109,-9,o),
(246,-9,cs)
);
},
{
closed = 1;
nodes = (
(197,48,o),
(134,78,o),
(134,223,cs),
(134,324,o),
(148,384,o),
(166,394,cs),
(179,401,o),
(192,402,o),
(206,402,cs),
(282,402,o),
(319,337,o),
(319,236,cs),
(319,151,o),
(309,104,o),
(302,73,c),
(283,63,o),
(256,49,o),
(251,48,c)
);
}
);
width = 453;
},
{
anchors = (
{
name = bottom;
pos = (256,0);
},
{
name = center;
pos = (254,231);
},
{
name = ogonek;
pos = (260,0);
},
{
name = top;
pos = (261,462);
},
{
name = topright;
pos = (348,462);
}
);
background = {
shapes = (
{
closed = 1;
nodes = (
(302,-13,o),
(436,67,o),
(464,99,c),
(477,130,o),
(491,189,o),
(491,255,cs),
(491,396,o),
(408,476,o),
(246,476,cs),
(214,476,o),
(75,392,o),
(47,360,c),
(34,329,o),
(20,264,o),
(20,207,cs),
(20,56,o),
(112,-13,o),
(270,-13,cs)
);
},
{
closed = 1;
nodes = (
(239,69,o),
(205,101,o),
(205,222,cs),
(205,322,o),
(218,398,o),
(227,398,cs),
(232,398,o),
(262,393,o),
(270,387,cs),
(296,366,o),
(306,305,o),
(306,240,cs),
(306,159,o),
(301,111,o),
(297,81,c),
(297,81,o),
(273,70,o),
(269,69,c)
);
}
);
};
layerId = "CB0A0A08-290D-4820-BDFF-3CAB47D8DECF";
shapes = (
{
closed = 1;
nodes = (
(302,-13,o),
(436,67,o),
(464,99,c),
(477,130,o),
(491,189,o),
(491,255,cs),
(491,396,o),
(408,476,o),
(246,476,cs),
(214,476,o),
(75,392,o),
(47,360,c),
(34,329,o),
(20,264,o),
(20,207,cs),
(20,56,o),
(112,-13,o),
(270,-13,cs)
);
},
{
closed = 1;
nodes = (
(239,69,o),
(205,101,o),
(205,222,cs),
(205,322,o),
(214,390,o),
(227,394,cs),
(233,396,o),
(238,396,o),
(243,396,cs),
(295,396,o),
(306,314,o),
(306,240,cs),
(306,159,o),
(301,111,o),
(297,81,c),
(287,76,o),
(272,70,o),
(269,69,c)
);
}
);
width = 511;
},
{
anchors = (
{
name = bottom;
pos = (214,0);
},
{
name = center;
pos = (225,217);
},
{
name = ogonek;
pos = (234,0);
},
{
name = top;
pos = (224,440);
},
{
name = topright;
pos = (274,440);
}
);
background = {
shapes = (
{
closed = 1;
nodes = (
(247,-10,o),
(318,33,o),
(345,67,c),
(369,99,o),
(385,168,o),
(385,235,cs),
(385,379,o),
(321,450,o),
(209,450,cs),
(190,450,o),
(125,417,o),
(86,360,c),
(67,325,o),
(54,269,o),
(54,205,cs),
(54,56,o),
(121,-10,o),
(225,-10,cs)
);
},
{
closed = 1;
nodes = (
(119,19,o),
(83,101,o),
(83,205,cs),
(83,302,o),
(101,353,o),
(148,392,cs),
(172,412,o),
(198,425,o),
(213,425,cs),
(304,425,o),
(356,355,o),
(356,235,cs),
(356,157,o),
(338,99,o),
(318,76,c),
(298,53,o),
(247,16,o),
(221,16,cs)
);
}
);
};
layerId = "4F39836F-1187-466E-8FAB-7EBF43C51BB4";
shapes = (
{
closed = 1;
nodes = (
(247,-10,o),
(318,33,o),
(345,67,cs),
(369,99,o),
(385,168,o),
(385,235,cs),
(385,379,o),
(321,450,o),
(209,450,cs),
(190,450,o),
(125,419,o),
(86,360,c),
(67,325,o),
(54,269,o),
(54,205,cs),
(54,56,o),
(121,-10,o),
(225,-10,cs)
);
},
{
closed = 1;
nodes = (
(119,19,o),
(83,101,o),
(83,205,cs),
(83,302,o),
(101,352,o),
(148,391,cs),
(172,411,o),
(198,425,o),
(213,425,cs),
(304,425,o),
(356,355,o),
(356,235,cs),
(356,157,o),
(338,99,o),
(318,76,cs),
(298,53,o),
(247,16,o),
(221,16,cs)
);
}
);
width = 439;
}
);
unicode = 111;
},
{
glyphname = oslash;
kernLeft = o;
kernRight = o;
layers = (
{
background = {
shapes = (
{
closed = 1;
nodes = (
(82,-62,l),
(85,-73,l),
(99,-79,l),
(373,505,l),
(371,516,l),
(356,522,l)
);
}
);
};
layerId = "4F39836F-1187-466E-8FAB-7EBF43C51BB4";
shapes = (
{
ref = o;
},
{
pos = (79,-5);
ref = slashlongcomb;
}
);
width = 439;
},
{
background = {
shapes = (
{
closed = 1;
nodes = (
(62,-72,l),
(75,-89,l),
(105,-89,l),
(385,515,l),
(375,532,l),
(342,532,l)
);
}
);
};
layerId = "555729A4-F539-4650-9C4F-3880CB033E7B";
shapes = (
{
ref = o;
},
{
pos = (59,-5);
ref = slashlongcomb;
}
);
width = 453;
},
{
layerId = "CB0A0A08-290D-4820-BDFF-3CAB47D8DECF";
shapes = (
{
ref = o;
},
{
pos = (72,23);
ref = slashlongcomb;
}
);
width = 511;
}
);
unicode = 248;
},
{
color = 4;
glyphname = p;
kernLeft = n;
kernRight = o;
layers = (
{
background = {
shapes = (
{
closed = 1;
nodes = (
(249,457,o),
(191,411,o),
(156,385,c),
(156,424,ls),
(156,431,o),
(127,457,o),
(122,457,cs),
(114,457,o),
(56,446,o),
(34,441,c),
(34,404,l),
(68,390,l),
(68,13,l),
(63,-148,ls),
(63,-155,o),
(92,-181,o),
(98,-181,cs),
(105,-181,o),
(173,-170,o),
(194,-165,c),
(194,-125,l),
(154,-109,l),
(154,2,l),
(194,-4,o),
(230,-9,o),
(243,-9,cs),
(267,-9,o),
(367,60,o),
(388,90,c),
(402,118,o),
(412,175,o),
(412,245,cs),
(412,392,o),
(332,457,o),
(256,457,cs)
);
},
{
closed = 1;
nodes = (
(188,357,o),
(243,383,o),
(250,383,cs),
(270,383,o),
(316,344,o),
(316,232,cs),
(316,91,o),
(301,48,o),
(278,44,cs),
(259,41,o),
(191,58,o),
(159,68,c),
(159,343,l)
);
}
);
};
layerId = "555729A4-F539-4650-9C4F-3880CB033E7B";
shapes = (
{
closed = 1;
nodes = (
(105,-181,o),
(173,-170,o),
(194,-165,c),
(194,-125,l),
(154,-109,l),
(154,2,l),
(194,-4,o),
(230,-9,o),
(243,-9,cs),
(267,-9,o),
(367,60,o),
(388,90,c),
(402,118,o),
(412,175,o),
(412,245,cs),
(412,392,o),
(332,457,o),
(256,457,cs),
(249,457,o),
(191,411,o),
(156,385,c),
(156,424,ls),
(156,431,o),
(127,457,o),
(122,457,cs),
(114,457,o),
(56,446,o),
(34,441,c),
(34,404,l),
(68,390,l),
(68,13,l),
(63,-148,ls),
(63,-155,o),
(92,-181,o),
(98,-181,cs)
);
},
{
closed = 1;
nodes = (
(259,46,o),
(191,58,o),
(159,68,c),
(159,343,l),
(188,357,o),
(243,383,o),
(250,383,cs),
(270,383,o),
(316,344,o),
(316,232,cs),
(316,91,o),
(301,53,o),
(278,49,cs)
);
}
);
width = 450;
},
{
background = {
shapes = (
{
closed = 1;
nodes = (
(303,476,o),
(244,431,o),
(220,412,c),
(220,433,ls),
(220,441,o),
(187,476,o),
(180,476,cs),
(163,476,o),
(47,459,o),
(10,453,c),
(10,384,l),
(54,369,l),
(54,39,l),
(47,-143,ls),
(47,-151,o),
(80,-186,o),
(87,-186,cs),
(104,-186,o),
(230,-172,o),
(271,-163,c),
(271,-94,l),
(227,-79,l),
(227,-8,l),
(248,-11,o),
(263,-13,o),
(267,-13,cs),
(299,-13,o),
(434,68,o),
(462,99,c),
(475,130,o),
(489,192,o),
(489,249,cs),
(489,385,o),
(427,476,o),
(308,476,cs)
);
},
{
closed = 1;
nodes = (
(240,346,o),
(267,360,o),
(271,360,cs),
(294,360,o),
(304,296,o),
(304,234,cs),
(304,134,o),
(291,61,o),
(282,61,cs),
(275,61,o),
(237,92,o),
(227,100,c),
(227,339,l)
);
}
);
};
layerId = "CB0A0A08-290D-4820-BDFF-3CAB47D8DECF";
shapes = (
{
closed = 1;
nodes = (
(104,-186,o),
(230,-172,o),
(271,-163,c),
(271,-94,l),
(227,-79,l),
(227,-8,l),
(248,-11,o),
(263,-13,o),
(267,-13,cs),
(299,-13,o),
(434,68,o),
(462,99,c),
(475,130,o),
(489,192,o),
(489,249,cs),
(489,385,o),
(427,476,o),
(308,476,cs),
(303,476,o),
(244,431,o),
(220,412,c),
(220,433,ls),
(220,441,o),
(187,476,o),
(180,476,cs),
(163,476,o),
(47,459,o),
(10,453,c),
(10,384,l),
(54,369,l),
(54,39,l),
(47,-143,ls),
(47,-151,o),
(80,-186,o),
(87,-186,cs)
);
},
{
closed = 1;
nodes = (
(276,57,o),
(247,82,o),
(227,100,c),
(227,339,l),
(240,346,o),
(267,360,o),
(271,360,cs),
(294,360,o),
(304,296,o),
(304,234,cs),
(304,134,o),
(296,77,o),
(284,65,cs)
);
}
);
width = 509;
},
{
background = {
shapes = (
{
closed = 1;
nodes = (
(209,450,o),
(154,402,o),
(116,370,c),
(118,433,ls),
(118,437,o),
(101,450,o),
(98,450,cs),
(91,450,o),
(46,442,o),
(31,438,c),
(31,421,l),
(89,421,l),
(89,11,l),
(86,-159,ls),
(86,-163,o),
(103,-176,o),
(106,-176,cs),
(114,-176,o),
(162,-168,o),
(176,-164,c),
(176,-147,l),
(118,-147,l),
(118,3,l),
(159,-3,o),
(207,-10,o),
(224,-10,cs),
(243,-10,o),
(306,23,o),
(346,80,c),
(363,114,o),
(379,171,o),
(379,245,cs),
(379,346,o),
(346,450,o),
(217,450,cs)
);
},
{
closed = 1;
nodes = (
(153,370,o),
(213,423,o),
(224,423,cs),
(293,423,o),
(350,381,o),
(350,238,cs),
(350,134,o),
(324,60,o),
(238,20,cs),
(212,8,o),
(153,23,o),
(118,31,c),
(116,340,l)
);
}
);
};
layerId = "4F39836F-1187-466E-8FAB-7EBF43C51BB4";
shapes = (
{
closed = 1;
nodes = (
(114,-176,o),
(162,-168,o),
(176,-164,c),
(176,-147,l),
(118,-147,l),
(118,3,l),
(159,-3,o),
(207,-10,o),
(224,-10,cs),
(243,-10,o),
(306,21,o),
(346,80,c),
(363,114,o),
(379,171,o),
(379,245,cs),
(379,346,o),
(346,450,o),
(217,450,cs),
(209,450,o),
(154,402,o),
(116,370,c),
(118,433,ls),
(118,437,o),
(101,450,o),
(98,450,cs),
(91,450,o),
(46,442,o),
(31,438,c),
(31,421,l),
(89,421,l),
(89,11,l),
(86,-159,ls),
(86,-163,o),
(103,-176,o),
(106,-176,cs)
);
},
{
closed = 1;
nodes = (
(212,9,o),
(153,23,o),
(118,31,c),
(116,340,l),
(153,370,o),
(213,423,o),
(224,423,cs),
(293,423,o),
(350,381,o),
(350,238,cs),
(350,134,o),
(324,61,o),
(238,21,cs)
);
}
);
width = 433;
}
);
metricLeft = n;
metricRight = o;
unicode = 112;
},
{
color = 4;
glyphname = thorn;
kernLeft = l;
kernRight = o;
layers = (
{
layerId = "4F39836F-1187-466E-8FAB-7EBF43C51BB4";
shapes = (
{
closed = 1;
nodes = (
(115,-176,o),
(163,-168,o),
(177,-164,c),
(177,-147,l),
(119,-147,l),
(119,3,l),
(160,-3,o),
(208,-10,o),
(225,-10,cs),
(244,-10,o),
(307,23,o),
(347,80,c),
(364,114,o),
(380,171,o),
(380,245,cs),
(380,346,o),
(347,450,o),
(218,450,cs),
(210,450,o),
(156,403,o),
(118,371,c),
(118,620,ls),
(118,624,o),
(101,637,o),
(98,637,cs),
(91,637,o),
(56,630,o),
(31,625,c),
(31,608,l),
(89,608,l),
(90,11,l),
(87,-159,ls),
(87,-163,o),
(104,-176,o),
(107,-176,cs)
);
},
{
closed = 1;
nodes = (
(213,8,o),
(154,23,o),
(119,31,c),
(118,341,l),
(156,371,o),
(214,423,o),
(225,423,cs),
(294,423,o),
(351,381,o),
(351,238,cs),
(351,134,o),
(325,60,o),
(239,20,cs)
);
}
);
width = 434;
},
{
layerId = "555729A4-F539-4650-9C4F-3880CB033E7B";
shapes = (
{
closed = 1;
nodes = (
(105,-181,o),
(157,-172,o),
(195,-165,c),
(195,-125,l),
(155,-109,l),
(155,2,l),
(195,-4,o),
(231,-9,o),
(244,-9,cs),
(268,-9,o),
(368,60,o),
(389,90,c),
(403,118,o),
(413,175,o),
(413,245,cs),
(413,392,o),
(333,457,o),
(257,457,cs),
(250,457,o),
(193,412,o),
(158,386,c),
(160,613,ls),
(160,620,o),
(133,646,o),
(127,646,cs),
(120,646,o),
(70,637,o),
(34,630,c),
(34,593,l),
(70,579,l),
(69,13,l),
(64,-148,ls),
(64,-155,o),
(93,-181,o),
(99,-181,cs)
);
},
{
closed = 1;
nodes = (
(266,42,o),
(193,57,o),
(156,63,c),
(160,343,l),
(189,357,o),
(244,383,o),
(251,383,cs),
(271,383,o),
(317,344,o),
(317,232,cs),
(317,91,o),
(302,48,o),
(279,44,cs)
);
}
);
width = 451;
},
{
layerId = "CB0A0A08-290D-4820-BDFF-3CAB47D8DECF";
shapes = (
{
closed = 1;
nodes = (
(87,-186,o),
(186,-173,o),
(257,-163,c),
(257,-94,l),
(213,-79,l),
(213,-8,l),
(234,-11,o),
(249,-13,o),
(253,-13,cs),
(285,-13,o),
(420,68,o),
(448,99,c),
(461,130,o),
(475,192,o),
(475,249,cs),
(475,385,o),
(413,476,o),
(294,476,cs),
(289,476,o),
(240,438,o),
(213,418,c),
(213,622,ls),
(213,630,o),
(180,665,o),
(173,665,cs),
(160,665,o),
(64,652,o),
(-4,642,c),
(-4,573,l),
(40,558,l),
(40,39,l),
(33,-143,ls),
(33,-151,o),
(66,-186,o),
(73,-186,cs)
);
},
{
closed = 1;
nodes = (
(262,57,o),
(233,82,o),
(213,100,c),
(213,339,l),
(226,346,o),
(253,360,o),
(257,360,cs),
(280,360,o),
(290,296,o),
(290,234,cs),
(290,134,o),
(282,77,o),
(270,65,cs)
);
}
);
width = 495;
}
);
metricLeft = l;
metricRight = o;
unicode = 254;
},
{
color = 4;
glyphname = q;
kernLeft = o;
kernRight = q;
layers = (
{
background = {
shapes = (
{
closed = 1;
nodes = (
(38,56,o),
(117,-9,o),
(194,-9,cs),
(201,-9,o),
(257,36,o),
(291,60,c),
(296,59,l),
(291,-148,ls),
(291,-155,o),
(320,-181,o),
(326,-181,cs),
(334,-181,o),
(417,-165,o),
(417,-165,c),
(417,-128,l),
(382,-114,l),
(382,436,l),
(345,443,o),
(221,457,o),
(207,457,cs),
(183,457,o),
(83,388,o),
(62,358,c),
(48,330,o),
(38,273,o),
(38,203,cs)
);
},
{
closed = 1;
nodes = (
(134,357,o),
(149,400,o),
(172,404,cs),
(191,407,o),
(259,390,o),
(291,380,c),
(291,105,l),
(291,105,o),
(210,65,o),
(200,65,cs),
(180,65,o),
(134,106,o),
(134,216,cs)
);
}
);
};
layerId = "555729A4-F539-4650-9C4F-3880CB033E7B";
shapes = (
{
closed = 1;
nodes = (
(332,-181,o),
(381,-172,o),
(417,-165,c),
(417,-128,l),
(382,-114,l),
(382,436,l),
(345,443,o),
(221,457,o),
(207,457,cs),
(183,457,o),
(83,388,o),
(62,358,c),
(48,330,o),
(38,273,o),
(38,203,cs),
(38,56,o),
(117,-9,o),
(194,-9,cs),
(201,-9,o),
(257,36,o),
(291,60,c),
(296,59,l),
(291,-148,ls),
(291,-155,o),
(320,-181,o),
(326,-181,cs)
);
},
{
closed = 1;
nodes = (
(180,65,o),
(134,106,o),
(134,216,cs),
(134,357,o),
(149,395,o),
(172,399,cs),
(191,402,o),
(259,390,o),
(291,380,c),
(291,105,l),
(256,88,o),
(207,65,o),
(200,65,cs)
);
}
);
width = 442;
},
{
background = {
shapes = (
{
closed = 1;
nodes = (
(20,75,o),
(82,-13,o),
(201,-13,cs),
(206,-13,o),
(258,27,o),
(284,47,c),
(291,45,l),
(282,-143,ls),
(282,-151,o),
(315,-186,o),
(322,-186,cs),
(340,-186,o),
(499,-163,o),
(499,-163,c),
(499,-94,l),
(455,-79,l),
(455,436,l),
(455,436,o),
(258,477,o),
(242,477,cs),
(210,477,o),
(75,396,o),
(47,365,c),
(34,332,o),
(20,266,o),
(20,205,cs)
);
},
{
closed = 1;
nodes = (
(205,326,o),
(218,403,o),
(227,403,cs),
(236,403,o),
(282,364,o),
(282,364,c),
(282,124,l),
(282,124,o),
(244,103,o),
(238,103,cs),
(215,103,o),
(205,163,o),
(205,220,cs)
);
}
);
};
layerId = "CB0A0A08-290D-4820-BDFF-3CAB47D8DECF";
shapes = (
{
closed = 1;
nodes = (
(335,-186,o),
(431,-173,o),
(499,-163,c),
(499,-94,l),
(455,-79,l),
(455,436,l),
(370,454,o),
(254,477,o),
(242,477,cs),
(210,477,o),
(75,395,o),
(47,364,c),
(34,331,o),
(20,266,o),
(20,205,cs),
(20,75,o),
(82,-13,o),
(201,-13,cs),
(206,-13,o),
(258,27,o),
(284,47,c),
(291,45,l),
(282,-143,ls),
(282,-151,o),
(315,-186,o),
(322,-186,cs)
);
},
{
closed = 1;
nodes = (
(215,103,o),
(205,163,o),
(205,220,cs),
(205,326,o),
(212,388,o),
(226,399,cs),
(234,405,o),
(265,378,o),
(282,363,c),
(282,124,l),
(266,115,o),
(242,103,o),
(238,103,cs)
);
}
);
width = 499;
},
{
background = {
shapes = (
{
closed = 1;
nodes = (
(54,94,o),
(87,-10,o),
(216,-10,cs),
(224,-10,o),
(277,36,o),
(315,67,c),
(317,66,l),
(315,-158,ls),
(315,-162,o),
(332,-175,o),
(335,-175,cs),
(344,-175,o),
(402,-163,o),
(402,-163,c),
(402,-146,l),
(344,-146,l),
(344,432,l),
(299,439,o),
(230,450,o),
(209,450,cs),
(190,450,o),
(127,417,o),
(87,360,c),
(70,326,o),
(54,269,o),
(54,195,cs)
);
},
{
closed = 1;
nodes = (
(83,306,o),
(109,381,o),
(195,420,cs),
(221,432,o),
(273,419,o),
(315,409,c),
(317,100,l),
(281,70,o),
(220,17,o),
(209,17,cs),
(140,17,o),
(83,59,o),
(83,202,cs)
);
}
);
};
layerId = "4F39836F-1187-466E-8FAB-7EBF43C51BB4";
shapes = (
{
closed = 1;
nodes = (
(342,-175,o),
(377,-168,o),
(402,-163,c),
(402,-146,l),
(344,-146,l),
(344,432,l),
(299,439,o),
(230,450,o),
(209,450,cs),
(190,450,o),
(127,419,o),
(87,360,c),
(70,326,o),
(54,269,o),
(54,195,cs),
(54,94,o),
(87,-10,o),
(216,-10,cs),
(224,-10,o),
(277,36,o),
(315,67,c),
(317,66,l),
(315,-158,ls),
(315,-162,o),
(332,-175,o),
(335,-175,cs)
);
},
{
closed = 1;
nodes = (
(140,17,o),
(83,59,o),
(83,202,cs),
(83,306,o),
(109,380,o),
(195,419,cs),
(221,431,o),
(273,419,o),
(315,409,c),
(317,100,l),
(281,70,o),
(220,17,o),
(209,17,cs)
);
}
);
width = 414;
}
);
metricLeft = o;
unicode = 113;
},
{
color = 4;
glyphname = r;
kernLeft = n;
kernRight = r;
layers = (
{
anchors = (
{
name = bottom;
pos = (189,0);
},
{
name = top;
pos = (167,448);
}
);
layerId = "555729A4-F539-4650-9C4F-3880CB033E7B";
shapes = (
{
closed = 1;
nodes = (
(110,-9,o),
(168,0,o),
(211,7,c),
(211,48,l),
(160,63,l),
(160,343,l),
(191,361,o),
(219,375,o),
(228,375,cs),
(246,375,o),
(266,368,o),
(281,362,c),
(286,365,o),
(308,405,o),
(308,414,cs),
(308,420,o),
(305,437,o),
(302,445,c),
(286,450,o),
(249,461,o),
(235,461,cs),
(229,461,o),
(193,423,o),
(157,385,c),
(159,420,ls),
(159,426,o),
(125,456,o),
(119,456,cs),
(112,456,o),
(67,447,o),
(34,441,c),
(34,404,l),
(69,392,l),
(69,24,ls),
(69,17,o),
(97,-9,o),
(103,-9,cs)
);
}
);
width = 310;
},
{
anchors = (
{
name = bottom;
pos = (190,-10);
},
{
name = top;
pos = (195,462);
}
);
layerId = "CB0A0A08-290D-4820-BDFF-3CAB47D8DECF";
shapes = (
{
closed = 1;
nodes = (
(121,-13,o),
(225,4,o),
(300,16,c),
(300,88,l),
(227,109,l),
(227,307,l),
(245,313,o),
(271,320,o),
(276,320,cs),
(288,320,o),
(322,303,o),
(343,291,c),
(350,291,o),
(398,389,o),
(398,412,cs),
(398,433,o),
(385,460,o),
(383,467,c),
(370,471,o),
(338,480,o),
(307,480,cs),
(300,480,o),
(249,421,o),
(220,385,c),
(220,433,ls),
(220,441,o),
(187,476,o),
(180,476,cs),
(167,476,o),
(75,463,o),
(10,453,c),
(10,384,l),
(54,369,l),
(54,31,ls),
(54,22,o),
(97,-13,o),
(106,-13,cs)
);
}
);
width = 393;
},
{
anchors = (
{
name = bottom;
pos = (187,0);
},
{
name = top;
pos = (154,440);
}
);
layerId = "4F39836F-1187-466E-8FAB-7EBF43C51BB4";
shapes = (
{
closed = 1;
nodes = (
(116,-10,o),
(157,-3,o),
(186,2,c),
(186,19,l),
(118,19,l),
(118,342,l),
(155,378,o),
(206,426,o),
(213,426,cs),
(230,426,o),
(247,421,o),
(260,417,c),
(264,421,o),
(270,430,o),
(270,433,cs),
(270,437,o),
(267,443,o),
(266,445,c),
(258,449,o),
(227,454,o),
(205,454,cs),
(200,454,o),
(135,391,o),
(116,371,c),
(118,433,ls),
(118,437,o),
(101,450,o),
(98,450,cs),
(91,450,o),
(56,443,o),
(31,438,c),
(31,421,l),
(89,421,l),
(89,7,ls),
(89,3,o),
(106,-10,o),
(109,-10,cs)
);
}
);
width = 284;
}
);
unicode = 114;
},
{
color = 4;
glyphname = s;
kernLeft = s;
kernRight = s;
layers = (
{
anchors = (
{
name = bottom;
pos = (186,0);
},
{
name = top;
pos = (190,448);
}
);
background = {
shapes = (
{
closed = 1;
nodes = (
(251,-9,o),
(316,63,o),
(334,97,c),
(339,117,o),
(341,134,o),
(341,148,cs),
(341,209,o),
(246,251,o),
(197,281,cs),
(163,302,o),
(125,320,o),
(125,353,cs),
(125,384,o),
(134,400,o),
(147,400,cs),
(161,400,o),
(243,383,o),
(254,379,c),
(261,326,l),
(317,326,l),
(320,448,l),
(280,452,o),
(185,456,o),
(154,456,cs),
(132,456,o),
(68,402,o),
(47,369,c),
(43,357,o),
(42,337,o),
(42,320,cs),
(42,272,o),
(70,245,o),
(149,202,cs),
(221,163,o),
(245,150,o),
(245,113,cs),
(245,90,o),
(225,52,o),
(214,52,cs),
(195,52,o),
(144,62,o),
(113,73,c),
(92,149,l),
(42,148,l),
(40,4,l),
(87,-2,o),
(194,-9,o),
(220,-9,cs)
);
}
);
};
layerId = "555729A4-F539-4650-9C4F-3880CB033E7B";
shapes = (
{
closed = 1;
nodes = (
(251,-9,o),
(316,63,o),
(334,97,c),
(339,117,o),
(341,134,o),
(341,148,cs),
(341,209,o),
(246,251,o),
(197,281,cs),
(163,302,o),
(125,320,o),
(125,353,cs),
(125,384,o),
(134,395,o),
(147,395,cs),
(161,395,o),
(243,383,o),
(254,379,c),
(261,326,l),
(317,326,l),
(320,448,l),
(280,452,o),
(185,456,o),
(154,456,cs),
(132,456,o),
(68,402,o),
(47,369,c),
(43,357,o),
(42,337,o),
(42,320,cs),
(42,272,o),
(70,245,o),
(149,202,cs),
(221,163,o),
(245,150,o),
(245,113,cs),
(245,90,o),
(225,52,o),
(214,52,cs),
(195,52,o),
(144,62,o),
(113,73,c),
(92,149,l),
(42,148,l),
(40,4,l),
(87,-2,o),
(194,-9,o),
(220,-9,cs)
);
}
);
width = 363;
},
{
anchors = (
{
name = bottom;
pos = (197,0);
},
{
name = top;
pos = (199,462);
}
);
layerId = "CB0A0A08-290D-4820-BDFF-3CAB47D8DECF";
shapes = (
{
closed = 1;
nodes = (
(284,-13,o),
(361,66,o),
(383,102,c),
(390,119,o),
(392,146,o),
(392,165,cs),
(392,232,o),
(306,276,o),
(244,311,cs),
(218,325,o),
(160,354,o),
(160,378,cs),
(160,379,o),
(161,395,o),
(170,395,cs),
(183,395,o),
(256,379,o),
(267,375,c),
(273,319,l),
(362,319,l),
(365,468,l),
(321,473,o),
(200,476,o),
(162,476,cs),
(133,476,o),
(53,415,o),
(26,381,c),
(20,365,o),
(18,345,o),
(18,327,cs),
(18,276,o),
(35,238,o),
(134,181,cs),
(192,147,o),
(238,137,o),
(238,102,cs),
(238,101,o),
(235,68,o),
(225,68,cs),
(205,68,o),
(151,82,o),
(119,93,c),
(98,174,l),
(18,174,l),
(15,0,l),
(75,-6,o),
(213,-13,o),
(246,-13,cs)
);
}
);
width = 402;
},
{
anchors = (
{
name = bottom;
pos = (177,0);
},
{
name = top;
pos = (180,440);
}
);
background = {
shapes = (
{
closed = 1;
nodes = (
(239,-10,o),
(287,41,o),
(299,77,c),
(302,88,o),
(303,99,o),
(303,108,cs),
(303,175,o),
(242,207,o),
(183,244,cs),
(126,280,o),
(84,299,o),
(84,357,cs),
(84,395,o),
(134,426,o),
(146,426,cs),
(163,426,o),
(234,420,o),
(262,416,c),
(269,342,l),
(287,342,l),
(289,439,l),
(261,443,o),
(171,450,o),
(146,450,cs),
(125,450,o),
(76,410,o),
(63,383,c),
(58,371,o),
(57,359,o),
(57,349,cs),
(57,287,o),
(109,258,o),
(169,221,cs),
(222,188,o),
(275,166,o),
(275,104,cs),
(275,65,o),
(230,15,o),
(205,15,cs),
(177,15,o),
(112,23,o),
(78,25,c),
(68,106,l),
(51,106,l),
(50,2,l),
(89,-3,o),
(183,-10,o),
(206,-10,cs)
);
},
{
closed = 1;
nodes = (
(182,219,o),
(188,225,o),
(188,234,cs),
(188,242,o),
(182,248,o),
(174,248,cs),
(165,248,o),
(159,242,o),
(159,234,cs),
(159,225,o),
(165,219,o),
(174,219,cs)
);
}
);
};
layerId = "4F39836F-1187-466E-8FAB-7EBF43C51BB4";
shapes = (
{
closed = 1;
nodes = (
(239,-10,o),
(287,39,o),
(299,77,cs),
(302,88,o),
(303,99,o),
(303,108,cs),
(303,177,o),
(242,208,o),
(183,245,cs),
(126,281,o),
(85,299,o),
(85,357,cs),
(85,395,o),
(134,425,o),
(146,425,cs),
(163,425,o),
(234,420,o),
(262,416,c),
(269,342,l),
(287,342,l),
(289,439,l),
(261,443,o),
(171,450,o),
(146,450,cs),
(125,450,o),
(76,412,o),
(63,383,cs),
(58,371,o),
(57,359,o),
(57,349,cs),
(57,285,o),
(109,257,o),
(169,220,cs),
(222,187,o),
(274,165,o),
(274,104,cs),
(274,65,o),
(230,16,o),
(205,16,cs),
(177,16,o),
(112,23,o),
(78,25,c),
(68,106,l),
(51,106,l),
(50,2,l),
(89,-3,o),
(183,-10,o),
(206,-10,cs)
);
}
);
width = 338;
}
);
unicode = 115;
},
{
color = 4;
glyphname = germandbls;
kernLeft = j;
layers = (
{
layerId = "555729A4-F539-4650-9C4F-3880CB033E7B";
shapes = (
{
closed = 1;
nodes = (
(71,-181,o),
(161,-84,o),
(161,-22,cs),
(163,526,ls),
(163,554,o),
(173,582,o),
(182,582,cs),
(189,582,o),
(243,570,o),
(282,560,cs),
(306,554,o),
(322,530,o),
(322,510,cs),
(322,448,o),
(226,420,o),
(226,324,cs),
(226,237,o),
(366,196,o),
(366,106,cs),
(366,83,o),
(347,52,o),
(337,52,cs),
(316,52,o),
(209,71,o),
(148,84,c),
(148,4,l),
(214,-2,o),
(299,-9,o),
(337,-9,cs),
(369,-9,o),
(437,58,o),
(456,92,c),
(459,104,o),
(463,127,o),
(463,141,cs),
(463,238,o),
(307,296,o),
(307,349,cs),
(307,400,o),
(398,432,o),
(398,514,cs),
(398,623,o),
(279,646,o),
(196,646,cs),
(165,646,o),
(71,532,o),
(71,491,cs),
(71,13,ls),
(71,-22,o),
(69,-89,o),
(46,-102,c),
(38,-108,o),
(-33,-112,o),
(-53,-113,c),
(-60,-152,l),
(-23,-164,o),
(25,-181,o),
(40,-181,cs)
);
}
);
width = 463;
},
{
background = {
shapes = (
{
closed = 1;
nodes = (
(78,-175,o),
(114,-121,o),
(114,-59,cs),
(114,547,ls),
(114,574,o),
(145,609,o),
(150,610,cs),
(154,611,o),
(160,612,o),
(170,612,cs),
(182,612,o),
(198,610,o),
(219,606,cs),
(254,598,o),
(290,578,o),
(290,537,cs),
(290,481,o),
(215,427,o),
(215,349,cs),
(215,342,o),
(216,334,o),
(217,327,cs),
(230,252,o),
(338,195,o),
(349,137,cs),
(357,87,o),
(276,14,o),
(255,14,cs),
(233,14,o),
(168,21,o),
(105,30,c),
(106,4,l),
(171,-2,o),
(221,-9,o),
(259,-9,cs),
(289,-9,o),
(353,58,o),
(369,95,c),
(372,107,o),
(376,115,o),
(376,129,cs),
(376,133,o),
(376,138,o),
(375,143,cs),
(362,213,o),
(242,269,o),
(242,348,cs),
(242,416,o),
(315,479,o),
(315,540,cs),
(315,614,o),
(230,637,o),
(160,637,cs),
(123,637,o),
(86,570,o),
(86,542,cs),
(86,-45,ls),
(86,-92,o),
(71,-143,o),
(56,-147,cs),
(47,-149,o),
(-3,-149,o),
(-25,-149,c),
(-25,-164,l),
(1,-169,o),
(45,-175,o),
(51,-175,cs)
);
}
);
};
layerId = "4F39836F-1187-466E-8FAB-7EBF43C51BB4";
shapes = (
{
closed = 1;
nodes = (
(78,-175,o),
(114,-121,o),
(114,-59,cs),
(114,547,ls),
(114,574,o),
(145,609,o),
(150,610,cs),
(167,614,o),
(196,610,o),
(219,606,cs),
(254,598,o),
(290,578,o),
(290,537,cs),
(290,481,o),
(215,425,o),
(215,347,cs),
(215,253,o),
(349,193,o),
(349,131,cs),
(349,81,o),
(276,14,o),
(255,14,cs),
(233,14,o),
(168,21,o),
(105,30,c),
(106,4,l),
(171,-2,o),
(221,-9,o),
(259,-9,cs),
(289,-9,o),
(353,58,o),
(369,95,c),
(372,107,o),
(376,115,o),
(376,129,cs),
(376,208,o),
(242,264,o),
(242,348,cs),
(242,416,o),
(315,479,o),
(315,540,cs),
(315,614,o),
(230,637,o),
(160,637,cs),
(123,637,o),
(86,570,o),
(86,542,cs),
(86,-45,ls),
(86,-92,o),
(71,-143,o),
(56,-147,cs),
(47,-149,o),
(-3,-149,o),
(-25,-149,c),
(-25,-164,l),
(1,-169,o),
(45,-175,o),
(51,-175,cs)
);
}
);
width = 391;
},
{
layerId = "CB0A0A08-290D-4820-BDFF-3CAB47D8DECF";
shapes = (
{
closed = 1;
nodes = (
(89,-186,o),
(217,-76,o),
(217,-16,cs),
(217,516,ls),
(217,540,o),
(221,569,o),
(233,569,cs),
(244,569,o),
(275,556,o),
(309,538,cs),
(328,528,o),
(336,519,o),
(336,500,cs),
(336,459,o),
(246,412,o),
(246,322,cs),
(246,237,o),
(381,183,o),
(381,111,cs),
(381,92,o),
(374,81,o),
(363,81,cs),
(341,81,o),
(262,102,o),
(193,120,c),
(201,4,l),
(266,-2,o),
(391,-9,o),
(429,-9,cs),
(455,-9,o),
(539,59,o),
(553,92,c),
(555,102,o),
(557,115,o),
(557,130,cs),
(557,251,o),
(404,289,o),
(404,356,cs),
(404,408,o),
(472,446,o),
(472,521,cs),
(472,651,o),
(316,665,o),
(217,665,cs),
(164,665,o),
(51,548,o),
(51,507,cs),
(51,35,ls),
(51,-35,o),
(51,-63,o),
(40,-68,cs),
(29,-73,o),
(-19,-73,o),
(-66,-73,c),
(-66,-151,l),
(-28,-166,o),
(29,-186,o),
(56,-186,cs)
);
}
);
width = 557;
}
);
unicode = 223;
},
{
color = 4;
glyphname = longs;
kernLeft = f;
kernRight = longs;
layers = (
{
layerId = "4F39836F-1187-466E-8FAB-7EBF43C51BB4";
shapes = (
{
closed = 1;
nodes = (
(109,-10,o),
(144,-3,o),
(169,2,c),
(169,19,l),
(111,19,l),
(111,515,ls),
(111,586,o),
(141,611,o),
(145,611,cs),
(163,611,o),
(215,605,o),
(249,600,c),
(253,607,o),
(259,617,o),
(259,619,cs),
(259,622,o),
(253,628,o),
(249,631,c),
(221,634,o),
(175,637,o),
(151,637,cs),
(112,637,o),
(82,580,o),
(82,513,cs),
(82,442,l),
(35,433,l),
(35,415,l),
(82,415,l),
(82,7,ls),
(82,3,o),
(99,-10,o),
(102,-10,cs)
);
}
);
width = 209;
},
{
layerId = "555729A4-F539-4650-9C4F-3880CB033E7B";
shapes = (
{
closed = 1;
nodes = (
(108,-9,o),
(166,0,o),
(209,7,c),
(209,48,l),
(158,63,l),
(159,526,ls),
(159,554,o),
(169,582,o),
(178,582,cs),
(194,582,o),
(260,566,o),
(282,560,c),
(286,570,o),
(302,606,o),
(302,610,cs),
(302,617,o),
(289,634,o),
(280,640,c),
(253,643,o),
(202,646,o),
(192,646,cs),
(161,646,o),
(67,532,o),
(67,491,cs),
(67,461,l),
(20,442,l),
(20,403,l),
(67,403,l),
(67,24,ls),
(67,17,o),
(95,-9,o),
(101,-9,cs)
);
}
);
width = 237;
},
{
layerId = "CB0A0A08-290D-4820-BDFF-3CAB47D8DECF";
shapes = (
{
closed = 1;
nodes = (
(118,-13,o),
(218,4,o),
(290,16,c),
(290,76,l),
(226,100,l),
(226,528,ls),
(226,557,o),
(233,569,o),
(238,569,cs),
(252,569,o),
(333,529,o),
(352,520,c),
(355,520,o),
(389,602,o),
(389,609,cs),
(389,616,o),
(376,651,o),
(369,658,c),
(326,661,o),
(234,665,o),
(220,665,cs),
(175,665,o),
(53,548,o),
(53,506,cs),
(53,467,l),
(-5,448,l),
(-5,376,l),
(53,376,l),
(53,31,ls),
(53,24,o),
(98,-13,o),
(106,-13,cs)
);
}
);
width = 289;
}
);
unicode = 383;
},
{
color = 4;
glyphname = t;
kernLeft = t;
kernRight = t;
layers = (
{
anchors = (
{
name = bottom;
pos = (177,0);
},
{
name = center;
pos = (130,238);
},
{
name = topright;
pos = (188,448);
}
);
background = {
shapes = (
{
closed = 1;
nodes = (
(185,-9,o),
(226,2,o),
(264,10,c),
(264,58,l),
(244,59,o),
(193,63,o),
(183,65,cs),
(157,70,o),
(158,128,o),
(158,164,cs),
(158,395,l),
(255,395,l),
(255,453,l),
(158,453,l),
(158,511,l),
(158,511,o),
(132,525,o),
(123,525,c),
(67,462,l),
(3,430,l),
(3,400,l),
(67,400,l),
(67,129,ls),
(67,66,o),
(143,-9,o),
(171,-9,cs)
);
}
);
};
layerId = "555729A4-F539-4650-9C4F-3880CB033E7B";
shapes = (
{
closed = 1;
nodes = (
(157,-9,o),
(228,2,o),
(266,10,c),
(266,58,l),
(184,60,ls),
(165,60,o),
(160,72,o),
(160,113,cs),
(160,390,l),
(257,390,l),
(257,448,l),
(160,448,l),
(160,511,l),
(149,517,o),
(132,525,o),
(125,525,c),
(69,457,l),
(5,425,l),
(5,395,l),
(69,395,l),
(69,69,ls),
(69,46,o),
(119,-9,o),
(143,-9,cs)
);
}
);
width = 280;
},
{
anchors = (
{
name = bottom;
pos = (228,0);
},
{
name = center;
pos = (171,243);
},
{
name = topright;
pos = (246,462);
}
);
background = {
shapes = (
{
closed = 1;
nodes = (
(234,-13,o),
(303,-2,o),
(359,7,c),
(359,90,l),
(338,92,o),
(285,95,o),
(275,97,c),
(243,104,o),
(244,162,o),
(244,199,cs),
(244,375,l),
(347,375,l),
(347,462,l),
(244,462,l),
(244,579,l),
(244,579,o),
(188,602,o),
(181,594,cs),
(71,467,l),
(71,467,o),
(-4,442,o),
(-4,442,c),
(-4,376,l),
(71,376,l),
(71,153,ls),
(71,78,o),
(174,-13,o),
(215,-13,cs)
);
}
);
};
layerId = "CB0A0A08-290D-4820-BDFF-3CAB47D8DECF";
shapes = (
{
closed = 1;
nodes = (
(174,-13,o),
(289,-2,o),
(359,7,c),
(359,90,l),
(266,96,ls),
(254,97,o),
(244,103,o),
(244,129,cs),
(244,375,l),
(347,375,l),
(347,462,l),
(244,462,l),
(244,579,l),
(220,588,o),
(187,598,o),
(181,594,c),
(71,467,l),
(-4,442,l),
(-4,376,l),
(71,376,l),
(71,88,ls),
(71,55,o),
(134,-13,o),
(155,-13,cs)
);
}
);
width = 363;
},
{
anchors = (
{
name = bottom;
pos = (169,0);
},
{
name = center;
pos = (130,238);
},
{
name = topright;
pos = (171,440);
}
);
background = {
shapes = (
{
closed = 1;
nodes = (
(240,18,l),
(202,18,o),
(155,17,o),
(141,20,cs),
(132,22,o),
(129,29,o),
(127,37,cs),
(124,51,o),
(125,93,o),
(124,416,c),
(230,416,l),
(230,440,l),
(125,440,l),
(125,494,l),
(125,494,o),
(119,504,o),
(112,504,c),
(95,445,l),
(44,428,l),
(43,416,l),
(96,416,l),
(98,164,o),
(97,44,o),
(98,30,cs),
(99,18,o),
(127,-9,o),
(134,-9,cs),
(143,-9,o),
(212,-2,o),
(241,2,c)
);
}
);
};
layerId = "4F39836F-1187-466E-8FAB-7EBF43C51BB4";
shapes = (
{
closed = 1;
nodes = (
(143,-10,o),
(208,-4,o),
(231,-1,c),
(231,16,l),
(146,18,ls),
(130,18,o),
(124,24,o),
(124,46,cs),
(124,415,l),
(227,415,l),
(227,440,l),
(124,440,l),
(124,510,l),
(119,514,o),
(114,517,o),
(108,517,c),
(93,443,l),
(29,434,l),
(29,415,l),
(95,415,l),
(95,31,ls),
(95,20,o),
(121,-10,o),
(132,-10,cs)
);
}
);
width = 264;
}
);
unicode = 116;
},
{
color = 4;
glyphname = u;
kernLeft = u;
kernRight = u;
layers = (
{
anchors = (
{
name = bottom;
pos = (235,0);
},
{
name = ogonek;
pos = (402,7);
},
{
name = top;
pos = (223,448);
},
{
name = topright;
pos = (332,448);
}
);
layerId = "555729A4-F539-4650-9C4F-3880CB033E7B";
shapes = (
{
closed = 1;
nodes = (
(215,-9,o),
(276,36,o),
(309,62,c),
(309,24,ls),
(309,17,o),
(335,-9,o),
(341,-9,cs),
(348,-9,o),
(396,0,o),
(431,7,c),
(431,44,l),
(397,59,l),
(397,424,ls),
(397,430,o),
(369,456,o),
(363,456,cs),
(356,456,o),
(307,447,o),
(272,441,c),
(272,404,l),
(306,389,l),
(306,103,l),
(272,87,o),
(223,65,o),
(215,65,cs),
(201,65,o),
(157,64,o),
(157,160,cs),
(157,424,ls),
(157,430,o),
(128,456,o),
(122,456,cs),
(116,456,o),
(67,447,o),
(32,441,c),
(32,404,l),
(66,389,l),
(66,160,ls),
(66,29,o),
(120,-9,o),
(210,-9,cs)
);
}
);
width = 465;
},
{
anchors = (
{
name = bottom;
pos = (262,0);
},
{
name = ogonek;
pos = (465,10);
},
{
name = top;
pos = (245,462);
},
{
name = topright;
pos = (372,462);
}
);
layerId = "CB0A0A08-290D-4820-BDFF-3CAB47D8DECF";
shapes = (
{
closed = 1;
nodes = (
(221,-13,o),
(275,25,o),
(305,49,c),
(305,30,ls),
(305,22,o),
(338,-13,o),
(345,-13,cs),
(358,-13,o),
(450,0,o),
(515,10,c),
(515,79,l),
(471,94,l),
(471,432,ls),
(471,441,o),
(428,476,o),
(419,476,cs),
(407,476,o),
(318,462,o),
(255,451,c),
(255,383,l),
(298,368,l),
(298,122,l),
(282,114,o),
(258,103,o),
(254,103,cs),
(245,103,o),
(226,107,o),
(226,132,cs),
(226,432,ls),
(226,441,o),
(182,476,o),
(173,476,cs),
(162,476,o),
(74,462,o),
(10,451,c),
(10,383,l),
(53,368,l),
(53,130,ls),
(53,20,o),
(112,-13,o),
(213,-13,cs)
);
}
);
width = 525;
},
{
anchors = (
{
name = bottom;
pos = (224,0);
},
{
name = ogonek;
pos = (403,2);
},
{
name = top;
pos = (216,440);
},
{
name = topright;
pos = (303,440);
}
);
layerId = "4F39836F-1187-466E-8FAB-7EBF43C51BB4";
shapes = (
{
closed = 1;
nodes = (
(242,-10,o),
(314,46,o),
(339,69,c),
(337,7,ls),
(337,3,o),
(354,-10,o),
(357,-10,cs),
(364,-10,o),
(399,-3,o),
(424,2,c),
(424,19,l),
(366,19,l),
(366,433,ls),
(366,437,o),
(349,450,o),
(346,450,cs),
(339,450,o),
(304,443,o),
(279,438,c),
(279,421,l),
(337,421,l),
(337,98,l),
(296,63,o),
(239,17,o),
(231,17,cs),
(172,17,o),
(118,27,o),
(118,150,cs),
(118,433,ls),
(118,437,o),
(103,450,o),
(98,450,cs),
(91,450,o),
(56,443,o),
(31,438,c),
(31,421,l),
(89,421,l),
(89,164,ls),
(89,29,o),
(126,-10,o),
(237,-10,cs)
);
}
);
width = 453;
}
);
unicode = 117;
},
{
color = 4;
glyphname = v;
kernLeft = v;
kernRight = v;
layers = (
{
layerId = "555729A4-F539-4650-9C4F-3880CB033E7B";
shapes = (
{
closed = 1;
nodes = (
(165,-11,o),
(215,-1,o),
(251,7,c),
(382,420,l),
(382,430,o),
(359,455,o),
(353,455,cs),
(238,448,l),
(238,400,l),
(297,393,l),
(215,95,l),
(204,95,l),
(184,181,l),
(122,425,ls),
(119,435,o),
(89,455,o),
(83,455,cs),
(76,455,o),
(31,448,o),
(-2,443,c),
(-2,402,l),
(35,391,l),
(147,-3,l),
(151,-6,o),
(158,-11,o),
(160,-11,cs)
);
}
);
width = 402;
},
{
layerId = "CB0A0A08-290D-4820-BDFF-3CAB47D8DECF";
shapes = (
{
closed = 1;
nodes = (
(170,-13,o),
(271,-2,o),
(345,6,c),
(476,425,l),
(476,435,o),
(451,476,o),
(443,476,cs),
(254,462,l),
(254,389,l),
(320,380,l),
(265,134,l),
(255,134,l),
(248,219,l),
(211,437,l),
(208,447,o),
(169,476,o),
(162,476,cs),
(154,476,o),
(65,462,o),
(0,452,c),
(0,383,l),
(47,369,l),
(139,0,l),
(148,-6,o),
(161,-13,o),
(163,-13,cs)
);
}
);
width = 471;
},
{
layerId = "4F39836F-1187-466E-8FAB-7EBF43C51BB4";
shapes = (
{
closed = 1;
nodes = (
(200,-11,o),
(214,-8,o),
(224,-6,c),
(366,430,l),
(366,433,o),
(356,450,o),
(352,450,cs),
(254,441,l),
(254,421,l),
(334,421,l),
(210,28,l),
(208,28,l),
(185,118,l),
(94,433,ls),
(93,437,o),
(80,450,o),
(75,450,cs),
(68,450,o),
(34,443,o),
(9,438,c),
(9,421,l),
(68,421,l),
(192,-4,l),
(194,-7,o),
(197,-11,o),
(199,-11,cs)
);
}
);
width = 398;
}
);
unicode = 118;
},
{
color = 4;
glyphname = w;
kernLeft = w;
kernRight = w;
layers = (
{
anchors = (
{
name = top;
pos = (291,448);
}
);
layerId = "555729A4-F539-4650-9C4F-3880CB033E7B";
shapes = (
{
closed = 1;
nodes = (
(161,-11,o),
(211,-1,o),
(247,7,c),
(305,217,l),
(311,217,l),
(369,-3,l),
(373,-6,o),
(380,-11,o),
(382,-11,cs),
(387,-11,o),
(437,-1,o),
(473,7,c),
(600,420,l),
(600,430,o),
(577,455,o),
(571,455,cs),
(449,448,l),
(449,400,l),
(515,393,l),
(437,95,l),
(426,95,l),
(406,181,l),
(348,425,ls),
(345,435,o),
(315,455,o),
(309,455,cs),
(302,455,o),
(257,448,o),
(224,443,c),
(224,402,l),
(261,392,l),
(280,325,l),
(211,95,l),
(200,95,l),
(180,181,l),
(122,425,ls),
(119,435,o),
(89,455,o),
(83,455,cs),
(76,455,o),
(31,448,o),
(-2,443,c),
(-2,402,l),
(35,391,l),
(143,-3,l),
(147,-6,o),
(154,-11,o),
(156,-11,cs)
);
}
);
width = 620;
},
{
anchors = (
{
name = top;
pos = (367,462);
}
);
layerId = "CB0A0A08-290D-4820-BDFF-3CAB47D8DECF";
shapes = (
{
closed = 1;
nodes = (
(150,-13,o),
(244,-2,o),
(313,6,c),
(368,159,l),
(377,159,l),
(426,0,l),
(435,-6,o),
(447,-13,o),
(450,-13,cs),
(457,-13,o),
(551,-2,o),
(620,6,c),
(720,425,l),
(720,435,o),
(694,476,o),
(686,476,cs),
(508,462,l),
(508,389,l),
(576,380,l),
(537,146,l),
(527,146,l),
(511,219,l),
(465,437,l),
(462,447,o),
(422,476,o),
(415,476,cs),
(407,476,o),
(319,462,o),
(255,452,c),
(255,383,l),
(305,369,l),
(329,306,l),
(262,146,l),
(252,146,l),
(241,219,l),
(208,437,l),
(205,447,o),
(165,476,o),
(158,476,cs),
(150,476,o),
(62,462,o),
(-2,452,c),
(-2,383,l),
(45,369,l),
(119,0,l),
(128,-6,o),
(141,-13,o),
(143,-13,cs)
);
}
);
width = 727;
},
{
anchors = (
{
name = top;
pos = (294,440);
}
);
layerId = "4F39836F-1187-466E-8FAB-7EBF43C51BB4";
shapes = (
{
closed = 1;
nodes = (
(195,-11,o),
(209,-8,o),
(219,-6,c),
(309,278,l),
(312,278,l),
(387,-4,l),
(389,-7,o),
(392,-11,o),
(394,-11,cs),
(395,-11,o),
(409,-8,o),
(419,-6,c),
(553,430,l),
(553,433,o),
(543,450,o),
(539,450,cs),
(438,441,l),
(438,421,l),
(521,421,l),
(405,28,l),
(403,28,l),
(383,118,l),
(299,433,ls),
(298,437,o),
(285,450,o),
(280,450,cs),
(274,450,o),
(242,443,o),
(219,438,c),
(219,421,l),
(273,421,l),
(299,324,l),
(205,28,l),
(203,28,l),
(182,118,l),
(94,433,ls),
(93,437,o),
(80,450,o),
(75,450,cs),
(68,450,o),
(34,443,o),
(9,438,c),
(9,421,l),
(68,421,l),
(187,-4,l),
(189,-7,o),
(192,-11,o),
(194,-11,cs)
);
}
);
width = 585;
}
);
unicode = 119;
},
{
color = 4;
glyphname = x;
kernLeft = x;
kernRight = x;
layers = (
{
layerId = "555729A4-F539-4650-9C4F-3880CB033E7B";
shapes = (
{
closed = 1;
nodes = (
(36,-9,o),
(106,-4,o),
(157,0,c),
(157,48,l),
(109,55,l),
(189,172,l),
(286,23,ls),
(292,15,o),
(319,-9,o),
(325,-9,cs),
(332,-9,o),
(370,-1,o),
(397,5,c),
(397,48,l),
(358,63,l),
(248,229,l),
(384,408,l),
(384,418,o),
(371,454,o),
(364,454,cs),
(240,448,l),
(240,400,l),
(289,396,l),
(214,286,l),
(126,424,ls),
(121,433,o),
(101,454,o),
(95,454,cs),
(89,454,o),
(47,448,o),
(16,443,c),
(16,400,l),
(51,389,l),
(154,229,l),
(10,37,l),
(10,27,o),
(23,-9,o),
(30,-9,cs)
);
}
);
width = 409;
},
{
layerId = "CB0A0A08-290D-4820-BDFF-3CAB47D8DECF";
shapes = (
{
closed = 1;
nodes = (
(39,-13,o),
(147,-6,o),
(225,0,c),
(225,74,l),
(174,82,l),
(216,162,l),
(291,23,ls),
(296,13,o),
(320,-13,o),
(331,-13,cs),
(338,-13,o),
(429,0,o),
(496,10,c),
(496,83,l),
(446,94,l),
(355,236,l),
(491,417,l),
(491,427,o),
(479,476,o),
(473,476,cs),
(286,462,l),
(286,392,l),
(329,385,l),
(295,310,l),
(225,440,ls),
(219,451,o),
(197,476,o),
(187,476,cs),
(180,476,o),
(89,463,o),
(22,453,c),
(22,380,l),
(69,369,l),
(154,238,l),
(10,44,l),
(10,34,o),
(23,-13,o),
(29,-13,cs)
);
}
);
width = 501;
},
{
layerId = "4F39836F-1187-466E-8FAB-7EBF43C51BB4";
shapes = (
{
closed = 1;
nodes = (
(35,-10,o),
(85,-5,o),
(122,-1,c),
(122,19,l),
(48,19,l),
(196,208,l),
(324,7,ls),
(326,3,o),
(338,-10,o),
(344,-10,cs),
(348,-10,o),
(374,-3,o),
(392,2,c),
(392,19,l),
(350,19,l),
(215,229,l),
(369,426,l),
(369,429,o),
(359,451,o),
(355,451,cs),
(261,442,l),
(261,422,l),
(333,422,l),
(201,252,l),
(84,434,ls),
(82,438,o),
(70,451,o),
(66,451,cs),
(62,451,o),
(34,444,o),
(15,439,c),
(15,422,l),
(57,422,l),
(181,230,l),
(14,18,l),
(14,15,o),
(24,-10,o),
(28,-10,cs)
);
}
);
width = 391;
}
);
unicode = 120;
},
{
color = 4;
glyphname = y;
kernLeft = y;
kernRight = y;
layers = (
{
anchors = (
{
name = bottom;
pos = (341,0);
},
{
name = top;
pos = (199,448);
}
);
layerId = "555729A4-F539-4650-9C4F-3880CB033E7B";
shapes = (
{
closed = 1;
nodes = (
(165,-181,o),
(219,-174,o),
(259,-169,c),
(259,-132,l),
(220,-114,l),
(249,0,l),
(382,420,l),
(383,430,o),
(359,455,o),
(353,455,cs),
(238,448,l),
(238,400,l),
(298,393,l),
(214,85,l),
(204,85,l),
(181,192,l),
(123,425,ls),
(120,435,o),
(89,455,o),
(83,455,cs),
(76,455,o),
(31,448,o),
(-2,443,c),
(-2,402,l),
(37,391,l),
(143,5,l),
(148,2,o),
(156,-3,o),
(158,-3,cs),
(162,-3,o),
(174,-1,o),
(184,1,c),
(137,-141,l),
(137,-148,o),
(153,-181,o),
(159,-181,cs)
);
}
);
width = 405;
},
{
anchors = (
{
name = bottom;
pos = (492,44);
},
{
name = top;
pos = (250,462);
}
);
layerId = "CB0A0A08-290D-4820-BDFF-3CAB47D8DECF";
shapes = (
{
closed = 1;
nodes = (
(227,-186,o),
(316,-175,o),
(380,-166,c),
(382,-103,l),
(327,-85,l),
(347,20,l),
(476,425,l),
(478,435,o),
(451,476,o),
(443,476,cs),
(256,462,l),
(256,389,l),
(322,380,l),
(265,124,l),
(255,124,l),
(250,219,l),
(213,437,l),
(210,447,o),
(169,476,o),
(162,476,cs),
(154,476,o),
(66,462,o),
(2,452,c),
(2,383,l),
(47,369,l),
(141,9,l),
(150,3,o),
(163,-4,o),
(165,-4,cs),
(168,-4,o),
(191,-1,o),
(219,2,c),
(176,-119,l),
(174,-127,o),
(207,-186,o),
(214,-186,cs)
);
}
);
width = 471;
},
{
anchors = (
{
name = bottom;
pos = (338,0);
},
{
name = top;
pos = (203,440);
}
);
layerId = "4F39836F-1187-466E-8FAB-7EBF43C51BB4";
shapes = (
{
closed = 1;
nodes = (
(178,-176,o),
(213,-169,o),
(238,-164,c),
(239,-147,l),
(181,-147,l),
(225,-6,l),
(367,430,l),
(367,433,o),
(356,450,o),
(352,450,cs),
(254,441,l),
(254,421,l),
(334,421,l),
(210,25,l),
(205,25,l),
(183,110,l),
(95,433,ls),
(94,437,o),
(80,450,o),
(75,450,cs),
(68,450,o),
(34,443,o),
(9,438,c),
(9,421,l),
(68,421,l),
(186,-8,l),
(187,-9,o),
(189,-11,o),
(190,-11,cs),
(192,-11,o),
(195,-10,o),
(197,-10,c),
(151,-151,ls),
(150,-155,o),
(168,-176,o),
(171,-176,cs)
);
}
);
width = 397;
}
);
unicode = 121;
},
{
color = 4;
glyphname = z;
kernLeft = z;
kernRight = z;
layers = (
{
anchors = (
{
name = bottom;
pos = (207,0);
},
{
name = top;
pos = (193,448);
}
);
layerId = "555729A4-F539-4650-9C4F-3880CB033E7B";
shapes = (
{
closed = 1;
nodes = (
(359,0,l),
(356,144,l),
(305,144,l),
(293,60,l),
(159,66,l),
(159,80,l),
(222,187,o),
(283,293,o),
(344,403,c),
(340,416,o),
(326,440,o),
(321,448,c),
(46,448,l),
(54,326,l),
(106,326,l),
(115,392,l),
(225,386,l),
(227,374,l),
(156,253,o),
(106,156,o),
(38,46,c),
(40,39,o),
(54,9,o),
(61,0,c)
);
}
);
width = 393;
},
{
anchors = (
{
name = bottom;
pos = (220,0);
},
{
name = top;
pos = (205,462);
}
);
layerId = "CB0A0A08-290D-4820-BDFF-3CAB47D8DECF";
shapes = (
{
closed = 1;
nodes = (
(410,0,l),
(406,169,l),
(322,169,l),
(307,81,l),
(224,88,l),
(224,102,l),
(283,207,o),
(340,308,o),
(398,415,c),
(393,429,o),
(377,453,o),
(369,462,c),
(13,462,l),
(23,316,l),
(105,316,l),
(116,385,l),
(187,378,l),
(190,366,l),
(125,249,o),
(67,155,o),
(3,48,c),
(6,40,o),
(23,10,o),
(32,0,c)
);
}
);
width = 423;
},
{
anchors = (
{
name = bottom;
pos = (190,0);
},
{
name = top;
pos = (178,440);
}
);
layerId = "4F39836F-1187-466E-8FAB-7EBF43C51BB4";
shapes = (
{
closed = 1;
nodes = (
(319,0,l),
(316,107,l),
(299,107,l),
(290,26,l),
(77,26,l),
(77,30,l),
(149,153,o),
(236,291,o),
(306,416,c),
(302,425,o),
(295,435,o),
(292,440,c),
(49,440,l),
(55,342,l),
(72,342,l),
(78,414,l),
(271,414,l),
(273,412,l),
(190,275,o),
(118,150,o),
(42,25,c),
(42,20,o),
(51,6,o),
(55,0,c)
);
}
);
width = 359;
}
);
unicode = 122;
},
{
color = 4;
glyphname = c_k;
kernLeft = o;
kernRight = k;
layers = (
{
layerId = "555729A4-F539-4650-9C4F-3880CB033E7B";
shapes = (
{
closed = 1;
nodes = (
(446,-9,o),
(495,0,o),
(530,7,c),
(530,44,l),
(496,59,l),
(496,613,l),
(466,620,o),
(371,638,o),
(359,638,cs),
(334,638,o),
(243,569,o),
(232,533,c),
(231,494,o),
(225,437,o),
(254,297,c),
(314,297,l),
(313,461,o),
(311,576,o),
(325,582,c),
(334,584,o),
(376,572,o),
(406,563,c),
(406,24,ls),
(406,17,o),
(433,-9,o),
(439,-9,cs)
);
},
{
closed = 1;
nodes = (
(196,-9,o),
(269,7,o),
(317,22,c),
(317,64,l),
(204,64,ls),
(183,64,o),
(134,104,o),
(134,216,cs),
(134,304,o),
(144,381,o),
(163,396,cs),
(167,399,o),
(172,400,o),
(177,400,cs),
(197,400,o),
(229,385,o),
(243,378,c),
(289,446,l),
(260,453,o),
(230,457,o),
(207,457,cs),
(183,457,o),
(83,390,o),
(62,358,c),
(48,332,o),
(38,269,o),
(38,203,cs),
(38,56,o),
(112,-9,o),
(181,-9,cs)
);
},
{
closed = 1;
nodes = (
(696,-9,o),
(740,0,o),
(772,7,c),
(772,44,l),
(732,60,l),
(588,254,l),
(735,408,l),
(735,419,o),
(723,455,o),
(717,455,cs),
(587,448,l),
(587,400,l),
(631,394,l),
(515,262,l),
(515,221,l),
(651,23,ls),
(657,15,o),
(684,-9,o),
(690,-9,cs)
);
}
);
width = 774;
},
{
background = {
shapes = (
{
closed = 1;
nodes = (
(330,634,o),
(285,596,o),
(276,563,c),
(269,531,o),
(266,450,o),
(274,317,c),
(293,317,l),
(291,516,o),
(281,567,o),
(338,606,c),
(356,610,o),
(382,607,o),
(405,602,c),
(405,7,ls),
(405,3,o),
(422,-10,o),
(425,-10,cs),
(434,-10,o),
(492,2,o),
(492,2,c),
(492,19,l),
(434,19,l),
(434,620,l),
(403,627,o),
(372,634,o),
(344,634,cs)
);
},
{
closed = 1;
nodes = (
(225,-10,o),
(280,-2,o),
(296,1,c),
(296,18,l),
(221,15,l),
(138,15,o),
(83,59,o),
(83,202,cs),
(83,323,o),
(113,363,o),
(148,392,cs),
(172,412,o),
(198,425,o),
(213,425,cs),
(226,425,o),
(253,421,o),
(274,416,c),
(284,442,l),
(257,446,o),
(221,450,o),
(209,450,cs),
(190,450,o),
(125,417,o),
(86,360,c),
(67,325,o),
(54,269,o),
(54,195,cs),
(54,65,o),
(109,-10,o),
(213,-10,cs)
);
},
{
closed = 1;
nodes = (
(681,-10,o),
(732,2,o),
(732,2,c),
(732,19,l),
(672,19,l),
(506,239,l),
(704,427,l),
(704,430,o),
(696,450,o),
(692,450,cs),
(683,450,o),
(592,442,o),
(592,442,c),
(592,422,l),
(662,422,l),
(473,243,l),
(473,236,l),
(645,7,ls),
(651,-1,o),
(668,-10,o),
(674,-10,cs)
);
}
);
};
layerId = "4F39836F-1187-466E-8FAB-7EBF43C51BB4";
shapes = (
{
closed = 1;
nodes = (
(432,-10,o),
(467,-3,o),
(492,2,c),
(492,19,l),
(434,19,l),
(434,620,l),
(403,627,o),
(372,634,o),
(344,634,cs),
(330,634,o),
(284,596,o),
(275,563,cs),
(269,531,o),
(266,450,o),
(274,317,c),
(293,317,l),
(291,516,o),
(283,567,o),
(338,606,c),
(356,610,o),
(382,607,o),
(405,602,c),
(405,7,ls),
(405,3,o),
(422,-10,o),
(425,-10,cs)
);
},
{
closed = 1;
nodes = (
(225,-10,o),
(280,-2,o),
(296,1,c),
(296,18,l),
(221,15,ls),
(138,15,o),
(83,59,o),
(83,202,cs),
(83,323,o),
(113,363,o),
(148,392,cs),
(172,412,o),
(198,425,o),
(213,425,cs),
(226,425,o),
(253,421,o),
(274,416,c),
(284,442,l),
(257,446,o),
(221,450,o),
(209,450,cs),
(190,450,o),
(125,417,o),
(86,360,c),
(67,325,o),
(54,269,o),
(54,195,cs),
(54,65,o),
(109,-10,o),
(213,-10,cs)
);
},
{
closed = 1;
nodes = (
(679,-10,o),
(710,-3,o),
(732,2,c),
(732,19,l),
(672,19,l),
(506,239,l),
(704,427,l),
(704,430,o),
(696,450,o),
(692,450,cs),
(592,442,l),
(592,422,l),
(662,422,l),
(473,243,l),
(473,236,l),
(645,7,ls),
(651,-1,o),
(668,-10,o),
(674,-10,cs)
);
}
);
width = 756;
},
{
layerId = "CB0A0A08-290D-4820-BDFF-3CAB47D8DECF";
shapes = (
{
closed = 1;
nodes = (
(506,-13,o),
(593,1,o),
(654,12,c),
(654,80,l),
(615,95,l),
(615,646,l),
(578,658,o),
(408,679,o),
(366,679,cs),
(341,679,o),
(249,610,o),
(248,574,cs),
(243,509,o),
(257,420,o),
(284,289,c),
(378,289,l),
(373,414,o),
(361,589,o),
(377,596,c),
(388,599,o),
(414,584,o),
(442,566,c),
(442,31,ls),
(442,22,o),
(485,-13,o),
(494,-13,cs)
);
},
{
closed = 1;
nodes = (
(252,-13,o),
(351,30,o),
(380,41,c),
(380,111,l),
(266,111,ls),
(214,111,o),
(201,170,o),
(201,235,cs),
(201,316,o),
(208,376,o),
(220,386,cs),
(223,389,o),
(227,390,o),
(231,390,cs),
(241,390,o),
(258,382,o),
(276,373,c),
(336,464,l),
(302,472,o),
(264,476,o),
(238,476,cs),
(207,476,o),
(74,391,o),
(47,360,c),
(34,327,o),
(20,266,o),
(20,205,cs),
(20,75,o),
(84,-13,o),
(207,-13,cs)
);
},
{
closed = 1;
nodes = (
(769,-13,o),
(850,1,o),
(909,12,c),
(909,80,l),
(866,95,l),
(770,258,l),
(901,405,l),
(901,416,o),
(882,473,o),
(874,473,cs),
(663,462,l),
(663,388,l),
(734,378,l),
(632,263,l),
(632,202,l),
(713,17,l),
(719,8,o),
(754,-13,o),
(762,-13,cs)
);
}
);
width = 913;
}
);
metricLeft = o;
metricRight = k;
},
{
color = 4;
glyphname = f_f;
kernLeft = f;
kernRight = f;
layers = (
{
layerId = "555729A4-F539-4650-9C4F-3880CB033E7B";
shapes = (
{
closed = 1;
nodes = (
(110,-9,o),
(168,0,o),
(211,7,c),
(211,48,l),
(160,63,l),
(160,402,l),
(323,402,l),
(323,24,ls),
(323,17,o),
(351,-9,o),
(357,-9,cs),
(364,-9,o),
(422,0,o),
(465,7,c),
(465,48,l),
(414,63,l),
(414,402,l),
(509,402,l),
(509,456,l),
(414,456,l),
(415,526,ls),
(415,554,o),
(425,582,o),
(434,582,cs),
(450,582,o),
(516,566,o),
(538,560,c),
(542,570,o),
(558,606,o),
(558,610,cs),
(558,617,o),
(545,634,o),
(536,640,c),
(509,643,o),
(458,646,o),
(448,646,cs),
(417,646,o),
(323,532,o),
(323,491,cs),
(323,456,l),
(160,456,l),
(161,526,ls),
(161,554,o),
(171,582,o),
(180,582,cs),
(196,582,o),
(262,566,o),
(284,560,c),
(288,570,o),
(304,606,o),
(304,610,cs),
(304,617,o),
(291,634,o),
(282,640,c),
(255,643,o),
(204,646,o),
(194,646,cs),
(163,646,o),
(69,532,o),
(69,491,cs),
(69,461,l),
(22,442,l),
(22,403,l),
(69,403,l),
(69,24,ls),
(69,17,o),
(97,-9,o),
(103,-9,cs)
);
}
);
width = 515;
},
{
layerId = "4F39836F-1187-466E-8FAB-7EBF43C51BB4";
shapes = (
{
closed = 1;
nodes = (
(94,-10,o),
(129,-3,o),
(154,2,c),
(154,19,l),
(96,19,l),
(96,415,l),
(264,415,l),
(264,7,ls),
(264,3,o),
(281,-10,o),
(284,-10,cs),
(291,-10,o),
(326,-3,o),
(351,2,c),
(351,19,l),
(293,19,l),
(293,415,l),
(388,415,l),
(388,440,l),
(293,440,l),
(293,515,ls),
(293,586,o),
(323,611,o),
(327,611,cs),
(345,611,o),
(397,605,o),
(431,600,c),
(435,607,o),
(441,617,o),
(441,619,cs),
(441,622,o),
(435,628,o),
(431,631,c),
(403,634,o),
(357,637,o),
(333,637,cs),
(294,637,o),
(264,580,o),
(264,513,cs),
(264,440,l),
(96,440,l),
(96,515,ls),
(96,586,o),
(126,611,o),
(130,611,cs),
(148,611,o),
(200,605,o),
(234,600,c),
(238,607,o),
(244,617,o),
(244,619,cs),
(244,622,o),
(238,628,o),
(234,631,c),
(206,634,o),
(160,637,o),
(136,637,cs),
(97,637,o),
(67,580,o),
(67,513,cs),
(67,442,l),
(20,433,l),
(20,415,l),
(67,415,l),
(67,7,ls),
(67,3,o),
(84,-10,o),
(87,-10,cs)
);
}
);
width = 386;
},
{
layerId = "CB0A0A08-290D-4820-BDFF-3CAB47D8DECF";
shapes = (
{
closed = 1;
nodes = (
(118,-13,o),
(218,4,o),
(290,16,c),
(290,76,l),
(226,100,l),
(226,375,l),
(372,375,l),
(372,31,ls),
(372,24,o),
(417,-13,o),
(425,-13,cs),
(437,-13,o),
(537,4,o),
(609,16,c),
(609,76,l),
(545,100,l),
(545,375,l),
(654,375,l),
(654,462,l),
(545,462,l),
(545,528,ls),
(545,557,o),
(552,569,o),
(557,569,cs),
(571,569,o),
(652,529,o),
(671,520,c),
(674,520,o),
(708,602,o),
(708,609,cs),
(708,616,o),
(695,651,o),
(688,658,c),
(645,661,o),
(553,665,o),
(539,665,cs),
(494,665,o),
(372,551,o),
(372,506,cs),
(372,462,l),
(226,462,l),
(226,528,ls),
(226,557,o),
(233,569,o),
(238,569,cs),
(252,569,o),
(323,529,o),
(342,520,c),
(345,520,o),
(379,602,o),
(379,609,cs),
(379,616,o),
(366,651,o),
(359,658,c),
(316,661,o),
(234,665,o),
(220,665,cs),
(175,665,o),
(53,548,o),
(53,506,cs),
(53,467,l),
(-5,448,l),
(-5,376,l),
(53,376,l),
(53,31,ls),
(53,24,o),
(98,-13,o),
(106,-13,cs)
);
}
);
width = 648;
}
);
metricLeft = f;
metricRight = f;
},
{
color = 4;
glyphname = f_f_i;
kernLeft = f;
kernRight = i;
layers = (
{
layerId = "555729A4-F539-4650-9C4F-3880CB033E7B";
shapes = (
{
closed = 1;
nodes = (
(110,-9,o),
(168,0,o),
(211,7,c),
(211,48,l),
(160,63,l),
(160,402,l),
(323,402,l),
(323,24,ls),
(323,17,o),
(351,-9,o),
(357,-9,cs),
(364,-9,o),
(422,0,o),
(465,7,c),
(465,48,l),
(414,63,l),
(414,402,l),
(562,402,l),
(562,28,ls),
(562,21,o),
(595,-9,o),
(602,-9,cs),
(609,-9,o),
(654,0,o),
(687,7,c),
(687,44,l),
(652,54,l),
(652,419,ls),
(652,428,o),
(620,456,o),
(612,456,cs),
(415,456,l),
(415,526,ls),
(415,554,o),
(425,582,o),
(434,582,cs),
(450,582,o),
(540,566,o),
(562,560,c),
(566,570,o),
(582,606,o),
(582,610,cs),
(582,617,o),
(569,634,o),
(560,640,c),
(533,643,o),
(458,646,o),
(448,646,cs),
(417,646,o),
(323,532,o),
(323,491,cs),
(323,456,l),
(160,456,l),
(161,526,ls),
(161,554,o),
(171,582,o),
(180,582,cs),
(196,582,o),
(262,566,o),
(284,560,c),
(288,570,o),
(304,606,o),
(304,610,cs),
(304,617,o),
(291,634,o),
(282,640,c),
(255,643,o),
(204,646,o),
(194,646,cs),
(163,646,o),
(69,532,o),
(69,491,cs),
(69,461,l),
(22,442,l),
(22,403,l),
(69,403,l),
(69,24,ls),
(69,17,o),
(97,-9,o),
(103,-9,cs)
);
}
);
width = 721;
},
{
layerId = "4F39836F-1187-466E-8FAB-7EBF43C51BB4";
shapes = (
{
closed = 1;
nodes = (
(94,-10,o),
(129,-3,o),
(154,2,c),
(154,19,l),
(96,19,l),
(96,425,l),
(264,425,l),
(264,7,ls),
(264,3,o),
(281,-10,o),
(284,-10,cs),
(291,-10,o),
(326,-3,o),
(351,2,c),
(351,19,l),
(293,19,l),
(293,425,l),
(477,425,l),
(477,7,ls),
(477,3,o),
(494,-10,o),
(497,-10,cs),
(504,-10,o),
(539,-3,o),
(564,2,c),
(564,19,l),
(506,19,l),
(506,433,ls),
(506,437,o),
(489,450,o),
(486,450,cs),
(293,450,l),
(293,515,ls),
(293,586,o),
(343,611,o),
(347,611,cs),
(370,611,o),
(459,600,o),
(481,597,c),
(485,604,o),
(491,614,o),
(491,616,cs),
(491,619,o),
(485,625,o),
(481,628,c),
(458,631,o),
(387,637,o),
(353,637,cs),
(314,637,o),
(264,580,o),
(264,513,cs),
(264,450,l),
(96,450,l),
(96,515,ls),
(96,586,o),
(126,611,o),
(130,611,cs),
(148,611,o),
(200,605,o),
(234,600,c),
(238,607,o),
(244,617,o),
(244,619,cs),
(244,622,o),
(238,628,o),
(234,631,c),
(206,634,o),
(160,637,o),
(136,637,cs),
(97,637,o),
(67,580,o),
(67,513,cs),
(67,452,l),
(20,443,l),
(20,425,l),
(67,425,l),
(67,7,ls),
(67,3,o),
(84,-10,o),
(87,-10,cs)
);
}
);
width = 600;
},
{
layerId = "CB0A0A08-290D-4820-BDFF-3CAB47D8DECF";
shapes = (
{
closed = 1;
nodes = (
(118,-13,o),
(218,4,o),
(290,16,c),
(290,76,l),
(226,100,l),
(226,375,l),
(372,375,l),
(372,31,ls),
(372,24,o),
(417,-13,o),
(425,-13,cs),
(437,-13,o),
(537,4,o),
(609,16,c),
(609,76,l),
(545,100,l),
(545,375,l),
(696,375,l),
(696,31,ls),
(696,22,o),
(739,-13,o),
(748,-13,cs),
(760,-13,o),
(849,1,o),
(912,12,c),
(912,80,l),
(869,95,l),
(869,419,ls),
(869,427,o),
(836,462,o),
(829,462,cs),
(545,462,l),
(545,528,ls),
(545,557,o),
(577,569,o),
(582,569,cs),
(596,569,o),
(694,535,o),
(738,517,c),
(749,539,o),
(775,599,o),
(775,606,cs),
(775,613,o),
(762,648,o),
(755,655,c),
(712,659,o),
(578,665,o),
(564,665,cs),
(519,665,o),
(372,548,o),
(372,506,cs),
(372,462,l),
(226,462,l),
(226,528,ls),
(226,557,o),
(233,569,o),
(238,569,cs),
(252,569,o),
(323,529,o),
(342,520,c),
(345,520,o),
(379,602,o),
(379,609,cs),
(379,616,o),
(366,651,o),
(359,658,c),
(316,661,o),
(234,665,o),
(220,665,cs),
(175,665,o),
(53,548,o),
(53,506,cs),
(53,467,l),
(-5,448,l),
(-5,376,l),
(53,376,l),
(53,31,ls),
(53,24,o),
(98,-13,o),
(106,-13,cs)
);
}
);
width = 922;
}
);
metricLeft = f;
metricRight = i;
},
{
color = 4;
glyphname = f_f_l;
kernLeft = f;
kernRight = l;
layers = (
{
layerId = "555729A4-F539-4650-9C4F-3880CB033E7B";
shapes = (
{
closed = 1;
nodes = (
(110,-9,o),
(168,0,o),
(211,7,c),
(211,48,l),
(160,63,l),
(160,402,l),
(323,402,l),
(323,24,ls),
(323,17,o),
(351,-9,o),
(357,-9,cs),
(364,-9,o),
(422,0,o),
(465,7,c),
(465,48,l),
(414,63,l),
(414,402,l),
(497,402,l),
(497,456,l),
(414,456,l),
(415,526,ls),
(415,554,o),
(425,582,o),
(434,582,cs),
(449,582,o),
(547,570,o),
(583,562,c),
(583,24,ls),
(583,17,o),
(610,-9,o),
(616,-9,cs),
(623,-9,o),
(672,0,o),
(707,7,c),
(707,44,l),
(673,59,l),
(673,615,l),
(612,627,o),
(485,646,o),
(448,646,cs),
(417,646,o),
(323,532,o),
(323,491,cs),
(323,456,l),
(160,456,l),
(161,526,ls),
(161,554,o),
(171,582,o),
(180,582,cs),
(196,582,o),
(262,566,o),
(284,560,c),
(288,570,o),
(304,606,o),
(304,610,cs),
(304,617,o),
(291,634,o),
(282,640,c),
(255,643,o),
(204,646,o),
(194,646,cs),
(163,646,o),
(69,532,o),
(69,491,cs),
(69,461,l),
(22,442,l),
(22,403,l),
(69,403,l),
(69,24,ls),
(69,17,o),
(97,-9,o),
(103,-9,cs)
);
}
);
width = 742;
},
{
layerId = "4F39836F-1187-466E-8FAB-7EBF43C51BB4";
shapes = (
{
closed = 1;
nodes = (
(94,-10,o),
(129,-3,o),
(154,2,c),
(154,19,l),
(96,19,l),
(96,415,l),
(264,415,l),
(264,7,ls),
(264,3,o),
(281,-10,o),
(284,-10,cs),
(291,-10,o),
(326,-3,o),
(351,2,c),
(351,19,l),
(293,19,l),
(293,415,l),
(388,415,l),
(388,440,l),
(293,440,l),
(293,515,ls),
(293,586,o),
(343,611,o),
(347,611,cs),
(388,611,o),
(446,600,o),
(477,593,c),
(477,7,ls),
(477,3,o),
(494,-10,o),
(497,-10,cs),
(504,-10,o),
(539,-3,o),
(564,2,c),
(564,19,l),
(506,19,l),
(506,617,l),
(451,628,o),
(388,637,o),
(353,637,cs),
(314,637,o),
(264,580,o),
(264,513,cs),
(264,440,l),
(96,440,l),
(96,515,ls),
(96,586,o),
(126,611,o),
(130,611,cs),
(148,611,o),
(200,605,o),
(234,600,c),
(238,607,o),
(244,617,o),
(244,619,cs),
(244,624,o),
(237,631,o),
(234,631,cs),
(213,634,o),
(169,637,o),
(136,637,cs),
(97,637,o),
(67,580,o),
(67,513,cs),
(67,442,l),
(20,433,l),
(20,415,l),
(67,415,l),
(67,7,ls),
(67,3,o),
(84,-10,o),
(87,-10,cs)
);
}
);
width = 600;
},
{
layerId = "CB0A0A08-290D-4820-BDFF-3CAB47D8DECF";
shapes = (
{
closed = 1;
nodes = (
(118,-13,o),
(218,4,o),
(290,16,c),
(290,76,l),
(226,100,l),
(226,375,l),
(372,375,l),
(372,31,ls),
(372,24,o),
(417,-13,o),
(425,-13,cs),
(437,-13,o),
(537,4,o),
(609,16,c),
(609,76,l),
(545,100,l),
(545,375,l),
(644,375,l),
(644,462,l),
(545,462,l),
(545,528,ls),
(545,557,o),
(552,569,o),
(557,569,cs),
(564,569,o),
(628,552,o),
(688,535,c),
(688,31,ls),
(688,22,o),
(731,-13,o),
(740,-13,cs),
(752,-13,o),
(841,1,o),
(904,12,c),
(904,80,l),
(861,95,l),
(861,621,l),
(758,642,o),
(583,665,o),
(539,665,cs),
(494,665,o),
(372,548,o),
(372,506,cs),
(372,462,l),
(226,462,l),
(226,528,ls),
(226,557,o),
(233,569,o),
(238,569,cs),
(252,569,o),
(323,529,o),
(342,520,c),
(345,520,o),
(379,602,o),
(379,609,cs),
(379,616,o),
(366,651,o),
(359,658,c),
(316,661,o),
(234,665,o),
(220,665,cs),
(175,665,o),
(53,548,o),
(53,506,cs),
(53,467,l),
(-5,448,l),
(-5,376,l),
(53,376,l),
(53,31,ls),
(53,24,o),
(98,-13,o),
(106,-13,cs)
);
}
);
width = 912;
}
);
metricLeft = f;
metricRight = l;
},
{
color = 4;
glyphname = f_h;
kernLeft = f;
kernRight = n;
layers = (
{
background = {
shapes = (
{
closed = 1;
nodes = (
(114,-9,o),
(209,7,o),
(209,7,c),
(208,48,l),
(159,63,l),
(156,526,ls),
(156,554,o),
(166,582,o),
(175,582,cs),
(189,582,o),
(276,566,o),
(310,557,c),
(394,615,l),
(340,624,o),
(222,646,o),
(187,646,cs),
(157,646,o),
(69,532,o),
(69,491,cs),
(72,24,l),
(71,17,o),
(99,-9,o),
(105,-9,cs)
);
},
{
closed = 1;
nodes = (
(248,456,l),
(69,461,l),
(23,442,l),
(24,403,l),
(247,402,l)
);
},
{
closed = 1;
nodes = (
(355,-9,o),
(433,7,o),
(433,7,c),
(432,44,l),
(400,59,l),
(394,615,l),
(310,615,l),
(314,24,l),
(313,17,o),
(340,-9,o),
(346,-9,cs)
);
},
{
closed = 1;
nodes = (
(575,-9,o),
(669,22,o),
(669,22,c),
(669,52,l),
(622,63,l),
(624,288,l),
(624,312,o),
(622,333,o),
(619,351,cs),
(607,424,o),
(566,456,o),
(480,456,cs),
(467,456,o),
(428,349,o),
(401,278,c),
(387,278,l),
(387,184,l),
(415,242,o),
(490,382,o),
(504,382,cs),
(524,382,o),
(531,367,o),
(536,346,cs),
(538,338,o),
(538,328,o),
(538,318,cs),
(535,22,l),
(537,15,o),
(562,-9,o),
(568,-9,cs)
);
}
);
};
layerId = "555729A4-F539-4650-9C4F-3880CB033E7B";
shapes = (
{
closed = 1;
nodes = (
(110,-9,o),
(168,0,o),
(211,7,c),
(211,48,l),
(160,63,l),
(160,402,l),
(255,402,l),
(255,456,l),
(160,456,l),
(161,526,ls),
(161,554,o),
(171,582,o),
(180,582,cs),
(196,582,o),
(297,561,o),
(321,554,c),
(405,613,l),
(338,629,o),
(219,646,o),
(194,646,cs),
(163,646,o),
(69,532,o),
(69,491,cs),
(69,461,l),
(22,442,l),
(22,403,l),
(69,403,l),
(69,24,ls),
(69,17,o),
(97,-9,o),
(103,-9,cs)
);
},
{
closed = 1;
nodes = (
(354,-9,o),
(403,0,o),
(439,7,c),
(439,44,l),
(405,59,l),
(405,344,l),
(423,352,o),
(491,382,o),
(500,382,cs),
(515,382,o),
(558,384,o),
(558,288,cs),
(558,24,ls),
(558,17,o),
(586,-9,o),
(592,-9,cs),
(599,-9,o),
(648,0,o),
(684,7,c),
(684,44,l),
(649,59,l),
(649,288,ls),
(649,418,o),
(596,456,o),
(505,456,cs),
(501,456,o),
(440,412,o),
(405,386,c),
(400,387,l),
(405,613,l),
(314,579,l),
(314,24,ls),
(314,17,o),
(341,-9,o),
(347,-9,cs)
);
}
);
width = 719;
},
{
layerId = "4F39836F-1187-466E-8FAB-7EBF43C51BB4";
shapes = (
{
closed = 1;
nodes = (
(94,-10,o),
(129,-3,o),
(154,2,c),
(154,19,l),
(96,19,l),
(96,415,l),
(191,415,l),
(191,440,l),
(96,440,l),
(96,515,ls),
(96,586,o),
(141,611,o),
(145,611,cs),
(172,611,o),
(253,598,o),
(300,589,c),
(319,616,l),
(274,624,o),
(180,637,o),
(151,637,cs),
(112,637,o),
(67,580,o),
(67,513,cs),
(67,442,l),
(20,433,l),
(20,415,l),
(67,415,l),
(67,7,ls),
(67,3,o),
(84,-10,o),
(87,-10,cs)
);
},
{
closed = 1;
nodes = (
(317,-10,o),
(352,-3,o),
(377,2,c),
(377,19,l),
(319,19,l),
(319,342,l),
(356,372,o),
(422,423,o),
(427,423,cs),
(486,423,o),
(540,413,o),
(540,290,cs),
(540,7,ls),
(540,3,o),
(555,-10,o),
(560,-10,cs),
(567,-10,o),
(602,-3,o),
(627,2,c),
(627,19,l),
(569,19,l),
(569,276,ls),
(569,411,o),
(532,450,o),
(421,450,cs),
(416,450,o),
(349,397,o),
(319,373,c),
(317,374,l),
(319,616,l),
(290,604,l),
(290,7,ls),
(290,3,o),
(307,-10,o),
(310,-10,cs)
);
}
);
width = 655;
},
{
background = {
shapes = (
{
closed = 1;
nodes = (
(106,-9,o),
(284,7,o),
(284,7,c),
(284,80,l),
(220,95,l),
(220,520,ls),
(220,548,o),
(232,569,o),
(247,569,cs),
(256,569,o),
(341,550,o),
(408,529,c),
(545,631,l),
(463,645,o),
(292,665,o),
(223,665,cs),
(180,665,o),
(53,548,o),
(53,507,cs),
(54,40,ls),
(54,26,o),
(88,-9,o),
(97,-9,cs)
);
},
{
closed = 1;
nodes = (
(326,462,l),
(54,467,l),
(-2,448,l),
(-1,376,l),
(326,375,l)
);
},
{
closed = 1;
nodes = (
(432,-9,o),
(577,6,o),
(577,6,c),
(572,65,l),
(564,69,o),
(550,76,o),
(550,94,cs),
(550,97,o),
(549,101,o),
(549,106,cs),
(545,631,l),
(383,631,l),
(382,40,ls),
(382,26,o),
(416,-9,o),
(425,-9,cs)
);
},
{
closed = 1;
nodes = (
(675,-9,o),
(834,12,o),
(834,12,c),
(833,80,l),
(791,91,l),
(794,308,ls),
(794,331,o),
(793,351,o),
(790,369,cs),
(777,446,o),
(726,476,o),
(622,476,cs),
(611,476,o),
(580,387,o),
(553,315,c),
(531,315,l),
(528,226,l),
(565,273,o),
(595,308,o),
(598,308,cs),
(614,308,o),
(619,300,o),
(623,281,cs),
(625,271,o),
(625,260,o),
(625,246,cs),
(625,40,ls),
(625,26,o),
(659,-9,o),
(668,-9,cs)
);
}
);
};
layerId = "CB0A0A08-290D-4820-BDFF-3CAB47D8DECF";
shapes = (
{
closed = 1;
nodes = (
(118,-13,o),
(218,4,o),
(290,16,c),
(290,76,l),
(226,100,l),
(226,375,l),
(335,375,l),
(335,462,l),
(226,462,l),
(226,528,ls),
(226,557,o),
(233,569,o),
(238,569,cs),
(252,569,o),
(319,555,o),
(408,529,c),
(547,631,l),
(419,650,o),
(308,665,o),
(224,665,cs),
(179,665,o),
(53,548,o),
(53,506,cs),
(53,467,l),
(-5,448,l),
(-5,376,l),
(53,376,l),
(53,31,ls),
(53,24,o),
(98,-13,o),
(106,-13,cs)
);
},
{
closed = 1;
nodes = (
(447,-13,o),
(536,1,o),
(599,12,c),
(599,80,l),
(556,95,l),
(556,341,l),
(570,348,o),
(594,360,o),
(600,360,cs),
(609,360,o),
(628,355,o),
(628,331,cs),
(628,31,ls),
(628,22,o),
(672,-13,o),
(681,-13,cs),
(692,-13,o),
(780,1,o),
(844,12,c),
(844,80,l),
(801,95,l),
(801,333,ls),
(801,443,o),
(742,476,o),
(641,476,cs),
(633,476,o),
(585,441,o),
(555,417,c),
(547,419,l),
(547,631,l),
(383,558,l),
(383,31,ls),
(383,22,o),
(426,-13,o),
(435,-13,cs)
);
}
);
width = 852;
}
);
metricLeft = f;
metricRight = n;
},
